{"glyphs":{"0":{"ha":903,"x_min":0,"x_max":0,"o":"m 856 546 b 740 1014 856 768 825 918 b 451 1124 676 1085 582 1124 b 163 1014 321 1124 226 1085 b 49 546 79 918 49 768 b 163 76 49 322 79 172 b 451 -33 226 4 321 -33 b 740 76 582 -33 676 4 b 856 546 825 172 856 322 z m 564 546 b 533 236 564 383 557 282 b 451 188 515 201 486 188 b 369 236 417 188 388 201 b 340 546 346 282 340 383 b 369 854 340 707 346 808 b 451 901 388 889 417 901 b 533 854 486 901 515 889 b 564 546 557 808 564 707 z "},"1":{"ha":903,"x_min":0,"x_max":0,"o":"m 678 -14 l 678 1104 l 428 1104 l 168 985 l 168 753 l 386 850 l 386 -14 z "},"2":{"ha":903,"x_min":0,"x_max":0,"o":"m 824 786 b 447 1124 824 968 693 1124 b 71 786 201 1124 71 968 l 71 732 l 363 732 l 363 790 b 447 901 363 864 388 901 b 532 790 507 901 532 864 b 458 619 532 724 511 679 l 88 190 l 88 -14 l 839 -14 l 839 207 l 450 207 l 701 494 b 824 786 792 599 824 667 z "},"3":{"ha":903,"x_min":0,"x_max":0,"o":"m 449 188 b 346 314 378 188 346 233 l 346 343 l 54 343 l 54 303 b 449 -33 54 103 208 -33 b 842 303 688 -33 842 103 b 635 581 842 447 774 550 b 808 818 743 611 808 688 b 449 1124 808 997 672 1124 b 88 807 224 1124 88 1001 l 88 781 l 369 781 l 369 803 b 449 901 369 869 394 901 b 526 803 493 901 526 871 b 406 683 526 708 481 683 l 333 683 l 333 463 l 406 463 b 550 314 510 463 550 432 b 449 188 550 233 518 188 z "},"4":{"ha":903,"x_min":0,"x_max":0,"o":"m 282 406 l 469 721 l 469 406 z m 864 406 l 750 406 l 750 1104 l 454 1104 l 39 406 l 39 185 l 469 185 l 469 -14 l 750 -14 l 750 185 l 864 185 z "},"5":{"ha":903,"x_min":0,"x_max":0,"o":"m 454 510 b 547 349 511 510 547 465 b 454 188 547 232 518 188 b 364 310 393 188 369 231 l 71 310 b 454 -33 82 100 208 -33 b 838 338 710 -33 838 113 b 554 711 838 599 724 711 b 397 656 483 711 428 688 l 408 882 l 785 882 l 785 1104 l 139 1104 l 110 453 l 376 453 b 454 510 388 485 413 510 z "},"6":{"ha":903,"x_min":0,"x_max":0,"o":"m 825 814 b 461 1124 807 1007 682 1124 b 64 499 167 1124 64 918 b 464 -33 64 169 163 -33 b 847 346 703 -33 847 114 b 526 711 847 582 700 711 b 350 631 447 711 382 683 b 460 910 350 836 388 910 b 539 814 508 910 536 876 z m 357 346 b 457 504 357 453 389 504 b 556 346 525 504 556 453 b 457 188 556 239 525 188 b 357 346 389 188 357 239 z "},"7":{"ha":903,"x_min":0,"x_max":0,"o":"m 79 882 l 532 882 l 189 -14 l 485 -14 l 825 900 l 825 1104 l 79 1104 z "},"8":{"ha":903,"x_min":0,"x_max":0,"o":"m 451 1124 b 75 819 221 1124 75 1003 b 238 581 75 704 144 614 b 42 303 121 538 42 446 b 451 -33 42 94 201 -33 b 861 303 701 -33 861 94 b 665 581 861 446 783 538 b 828 819 758 614 828 704 b 451 1124 828 1003 682 1124 z m 544 794 b 451 686 544 724 510 686 b 358 794 392 686 358 724 b 451 901 358 864 392 901 b 544 794 510 901 544 864 z m 569 329 b 451 188 569 235 525 188 b 333 329 378 188 333 235 b 451 472 333 425 378 472 b 569 329 525 472 569 425 z "},"9":{"ha":903,"x_min":0,"x_max":0,"o":"m 78 276 b 442 -33 96 83 221 -33 b 839 592 735 -33 839 169 b 439 1124 839 921 740 1124 b 56 744 200 1124 56 976 b 376 379 56 508 203 379 b 554 460 456 379 521 407 b 443 179 551 251 517 179 b 364 276 394 179 367 213 z m 546 743 b 447 586 546 636 514 586 b 347 743 379 586 347 636 b 447 901 347 851 379 901 b 546 743 514 901 546 851 z "}," ":{"ha":415,"x_min":0,"x_max":0,"o":""},"!":{"ha":474,"x_min":0,"x_max":0,"o":"m 97 -14 l 376 -14 l 376 232 l 97 232 z m 117 338 l 357 338 l 376 944 l 376 1104 l 97 1104 l 97 944 z "},"\"":{"ha":671,"x_min":0,"x_max":0,"o":"m 371 743 l 593 743 l 593 1104 l 371 1104 z m 78 743 l 300 743 l 300 1104 l 78 1104 z "},"#":{"ha":1122,"x_min":0,"x_max":0,"o":"m 507 -14 l 757 -14 l 813 239 l 1035 239 l 1035 447 l 857 447 l 899 642 l 1089 642 l 1089 851 l 944 851 l 1000 1104 l 750 1104 l 694 851 l 560 851 l 615 1104 l 365 1104 l 308 851 l 88 851 l 88 642 l 264 642 l 222 447 l 33 447 l 33 239 l 176 239 l 122 -14 l 372 -14 l 426 239 l 561 239 z m 514 642 l 649 642 l 607 447 l 472 447 z "},"$":{"ha":932,"x_min":0,"x_max":0,"o":"m 896 317 b 578 669 896 515 781 628 l 493 685 b 344 804 386 707 344 742 b 449 896 344 861 381 896 b 553 804 515 896 553 861 l 553 785 l 853 785 l 853 804 b 575 1111 853 946 756 1071 l 575 1256 l 324 1256 l 324 1111 b 44 790 144 1072 44 947 b 367 446 44 586 175 483 l 451 428 b 596 303 558 407 596 368 b 475 193 596 238 556 193 b 354 303 394 193 354 238 l 354 328 l 54 328 l 54 306 b 350 -22 54 140 157 15 l 350 -165 l 601 -165 l 601 -22 b 896 317 796 17 896 147 z "},"%":{"ha":1326,"x_min":0,"x_max":0,"o":"m 794 1104 l 336 -14 l 532 -14 l 990 1104 z m 256 821 b 308 964 256 933 267 964 b 361 821 350 964 361 933 b 308 678 361 708 350 678 b 256 821 267 678 256 708 z m 54 821 b 307 519 54 625 135 519 b 561 821 482 519 561 625 b 307 1124 561 1017 482 1124 b 54 821 135 1124 54 1017 z m 1071 269 b 1018 126 1071 156 1060 126 b 964 269 976 126 964 156 b 1018 411 964 381 976 411 b 1071 269 1060 411 1071 381 z m 1272 269 b 1019 571 1272 464 1192 571 b 764 269 844 571 764 464 b 1019 -33 764 74 844 -33 b 1272 269 1192 -33 1272 74 z "},"&":{"ha":1088,"x_min":0,"x_max":0,"o":"m 465 715 b 400 850 415 775 400 808 b 460 921 400 896 419 921 b 518 850 500 921 518 897 l 518 806 l 792 806 l 792 850 b 460 1124 792 1021 660 1124 b 128 850 258 1124 128 1021 b 239 592 128 765 160 689 b 49 296 118 529 49 426 b 439 -33 49 96 201 -33 b 707 54 542 -33 638 -4 l 764 -14 l 1093 -14 l 888 225 b 992 568 949 322 986 442 l 719 568 b 704 432 719 524 715 472 z m 460 179 b 331 301 383 179 331 218 b 388 422 331 350 351 392 l 567 214 b 460 179 539 190 499 179 z "},"'":{"ha":378,"x_min":0,"x_max":0,"o":"m 78 743 l 300 743 l 300 1104 l 78 1104 z "},"(":{"ha":563,"x_min":0,"x_max":0,"o":"m 78 539 b 540 -185 78 -64 201 -185 l 540 21 b 357 539 418 21 357 40 b 540 1057 357 1038 418 1057 l 540 1263 b 78 539 201 1263 78 1139 z "},")":{"ha":563,"x_min":0,"x_max":0,"o":"m 485 539 b 21 1263 485 1139 360 1263 l 21 1057 b 204 539 143 1057 204 1038 b 21 21 204 40 143 21 l 21 -185 b 485 539 360 -185 485 -64 z "},"*":{"ha":839,"x_min":0,"x_max":0,"o":"m 285 506 l 42 413 l 149 225 l 351 389 l 311 132 l 528 132 l 488 389 l 690 225 l 797 413 l 554 506 l 797 600 l 690 788 l 488 624 l 528 881 l 311 881 l 351 624 l 149 788 l 42 600 z "},"+":{"ha":856,"x_min":0,"x_max":0,"o":"m 49 401 l 300 401 l 300 132 l 556 132 l 556 401 l 807 401 l 807 610 l 556 610 l 556 881 l 300 881 l 300 610 l 49 610 z "},",":{"ha":451,"x_min":0,"x_max":0,"o":"m 367 263 l 85 263 l 85 -14 l 225 -14 b 85 -122 225 -86 179 -119 l 85 -244 b 367 -14 265 -240 367 -146 z "},"-":{"ha":651,"x_min":0,"x_max":0,"o":"m 49 394 l 603 394 l 603 618 l 49 618 z "},".":{"ha":451,"x_min":0,"x_max":0,"o":"m 367 263 l 85 263 l 85 -14 l 367 -14 z "},"/":{"ha":814,"x_min":0,"x_max":0,"o":"m 814 1236 l 524 1236 b 0 -162 349 769 175 304 l 290 -162 b 814 1236 465 304 639 769 z "},":":{"ha":451,"x_min":0,"x_max":0,"o":"m 367 785 l 85 785 l 85 507 l 367 507 z m 367 263 l 85 263 l 85 -14 l 367 -14 z "},";":{"ha":451,"x_min":0,"x_max":0,"o":"m 367 785 l 85 785 l 85 507 l 367 507 z m 367 263 l 85 263 l 85 -14 l 225 -14 b 85 -122 225 -85 179 -119 l 85 -243 b 367 -14 265 -239 367 -146 z "},"<":{"ha":849,"x_min":0,"x_max":0,"o":"m 58 397 l 790 121 l 790 365 l 367 507 l 790 647 l 790 893 l 58 617 z "},"=":{"ha":856,"x_min":0,"x_max":0,"o":"m 49 572 l 807 572 l 807 782 l 49 782 z m 49 231 l 807 231 l 807 440 l 49 440 z "},">":{"ha":849,"x_min":0,"x_max":0,"o":"m 790 617 l 58 893 l 58 647 l 482 507 l 58 365 l 58 121 l 790 397 z "},"?":{"ha":832,"x_min":0,"x_max":0,"o":"m 267 -14 l 546 -14 l 546 232 l 267 232 z m 494 806 b 385 640 494 747 471 715 b 267 399 292 561 267 511 l 267 318 l 546 318 l 546 371 b 647 536 546 429 558 460 b 774 806 740 621 774 688 b 414 1124 774 990 656 1124 b 54 806 172 1124 54 990 l 54 779 l 333 779 l 333 806 b 414 901 333 867 361 901 b 494 806 468 901 494 867 z "},"@":{"ha":1176,"x_min":0,"x_max":0,"o":"m 588 947 b 879 636 781 947 851 853 b 696 738 854 697 792 738 b 411 374 525 738 411 618 b 747 -1 411 136 531 -1 b 1107 417 983 -1 1107 146 b 588 1124 1107 915 964 1124 b 68 403 213 1124 68 919 b 581 -315 68 -174 263 -315 b 815 -262 661 -315 747 -299 l 754 -101 b 588 -140 707 -129 650 -140 b 286 403 371 -140 286 -31 b 588 947 286 818 358 947 z m 640 368 b 764 558 640 500 676 558 b 889 368 853 558 889 500 b 764 176 889 235 853 176 b 640 368 676 176 640 235 z "},"A":{"ha":1028,"x_min":0,"x_max":0,"o":"m 363 1104 l 10 -14 l 311 -14 l 357 165 l 669 165 l 715 -14 l 1018 -14 l 665 1104 z m 613 390 l 414 390 l 514 779 z "},"B":{"ha":957,"x_min":0,"x_max":0,"o":"m 599 772 b 485 657 599 689 561 657 l 369 657 l 369 888 l 485 888 b 599 772 561 888 599 856 z m 526 -14 b 922 317 782 -14 922 94 b 735 569 922 442 850 532 b 892 796 832 604 892 678 b 515 1104 892 996 765 1104 l 68 1104 l 68 -14 z m 621 332 b 501 203 621 242 583 203 l 369 203 l 369 461 l 501 461 b 621 332 583 461 621 422 z "},"C":{"ha":1019,"x_min":0,"x_max":0,"o":"m 49 546 b 171 101 49 354 79 206 b 517 -33 250 11 367 -33 b 975 381 803 -33 967 122 l 676 381 b 517 206 674 272 622 206 b 396 265 463 206 425 224 b 350 546 361 317 350 392 b 396 824 350 697 361 774 b 517 883 425 865 463 883 b 676 708 622 883 672 818 l 975 708 b 517 1124 967 967 803 1124 b 171 989 367 1124 250 1079 b 49 546 79 885 49 735 z "},"D":{"ha":1008,"x_min":0,"x_max":0,"o":"m 504 -14 b 960 546 860 -14 960 196 b 504 1104 960 890 861 1104 l 68 1104 l 68 -14 z m 660 546 b 494 215 660 274 613 215 l 369 215 l 369 875 l 494 875 b 660 546 607 875 660 822 z "},"E":{"ha":849,"x_min":0,"x_max":0,"o":"m 68 -14 l 804 -14 l 804 224 l 369 224 l 369 439 l 739 439 l 739 679 l 369 679 l 369 865 l 796 865 l 796 1104 l 68 1104 z "},"F":{"ha":818,"x_min":0,"x_max":0,"o":"m 68 -14 l 369 -14 l 369 424 l 739 424 l 739 663 l 369 663 l 369 865 l 788 865 l 788 1104 l 68 1104 z "},"G":{"ha":1036,"x_min":0,"x_max":0,"o":"m 49 546 b 475 -33 49 188 186 -33 b 733 107 597 -33 696 21 l 760 -14 l 974 -14 l 974 588 l 521 588 l 521 389 l 692 389 b 524 206 688 276 628 206 b 350 546 400 206 350 275 b 517 883 350 825 407 883 b 676 708 622 883 672 818 l 975 708 b 517 1124 967 967 803 1124 b 49 546 179 1124 49 900 z "},"H":{"ha":979,"x_min":0,"x_max":0,"o":"m 610 -14 l 911 -14 l 911 1104 l 610 1104 l 610 679 l 369 679 l 369 1104 l 68 1104 l 68 -14 l 369 -14 l 369 439 l 610 439 z "},"I":{"ha":436,"x_min":0,"x_max":0,"o":"m 369 1104 l 68 1104 l 68 -14 l 369 -14 z "},"J":{"ha":863,"x_min":0,"x_max":0,"o":"m 408 206 b 319 317 350 206 319 244 l 319 363 l 19 363 l 19 321 b 408 -33 19 106 153 -33 b 797 321 664 -33 797 106 l 797 1104 l 497 1104 l 497 317 b 408 206 497 244 467 206 z "},"K":{"ha":985,"x_min":0,"x_max":0,"o":"m 953 1104 l 633 1104 l 447 679 l 369 679 l 369 1104 l 68 1104 l 68 -14 l 369 -14 l 369 439 l 447 439 l 669 -14 l 993 -14 l 692 560 z "},"L":{"ha":821,"x_min":0,"x_max":0,"o":"m 68 -14 l 804 -14 l 804 224 l 369 224 l 369 1104 l 68 1104 z "},"M":{"ha":1313,"x_min":0,"x_max":0,"o":"m 765 -14 l 956 492 l 956 -14 l 1244 -14 l 1244 1104 l 967 1104 l 657 283 l 347 1104 l 68 1104 l 68 -14 l 357 -14 l 357 492 l 547 -14 z "},"N":{"ha":994,"x_min":0,"x_max":0,"o":"m 636 -14 l 926 -14 l 926 1104 l 636 1104 l 636 492 l 358 1104 l 68 1104 l 68 -14 l 358 -14 l 358 597 z "},"O":{"ha":1033,"x_min":0,"x_max":0,"o":"m 683 546 b 639 265 683 393 672 317 b 517 206 610 224 571 206 b 396 265 463 206 425 224 b 350 546 361 317 350 393 b 396 824 350 696 361 774 b 517 883 425 865 463 883 b 639 824 571 883 610 865 b 683 546 672 774 683 696 z m 985 546 b 864 989 985 735 954 885 b 517 1124 785 1079 667 1124 b 171 989 367 1124 250 1079 b 49 546 79 885 49 735 b 171 101 49 354 79 206 b 517 -33 250 11 367 -33 b 864 101 667 -33 785 11 b 985 546 954 206 985 354 z "},"P":{"ha":951,"x_min":0,"x_max":0,"o":"m 538 361 b 922 732 788 361 922 494 b 538 1104 922 968 788 1104 l 68 1104 l 68 -14 l 369 -14 l 369 361 z m 369 600 l 369 865 l 492 865 b 621 732 576 865 621 826 b 492 600 621 640 576 600 z "},"Q":{"ha":1050,"x_min":0,"x_max":0,"o":"m 985 546 b 864 989 985 735 954 885 b 517 1124 785 1079 667 1124 b 171 989 367 1124 250 1079 b 49 546 79 885 49 735 b 171 101 49 354 79 206 b 517 -33 250 11 367 -33 b 733 11 599 -33 674 -19 l 881 -114 l 1036 64 l 910 169 b 985 546 965 265 985 392 z m 683 546 b 639 265 683 393 672 317 b 517 206 610 224 571 206 b 396 265 463 206 425 224 b 350 546 361 317 350 393 b 396 824 350 696 361 774 b 517 883 425 865 463 883 b 639 824 571 883 610 865 b 683 546 672 774 683 696 z "},"R":{"ha":981,"x_min":0,"x_max":0,"o":"m 615 90 b 636 -14 618 53 624 10 l 936 -14 b 913 92 924 13 915 46 l 903 243 b 732 482 893 390 847 461 b 922 763 847 515 922 611 b 553 1104 922 968 796 1104 l 68 1104 l 68 -14 l 369 -14 l 369 361 l 486 361 b 607 229 568 361 601 329 z m 369 600 l 369 865 l 492 865 b 621 732 576 865 621 828 b 492 600 621 639 576 600 z "},"S":{"ha":932,"x_min":0,"x_max":0,"o":"m 896 317 b 578 669 896 515 781 628 l 493 685 b 344 804 386 707 344 742 b 449 896 344 861 381 896 b 553 804 515 896 553 861 l 553 785 l 853 785 l 853 804 b 449 1124 853 976 711 1124 b 44 790 194 1124 44 982 b 367 446 44 586 175 483 l 451 428 b 596 303 558 407 596 368 b 475 193 596 238 556 193 b 354 303 394 193 354 238 l 354 328 l 54 328 l 54 306 b 475 -33 54 108 203 -33 b 896 317 756 -33 896 115 z "},"T":{"ha":892,"x_min":0,"x_max":0,"o":"m 15 865 l 296 865 l 296 -14 l 597 -14 l 597 865 l 876 865 l 876 1104 l 15 1104 z "},"U":{"ha":1017,"x_min":0,"x_max":0,"o":"m 508 -33 b 954 404 813 -33 954 133 l 954 1104 l 654 1104 l 654 386 b 508 206 654 260 601 206 b 363 386 415 206 363 260 l 363 1104 l 63 1104 l 63 404 b 508 -33 63 133 204 -33 z "},"V":{"ha":1028,"x_min":0,"x_max":0,"o":"m 665 -14 l 1018 1104 l 715 1104 l 514 326 l 311 1104 l 10 1104 l 363 -14 z "},"W":{"ha":1550,"x_min":0,"x_max":0,"o":"m 650 1104 l 456 379 l 317 1104 l 15 1104 l 300 -14 l 563 -14 l 775 778 l 988 -14 l 1250 -14 l 1535 1104 l 1235 1104 l 1096 379 l 900 1104 z "},"X":{"ha":1011,"x_min":0,"x_max":0,"o":"m 994 -14 l 707 564 l 971 1104 l 661 1104 l 506 736 l 349 1104 l 39 1104 l 303 564 l 15 -14 l 325 -14 l 506 389 l 686 -14 z "},"Y":{"ha":1008,"x_min":0,"x_max":0,"o":"m 504 674 l 322 1104 l 15 1104 l 353 426 l 353 -14 l 656 -14 l 656 426 l 993 1104 l 686 1104 z "},"Z":{"ha":872,"x_min":0,"x_max":0,"o":"m 39 208 l 39 -14 l 833 -14 l 833 224 l 401 224 l 825 881 l 825 1104 l 56 1104 l 56 865 l 463 865 z "},"[":{"ha":568,"x_min":0,"x_max":0,"o":"m 78 -162 l 529 -162 l 529 42 l 357 42 l 357 1032 l 529 1032 l 529 1236 l 78 1236 z "},"\\":{"ha":1333,"x_min":0,"x_max":0,"o":"m 539 1104 l 794 1104 l 886 625 l 960 625 l 1018 1104 l 1318 1104 l 1219 625 l 1314 625 l 1314 519 l 1199 519 l 1089 -14 l 822 -14 l 715 519 l 618 519 l 511 -14 l 244 -14 l 135 519 l 10 519 l 10 625 l 114 625 l 15 1104 l 317 1104 l 375 625 l 449 625 z m 907 519 l 931 393 l 946 519 z m 694 625 l 667 764 l 639 625 z m 389 519 l 404 393 l 428 519 z "},"]":{"ha":569,"x_min":0,"x_max":0,"o":"m 492 1236 l 39 1236 l 39 1032 l 211 1032 l 211 42 l 39 42 l 39 -162 l 492 -162 z "},"^":{"ha":749,"x_min":0,"x_max":0,"o":"m 267 1104 l 19 706 l 275 706 l 374 882 l 472 706 l 729 706 l 482 1104 z "},"_":{"ha":799,"x_min":0,"x_max":0,"o":"m 0 -289 l 799 -289 l 799 -174 l 0 -174 z "},"`":{"ha":608,"x_min":0,"x_max":0,"o":"m 282 894 l 524 894 l 378 1153 l 85 1153 z "},"a":{"ha":860,"x_min":0,"x_max":0,"o":"m 792 522 b 435 804 792 683 667 804 b 78 529 199 804 78 688 l 357 531 b 435 611 357 581 382 611 b 511 528 488 611 511 579 l 511 357 b 301 472 481 429 403 472 b 39 219 146 472 39 376 b 301 -33 39 61 146 -33 b 511 82 406 -33 481 13 b 531 -14 513 43 521 8 l 815 -14 b 792 110 799 15 792 65 z m 318 219 b 415 300 318 272 353 300 b 511 219 478 300 511 272 b 415 139 511 167 478 139 b 318 219 353 139 318 167 z "},"b":{"ha":883,"x_min":0,"x_max":0,"o":"m 338 107 b 554 -33 363 28 443 -33 b 843 386 740 -33 843 110 b 554 804 843 660 740 804 b 338 664 443 804 363 743 l 338 1104 l 58 1104 l 58 -14 l 338 -14 z m 338 386 b 450 604 338 560 375 604 b 564 386 525 604 564 561 b 450 165 564 207 525 165 b 338 386 374 165 338 210 z "},"c":{"ha":846,"x_min":0,"x_max":0,"o":"m 39 386 b 429 -33 39 124 167 -33 b 811 285 657 -33 803 82 l 538 285 b 429 171 532 210 501 171 b 315 386 356 171 315 215 b 429 600 315 540 347 600 b 538 486 501 600 532 560 l 811 486 b 429 804 803 689 657 804 b 39 386 167 804 39 646 z "},"d":{"ha":883,"x_min":0,"x_max":0,"o":"m 546 -14 l 825 -14 l 825 1104 l 546 1104 l 546 664 b 329 804 521 743 440 804 b 39 386 142 804 39 657 b 329 -33 39 113 142 -33 b 546 107 440 -33 521 28 z m 546 386 b 433 165 546 208 508 165 b 319 386 354 165 319 211 b 433 604 319 558 354 604 b 546 386 507 604 546 561 z "},"e":{"ha":858,"x_min":0,"x_max":0,"o":"m 815 322 b 818 386 818 339 818 361 b 429 804 818 644 693 804 b 39 386 164 804 39 644 b 429 -33 39 125 165 -33 b 803 232 629 -33 772 51 l 532 232 b 429 150 525 183 492 150 b 315 306 357 150 315 199 l 315 322 z m 315 469 b 429 621 322 569 356 621 b 542 471 496 621 542 569 l 542 469 z "},"f":{"ha":642,"x_min":0,"x_max":0,"o":"m 622 911 l 622 1107 b 457 1115 581 1114 517 1115 b 144 860 233 1115 144 1033 l 144 785 l 24 785 l 24 581 l 144 581 l 144 -14 l 424 -14 l 424 581 l 622 581 l 622 785 l 424 785 l 424 832 b 514 911 424 888 444 911 z "},"g":{"ha":883,"x_min":0,"x_max":0,"o":"m 546 386 b 433 165 546 208 508 165 b 319 386 354 165 319 211 b 433 604 319 558 354 604 b 546 386 507 604 546 561 z m 825 785 l 546 785 l 546 664 b 329 804 522 739 435 804 b 39 386 142 804 39 657 b 329 -33 39 114 142 -33 b 546 107 440 -33 521 28 l 546 -86 b 454 -197 546 -162 517 -197 b 365 -117 400 -197 369 -171 l 82 -117 b 453 -386 103 -279 224 -386 b 825 -67 706 -386 825 -253 z "},"h":{"ha":861,"x_min":0,"x_max":0,"o":"m 806 499 b 553 804 806 706 713 804 b 338 663 443 804 365 747 l 338 1104 l 58 1104 l 58 -14 l 338 -14 l 338 449 b 443 604 338 547 376 604 b 525 496 499 604 525 572 l 525 -14 l 806 -14 z "},"i":{"ha":406,"x_min":0,"x_max":0,"o":"m 63 886 l 342 886 l 342 1104 l 63 1104 z m 63 -14 l 342 -14 l 342 785 l 63 785 z "},"j":{"ha":454,"x_min":0,"x_max":0,"o":"m 111 -47 b 11 -160 111 -126 81 -160 l -56 -160 l -56 -357 b 76 -362 -24 -361 42 -362 b 390 -65 297 -362 390 -256 l 390 785 l 111 785 z m 111 886 l 390 886 l 390 1104 l 111 1104 z "},"k":{"ha":835,"x_min":0,"x_max":0,"o":"m 58 -14 l 338 -14 l 338 313 l 382 313 l 539 -14 l 828 -14 l 611 401 l 797 785 l 510 785 l 383 493 l 338 493 l 338 1104 l 58 1104 z "},"l":{"ha":406,"x_min":0,"x_max":0,"o":"m 342 -14 l 342 1104 l 63 1104 l 63 -14 z "},"m":{"ha":1325,"x_min":0,"x_max":0,"o":"m 989 -14 l 1268 -14 l 1268 499 b 1014 804 1268 706 1178 804 b 775 661 896 804 815 747 b 551 804 739 758 658 804 b 338 663 443 804 365 747 l 338 785 l 58 785 l 58 -14 l 338 -14 l 338 449 b 442 604 338 547 375 604 b 524 497 496 604 524 571 l 524 -14 l 803 -14 l 803 449 b 908 604 803 547 842 604 b 989 497 961 604 989 571 z "},"n":{"ha":861,"x_min":0,"x_max":0,"o":"m 806 499 b 553 804 806 706 713 804 b 338 663 443 804 365 747 l 338 785 l 58 785 l 58 -14 l 338 -14 l 338 449 b 443 604 338 547 376 604 b 525 496 499 604 525 572 l 525 -14 l 806 -14 z "},"o":{"ha":860,"x_min":0,"x_max":0,"o":"m 315 386 b 429 600 315 549 353 600 b 543 386 506 600 543 551 b 429 171 543 213 503 171 b 315 386 356 171 315 215 z m 39 386 b 429 -33 39 124 167 -33 b 819 386 693 -33 819 124 b 429 804 819 646 693 804 b 39 386 167 804 39 646 z "},"p":{"ha":883,"x_min":0,"x_max":0,"o":"m 338 785 l 58 785 l 58 -362 l 338 -362 l 338 107 b 554 -33 363 28 443 -33 b 843 386 740 -33 843 110 b 554 804 843 660 740 804 b 338 664 443 804 363 743 z m 338 386 b 450 604 338 560 375 604 b 564 386 525 604 564 561 b 450 165 564 207 525 165 b 338 386 374 165 338 210 z "},"q":{"ha":883,"x_min":0,"x_max":0,"o":"m 546 664 b 329 804 521 743 440 804 b 39 386 142 804 39 657 b 329 -33 39 113 142 -33 b 546 107 440 -33 521 28 l 546 -362 l 825 -362 l 825 785 l 546 785 z m 546 386 b 433 165 546 208 508 165 b 319 386 354 165 319 211 b 433 604 319 558 354 604 b 546 386 507 604 546 561 z "},"r":{"ha":607,"x_min":0,"x_max":0,"o":"m 533 572 b 588 571 557 572 572 572 l 590 797 b 536 804 579 803 560 804 b 338 622 424 804 357 743 l 338 785 l 58 785 l 58 -14 l 338 -14 l 338 353 b 533 572 338 497 411 572 z "},"s":{"ha":775,"x_min":0,"x_max":0,"o":"m 44 228 b 392 -33 44 79 158 -33 b 739 231 613 -33 739 72 b 397 497 739 404 621 454 b 313 567 342 508 313 531 b 371 624 313 600 331 624 b 431 567 411 624 431 600 l 431 556 l 703 556 l 703 565 b 372 804 703 694 593 804 b 40 551 156 804 40 696 b 383 289 40 389 156 331 b 461 211 435 279 461 254 b 392 146 461 174 440 146 b 322 211 344 146 322 174 l 322 228 z "},"t":{"ha":663,"x_min":0,"x_max":0,"o":"m 422 581 l 629 581 l 629 785 l 422 785 l 422 1011 l 142 1011 l 142 785 l 22 785 l 22 581 l 142 581 l 142 257 b 461 -25 142 54 224 -25 b 629 -21 508 -25 590 -24 l 629 178 l 549 178 b 422 289 450 178 422 199 z "},"u":{"ha":861,"x_min":0,"x_max":0,"o":"m 56 272 b 308 -33 56 65 149 -33 b 524 108 418 -33 496 22 l 524 -14 l 803 -14 l 803 785 l 524 785 l 524 322 b 418 165 524 224 485 165 b 336 275 363 165 336 197 l 336 785 l 56 785 z "},"v":{"ha":865,"x_min":0,"x_max":0,"o":"m 574 -14 l 850 785 l 564 785 l 433 281 l 300 785 l 15 785 l 292 -14 z "},"w":{"ha":1329,"x_min":0,"x_max":0,"o":"m 565 785 l 424 282 l 299 785 l 15 785 l 269 -14 l 536 -14 l 664 442 l 793 -14 l 1060 -14 l 1314 785 l 1031 785 l 906 282 l 764 785 z "},"x":{"ha":815,"x_min":0,"x_max":0,"o":"m 519 -14 l 806 -14 l 596 397 l 790 785 l 504 785 l 407 536 l 311 785 l 25 785 l 219 397 l 8 -14 l 294 -14 l 407 256 z "},"y":{"ha":865,"x_min":0,"x_max":0,"o":"m 278 -72 b 171 -158 254 -140 222 -158 l 111 -158 l 111 -358 b 236 -362 146 -362 200 -362 b 544 -103 413 -362 472 -311 l 850 785 l 564 785 l 433 293 l 300 785 l 15 785 l 297 -14 z "},"z":{"ha":742,"x_min":0,"x_max":0,"o":"m 381 189 l 696 597 l 696 785 l 47 785 l 47 581 l 349 581 l 35 174 l 35 -14 l 707 -14 l 707 189 z "},"{":{"ha":614,"x_min":0,"x_max":0,"o":"m 39 435 l 71 435 b 167 322 138 435 167 392 l 167 122 b 467 -162 167 -75 251 -162 l 575 -162 l 575 43 l 543 43 b 447 153 479 43 447 85 l 447 368 b 331 538 447 449 414 514 b 447 707 414 561 447 625 l 447 919 b 543 1032 447 990 479 1032 l 575 1032 l 575 1236 l 467 1236 b 167 951 251 1236 167 1149 l 167 751 b 71 639 167 683 139 639 l 39 639 z "},"|":{"ha":474,"x_min":0,"x_max":0,"o":"m 97 -162 l 376 -162 l 376 1236 l 97 1236 z "},"}":{"ha":614,"x_min":0,"x_max":0,"o":"m 575 639 l 543 639 b 447 751 476 639 447 683 l 447 951 b 149 1236 447 1149 363 1236 l 39 1236 l 39 1032 l 71 1032 b 167 919 135 1032 167 990 l 167 707 b 283 538 167 625 200 561 b 167 368 200 514 167 449 l 167 153 b 71 43 167 85 135 43 l 39 43 l 39 -162 l 149 -162 b 447 122 363 -162 447 -75 l 447 322 b 543 435 447 392 478 435 l 575 435 z "},"~":{"ha":846,"x_min":0,"x_max":0,"o":"m 603 351 b 786 653 744 351 786 463 l 540 653 l 540 649 b 493 586 540 610 525 586 b 244 663 426 586 376 663 b 61 361 103 663 61 553 l 306 361 l 306 367 b 353 428 306 404 321 428 b 603 351 421 428 468 351 z "},"　":{"ha":1333,"x_min":0,"x_max":0,"o":""},"ㅤ":{"ha":1333,"x_min":0,"x_max":0,"o":""},"…":{"ha":1333,"x_min":0,"x_max":0,"o":"m 800 726 l 800 450 l 532 450 l 532 726 z m 369 726 l 369 450 l 101 450 l 101 726 z m 1231 726 l 1231 450 l 963 450 l 963 726 z "},"¨":{"ha":833,"x_min":0,"x_max":0,"o":"m 731 1104 l 731 828 l 463 828 l 463 1104 z m 369 1104 l 369 828 l 101 828 l 101 1104 z "},"〃":{"ha":1333,"x_min":0,"x_max":0,"o":"m 450 950 l 685 876 l 407 208 l 231 263 z m 864 922 l 1103 853 l 818 181 l 638 239 z "},"＼":{"ha":1333,"x_min":0,"x_max":0,"o":"m 1303 93 l 1143 -76 l 31 981 l 193 1149 z "},"‘":{"ha":415,"x_min":0,"x_max":0,"o":"m 67 719 l 67 994 b 349 1225 67 1126 167 1221 l 349 1104 b 207 994 254 1100 207 1067 l 349 994 l 349 719 z "},"’":{"ha":415,"x_min":0,"x_max":0,"o":"m 349 1225 l 349 949 b 67 719 349 818 247 724 l 67 840 b 207 949 161 843 207 878 l 67 949 l 67 1225 z "},"“":{"ha":783,"x_min":0,"x_max":0,"o":"m 67 719 l 67 994 b 349 1225 67 1126 167 1221 l 349 1104 b 207 994 254 1100 207 1067 l 349 994 l 349 719 z m 435 719 l 435 994 b 717 1225 435 1126 536 1221 l 717 1104 b 576 994 624 1100 576 1067 l 717 994 l 717 719 z "},"”":{"ha":783,"x_min":0,"x_max":0,"o":"m 349 1225 l 349 949 b 67 719 349 818 247 724 l 67 840 b 207 949 161 843 207 878 l 67 949 l 67 1225 z m 717 1225 l 717 949 b 435 719 717 818 615 724 l 435 840 b 576 949 528 843 576 878 l 435 949 l 435 1225 z "},"±":{"ha":856,"x_min":0,"x_max":0,"o":"m 49 526 l 49 735 l 300 735 l 300 982 l 556 982 l 556 735 l 807 735 l 807 526 l 556 526 l 556 279 l 300 279 l 300 526 z m 49 28 l 49 236 l 807 236 l 807 28 z "},"×":{"ha":856,"x_min":0,"x_max":0,"o":"m 219 122 l 43 297 l 250 506 l 43 714 l 219 890 l 426 682 l 635 890 l 811 714 l 603 506 l 811 297 l 635 122 l 426 331 z "},"÷":{"ha":856,"x_min":0,"x_max":0,"o":"m 49 401 l 49 610 l 807 610 l 807 401 z m 554 936 l 554 690 l 301 690 l 301 936 z m 301 76 l 301 324 l 554 324 l 554 76 z "},"≠":{"ha":856,"x_min":0,"x_max":0,"o":"m 49 572 l 49 782 l 500 782 l 589 931 l 756 931 l 665 782 l 807 782 l 807 572 l 540 572 l 463 440 l 807 440 l 807 231 l 338 231 l 249 82 l 82 82 l 172 231 l 49 231 l 49 440 l 297 440 l 375 572 z "},"≤":{"ha":856,"x_min":0,"x_max":0,"o":"m 49 28 l 49 236 l 807 236 l 807 28 z m 63 515 l 63 763 l 794 1003 l 794 757 l 388 639 l 794 521 l 794 275 z "},"≥":{"ha":856,"x_min":0,"x_max":0,"o":"m 807 236 l 807 28 l 49 28 l 49 236 z m 794 763 l 794 515 l 63 275 l 63 521 l 469 639 l 63 757 l 63 1003 z "},"∞":{"ha":1333,"x_min":0,"x_max":0,"o":"m 531 515 b 426 575 499 553 461 575 b 361 515 389 575 361 554 b 426 456 361 475 389 456 b 531 515 461 456 499 476 z m 667 386 b 389 260 593 301 501 260 b 114 515 225 260 114 357 b 389 769 114 672 225 769 b 667 643 501 769 593 726 b 944 769 740 726 832 769 b 1219 515 1108 769 1219 672 b 944 260 1219 357 1108 260 b 667 386 832 260 740 301 z m 803 515 b 907 456 835 476 872 456 b 972 515 944 456 972 475 b 907 575 972 554 944 575 b 803 515 872 575 835 553 z "},"∴":{"ha":1333,"x_min":0,"x_max":0,"o":"m 804 1018 l 804 742 l 528 742 l 528 1018 z m 453 365 l 453 89 l 185 89 l 185 365 z m 1147 365 l 1147 89 l 879 89 l 879 365 z "},"°":{"ha":576,"x_min":0,"x_max":0,"o":"m 538 881 b 289 646 538 744 438 646 b 39 881 140 646 39 744 b 289 1117 39 1018 140 1117 b 538 881 438 1117 538 1018 z m 217 881 b 289 803 217 832 247 803 b 361 881 331 803 361 832 b 289 960 361 929 331 960 b 217 881 247 960 217 929 z "},"′":{"ha":410,"x_min":0,"x_max":0,"o":"m 26 721 l 108 1104 l 383 1104 l 261 721 z "},"″":{"ha":749,"x_min":0,"x_max":0,"o":"m 26 721 l 108 1104 l 383 1104 l 261 721 z m 365 721 l 447 1104 l 722 1104 l 600 721 z "},"℃":{"ha":1333,"x_min":0,"x_max":0,"o":"m 482 908 b 247 688 482 779 389 688 b 11 908 106 688 11 779 b 247 1131 11 1039 106 1131 b 482 908 389 1131 482 1039 z m 186 908 b 247 842 186 867 213 842 b 308 908 282 842 308 867 b 247 976 308 950 282 976 b 186 908 213 976 186 950 z m 463 546 b 617 1039 463 781 507 947 b 890 1124 683 1094 772 1124 b 1308 708 1163 1124 1300 961 l 1015 708 b 890 883 1011 818 982 883 b 811 851 856 883 831 874 b 758 546 769 804 758 703 b 807 238 758 381 767 283 b 890 206 826 215 854 206 b 1015 381 982 206 1013 272 l 1308 381 b 890 -33 1300 128 1163 -33 b 626 42 778 -33 692 -8 b 463 546 510 132 463 303 z "},"Å":{"ha":1333,"x_min":0,"x_max":0,"o":"m 843 1026 l 1171 -14 l 868 -14 l 822 165 l 510 165 l 464 -14 l 163 -14 l 490 1025 b 431 1179 453 1064 431 1117 b 667 1401 431 1310 525 1401 b 901 1179 808 1401 901 1310 b 843 1026 901 1118 881 1064 z m 765 390 l 667 779 l 567 390 z m 606 1179 b 667 1113 606 1138 632 1113 b 728 1179 701 1113 728 1138 b 667 1247 728 1221 701 1247 b 606 1179 632 1247 606 1221 z "},"￠":{"ha":1333,"x_min":0,"x_max":0,"o":"m 281 386 b 547 790 281 594 361 743 l 547 926 l 786 926 l 786 792 b 1053 486 947 758 1042 646 l 779 486 b 671 600 771 565 735 600 b 557 386 594 600 557 549 b 671 171 557 215 597 171 b 779 285 736 171 771 204 l 1053 285 b 786 -21 1042 122 946 11 l 786 -154 l 547 -154 l 547 -19 b 281 386 361 26 281 176 z "},"￡":{"ha":1333,"x_min":0,"x_max":0,"o":"m 283 582 l 371 582 b 321 814 346 644 321 703 b 679 1124 321 988 451 1124 b 1038 814 906 1124 1038 988 l 1038 771 l 743 771 l 743 811 b 679 883 743 856 722 883 b 614 811 638 883 614 857 b 658 582 614 696 638 643 l 882 582 l 882 411 l 667 411 b 574 224 654 339 619 274 l 1050 224 l 1050 -14 l 289 -14 l 289 208 b 381 411 335 260 369 329 l 283 411 z "},"￥":{"ha":1333,"x_min":0,"x_max":0,"o":"m 817 -14 l 515 -14 l 515 286 l 318 286 l 318 407 l 515 407 l 515 471 l 318 471 l 318 592 l 458 592 l 178 1104 l 488 1104 l 667 708 l 844 1104 l 1154 1104 l 875 592 l 1014 592 l 1014 471 l 817 471 l 817 407 l 1014 407 l 1014 286 l 817 286 z "},"♂":{"ha":1333,"x_min":0,"x_max":0,"o":"m 665 1244 l 1086 697 l 940 585 l 764 832 l 764 572 b 1033 228 925 539 1033 404 b 665 -124 1033 26 871 -124 b 300 228 460 -124 300 26 b 568 572 300 403 408 538 l 568 833 l 393 588 l 246 697 z m 514 228 b 665 56 514 126 572 56 b 819 228 761 56 819 126 b 665 403 819 332 761 403 b 514 228 572 403 514 332 z "},"♀":{"ha":1333,"x_min":0,"x_max":0,"o":"m 260 774 b 667 1172 260 1001 439 1172 b 1074 774 897 1172 1074 1001 b 767 382 1074 571 932 415 l 767 274 l 940 274 l 940 93 l 767 93 l 767 -96 l 568 -96 l 568 93 l 393 93 l 393 274 l 568 274 l 568 382 b 260 774 394 418 260 571 z m 471 774 b 667 556 471 647 549 556 b 864 774 786 556 864 647 b 667 992 864 900 786 992 b 471 774 549 992 471 900 z "},"∠":{"ha":1333,"x_min":0,"x_max":0,"o":"m 1139 885 l 476 265 l 1206 265 l 1206 50 l 126 50 l 126 236 l 964 1038 z "},"⊥":{"ha":1333,"x_min":0,"x_max":0,"o":"m 793 268 l 1208 268 l 1208 49 l 125 49 l 125 268 l 540 268 l 540 1060 l 793 1060 z "},"⌒":{"ha":1333,"x_min":0,"x_max":0,"o":"m 19 931 b 667 1214 167 1094 396 1214 b 1314 931 938 1214 1163 1093 l 1190 774 b 667 999 1054 907 879 999 b 146 771 454 999 281 906 z "},"∂":{"ha":1333,"x_min":0,"x_max":0,"o":"m 613 814 l 326 814 b 721 1124 374 1001 504 1124 b 1068 690 978 1124 1068 963 b 607 -33 1068 231 963 -33 b 264 313 388 -33 264 96 b 617 711 264 574 428 711 b 781 635 694 711 754 685 b 785 715 783 665 785 693 b 703 908 785 854 754 908 b 613 814 656 908 624 876 z m 640 188 b 753 374 715 188 753 250 b 667 490 753 454 726 490 b 554 303 590 490 554 426 b 640 188 554 224 581 188 z "},"∇":{"ha":1333,"x_min":0,"x_max":0,"o":"m 818 -14 l 515 -14 l 163 1104 l 1171 1104 z m 667 336 l 808 879 l 522 879 z "},"≡":{"ha":856,"x_min":0,"x_max":0,"o":"m 49 685 l 49 893 l 807 893 l 807 685 z m 49 401 l 49 610 l 807 610 l 807 401 z m 49 119 l 49 328 l 807 328 l 807 119 z "},"≒":{"ha":856,"x_min":0,"x_max":0,"o":"m 49 544 l 49 754 l 807 754 l 807 544 z m 49 258 l 49 468 l 807 468 l 807 258 z m 719 203 l 719 -74 l 451 -74 l 451 203 z m 401 1086 l 401 810 l 133 810 l 133 1086 z "},"§":{"ha":1333,"x_min":0,"x_max":0,"o":"m 701 356 l 714 351 b 750 450 738 376 750 410 b 617 571 750 514 713 551 b 581 474 593 547 581 515 b 701 356 581 411 614 378 z m 589 903 b 700 797 589 851 622 819 b 1017 483 901 739 1017 686 b 907 271 1017 401 976 318 b 1014 50 978 218 1014 147 b 682 -225 1014 -118 889 -225 b 351 25 478 -225 351 -121 l 351 58 l 622 58 l 622 22 b 682 -43 622 -19 646 -43 b 742 22 719 -43 742 -19 b 631 128 742 72 708 106 b 315 442 431 186 315 235 b 424 654 315 522 354 606 b 317 875 353 706 317 778 b 649 1151 317 1042 443 1151 b 981 900 854 1151 981 1046 l 981 867 l 708 867 l 708 903 b 649 968 708 944 686 968 b 589 903 611 968 589 944 z "},"※":{"ha":1333,"x_min":0,"x_max":0,"o":"m 1207 933 l 814 540 l 1207 147 l 1061 1 l 668 394 l 275 1 l 129 147 l 522 540 l 129 933 l 275 1081 l 668 686 l 1061 1081 z m 819 985 b 667 832 819 897 754 832 b 514 985 579 832 514 897 b 667 1138 514 1072 579 1138 b 819 985 754 1138 819 1072 z m 819 110 b 667 -43 819 22 754 -43 b 514 110 579 -43 514 22 b 667 263 514 197 579 263 b 819 110 754 263 819 197 z m 385 540 b 232 388 385 453 319 388 b 79 540 144 388 79 453 b 232 693 79 628 144 693 b 385 540 319 693 385 628 z m 1253 540 b 1100 388 1253 453 1188 388 b 947 540 1013 388 947 453 b 1100 693 947 628 1013 693 b 1253 540 1188 693 1253 628 z "},"☆":{"ha":1333,"x_min":0,"x_max":0,"o":"m 471 767 l 621 1181 l 713 1181 l 863 767 l 1276 767 l 1300 679 l 971 414 l 1132 -25 l 1058 -82 l 667 197 l 274 -82 l 199 -26 l 363 414 l 33 679 l 57 767 z m 581 635 l 279 646 l 536 471 l 393 163 l 667 368 l 942 156 l 794 474 l 1049 651 l 758 639 l 667 915 z "},"★":{"ha":1333,"x_min":0,"x_max":0,"o":"m 475 767 l 635 1181 l 699 1181 l 857 765 l 1281 767 l 1300 706 l 961 425 l 1132 -37 l 1079 -82 l 667 210 l 253 -82 l 199 -39 l 376 421 l 33 706 l 53 767 z "},"○":{"ha":1333,"x_min":0,"x_max":0,"o":"m 1294 542 b 667 -86 1294 182 1029 -86 b 39 542 304 -86 39 182 b 667 1169 39 901 304 1169 b 1294 542 1029 1169 1294 901 z m 1135 542 b 667 1022 1135 821 944 1022 b 199 542 389 1022 199 821 b 667 60 199 261 389 60 b 1135 542 944 60 1135 261 z "},"●":{"ha":1333,"x_min":0,"x_max":0,"o":"m 1294 542 b 667 -86 1294 182 1029 -86 b 39 542 304 -86 39 182 b 667 1169 39 901 304 1169 b 1294 542 1029 1169 1294 901 z "},"◎":{"ha":1333,"x_min":0,"x_max":0,"o":"m 251 542 b 667 956 251 776 436 956 b 1082 542 897 956 1082 776 b 667 126 1082 307 897 126 b 251 542 436 126 251 307 z m 935 542 b 667 826 935 706 824 826 b 399 542 510 826 399 706 b 667 256 399 378 510 256 b 935 542 824 256 935 378 z m 1294 542 b 667 -86 1294 182 1029 -86 b 39 542 304 -86 39 182 b 667 1169 39 901 304 1169 b 1294 542 1029 1169 1294 901 z m 1149 542 b 667 1036 1149 821 944 1036 b 185 542 389 1036 185 821 b 667 47 185 261 389 47 b 1149 542 944 47 1149 261 z "},"◇":{"ha":1333,"x_min":0,"x_max":0,"o":"m 667 1217 l 1306 539 l 667 -137 l 28 539 z m 667 994 l 238 539 l 667 83 l 1093 539 z "},"◆":{"ha":1333,"x_min":0,"x_max":0,"o":"m 667 1217 l 1306 539 l 667 -137 l 28 539 z "},"□":{"ha":1333,"x_min":0,"x_max":0,"o":"m 283 157 l 1050 157 l 1050 932 l 283 932 z m 1207 10 l 126 10 l 126 1081 l 1207 1081 z "},"■":{"ha":1333,"x_min":0,"x_max":0,"o":"m 1207 10 l 126 10 l 126 1081 l 1207 1081 z "},"△":{"ha":1333,"x_min":0,"x_max":0,"o":"m 667 1140 l 1307 15 l 26 15 z m 667 838 l 290 163 l 1043 163 z "},"▲":{"ha":1333,"x_min":0,"x_max":0,"o":"m 667 1140 l 1307 15 l 26 15 z "},"▽":{"ha":1333,"x_min":0,"x_max":0,"o":"m 1307 1053 l 667 -72 l 26 1053 z m 290 906 l 667 231 l 1043 906 z "},"▼":{"ha":1333,"x_min":0,"x_max":0,"o":"m 1307 1053 l 667 -72 l 26 1053 z "},"→":{"ha":1333,"x_min":0,"x_max":0,"o":"m 36 357 l 36 675 l 869 675 l 869 860 l 1296 517 l 869 172 l 869 357 z "},"←":{"ha":1333,"x_min":0,"x_max":0,"o":"m 1296 675 l 1296 357 l 461 357 l 461 172 l 36 517 l 461 860 l 461 675 z "},"↑":{"ha":1333,"x_min":0,"x_max":0,"o":"m 826 -75 l 508 -75 l 508 757 l 322 757 l 668 1185 l 1011 757 l 826 757 z "},"↓":{"ha":1333,"x_min":0,"x_max":0,"o":"m 508 1185 l 826 1185 l 826 351 l 1011 351 l 668 -75 l 322 351 l 508 351 z "},"↔":{"ha":1333,"x_min":0,"x_max":0,"o":"m 461 860 l 461 675 l 869 675 l 869 860 l 1296 517 l 869 172 l 869 357 l 461 357 l 461 172 l 36 517 z "},"√":{"ha":1333,"x_min":0,"x_max":0,"o":"m 914 961 l 596 -190 l 292 -190 l 10 408 l 315 408 l 414 169 l 685 1185 l 1293 1185 l 1293 961 z "},"∽":{"ha":1333,"x_min":0,"x_max":0,"o":"m 740 444 b 389 260 660 328 543 260 b 114 515 225 260 114 357 b 389 769 114 672 225 769 b 592 710 465 769 533 749 l 496 549 b 426 575 474 565 449 575 b 361 515 389 575 361 554 b 426 456 361 475 389 456 b 599 592 482 456 531 497 b 944 769 682 707 790 769 b 1219 515 1108 769 1219 672 b 944 260 1219 357 1108 260 b 738 321 865 260 797 279 l 833 485 b 907 456 857 465 882 456 b 972 515 944 456 972 475 b 907 575 972 554 944 575 b 740 444 851 575 803 535 z "},"∝":{"ha":1333,"x_min":0,"x_max":0,"o":"m 531 515 b 426 575 499 553 461 575 b 361 515 389 575 361 554 b 426 456 361 475 389 456 b 531 515 461 456 499 476 z m 974 476 l 1124 313 b 944 260 1076 278 1017 260 b 667 386 832 260 740 301 b 389 260 593 301 501 260 b 114 515 225 260 114 357 b 389 769 114 672 225 769 b 667 643 501 769 593 726 b 944 769 740 726 832 769 b 1096 735 1001 769 1054 757 l 972 554 b 907 575 954 567 929 575 b 803 515 872 575 835 553 b 907 456 835 476 872 456 b 974 476 929 456 956 464 z "},"∵":{"ha":1333,"x_min":0,"x_max":0,"o":"m 804 365 l 804 89 l 528 89 l 528 365 z m 453 1018 l 453 742 l 185 742 l 185 1018 z m 1147 1018 l 1147 742 l 879 742 l 879 1018 z "},"∫":{"ha":1333,"x_min":0,"x_max":0,"o":"m 806 949 l 806 68 b 493 -186 806 -106 717 -186 b 328 -179 433 -186 369 -185 l 328 15 l 436 15 b 528 96 506 15 528 39 l 528 975 b 840 1232 528 1149 617 1232 b 1006 1224 899 1232 964 1229 l 1006 1028 l 896 1028 b 806 949 828 1028 806 1004 z "},"∬":{"ha":1333,"x_min":0,"x_max":0,"o":"m 549 949 l 549 68 b 236 -186 549 -106 460 -186 b 85 -179 190 -186 126 -185 l 85 15 l 179 15 b 271 96 249 15 271 39 l 271 975 b 583 1232 271 1149 360 1232 b 735 1224 638 1232 696 1229 l 735 1028 l 639 1028 b 549 949 571 1028 549 1004 z m 1063 949 l 1063 68 b 750 -186 1063 -106 974 -186 b 599 -179 704 -186 640 -185 l 599 15 l 693 15 b 785 96 763 15 785 39 l 785 975 b 1097 1232 785 1149 874 1232 b 1249 1224 1151 1232 1210 1229 l 1249 1028 l 1153 1028 b 1063 949 1085 1028 1063 1004 z "},"∈":{"ha":1333,"x_min":0,"x_max":0,"o":"m 1185 417 l 424 417 b 694 317 465 346 553 317 l 1185 317 l 1185 72 l 690 72 b 121 540 346 72 121 225 b 690 1007 121 856 346 1007 l 1185 1007 l 1185 763 l 694 763 b 422 661 551 763 464 732 l 1185 661 z "},"∋":{"ha":1333,"x_min":0,"x_max":0,"o":"m 910 417 l 149 417 l 149 661 l 911 661 b 639 763 869 732 782 763 l 149 763 l 149 1007 l 643 1007 b 1213 540 988 1007 1213 856 b 643 72 1213 225 988 72 l 149 72 l 149 317 l 639 317 b 910 417 781 317 868 346 z "},"⊆":{"ha":1333,"x_min":0,"x_max":0,"o":"m 160 218 l 1188 218 l 1188 -17 l 160 -17 z m 406 721 b 621 576 406 624 478 576 l 1181 576 l 1181 336 l 617 336 b 117 721 293 336 117 475 b 617 1104 117 967 293 1104 l 1181 1104 l 1181 864 l 621 864 b 406 721 478 864 406 817 z "},"⊇":{"ha":1333,"x_min":0,"x_max":0,"o":"m 144 218 l 1172 218 l 1172 -17 l 144 -17 z m 926 721 b 711 864 926 817 854 864 l 151 864 l 151 1104 l 715 1104 b 1215 721 1039 1104 1215 967 b 715 336 1215 475 1039 336 l 151 336 l 151 576 l 711 576 b 926 721 854 576 926 624 z "},"⊂":{"ha":1333,"x_min":0,"x_max":0,"o":"m 410 540 b 694 317 410 388 496 317 l 1185 317 l 1185 72 l 690 72 b 121 540 346 72 121 225 b 690 1007 121 856 346 1007 l 1185 1007 l 1185 763 l 694 763 b 410 540 496 763 410 692 z "},"⊃":{"ha":1333,"x_min":0,"x_max":0,"o":"m 924 540 b 639 763 924 692 838 763 l 149 763 l 149 1007 l 643 1007 b 1213 540 988 1007 1213 856 b 643 72 1213 225 988 72 l 149 72 l 149 317 l 639 317 b 924 540 838 317 924 388 z "},"∪":{"ha":1333,"x_min":0,"x_max":0,"o":"m 667 200 b 861 526 792 200 861 286 l 861 1044 l 1133 1044 l 1133 522 b 667 -19 1133 185 975 -19 b 199 522 357 -19 199 185 l 199 1044 l 471 1044 l 471 526 b 667 200 471 286 540 200 z "},"∩":{"ha":1333,"x_min":0,"x_max":0,"o":"m 667 853 b 471 526 540 853 471 767 l 471 8 l 199 8 l 199 531 b 667 1072 199 868 357 1072 b 1133 531 975 1072 1133 868 l 1133 8 l 861 8 l 861 526 b 667 853 861 767 792 853 z "},"∧":{"ha":1333,"x_min":0,"x_max":0,"o":"m 118 65 l 581 1082 l 753 1082 l 1215 65 l 983 -21 l 665 706 l 351 -21 z "},"∨":{"ha":1333,"x_min":0,"x_max":0,"o":"m 581 -18 l 118 999 l 351 1085 l 665 358 l 983 1085 l 1215 999 l 753 -18 z "},"￢":{"ha":1333,"x_min":0,"x_max":0,"o":"m 157 757 l 1203 757 l 1203 242 l 914 242 l 914 529 l 157 529 z "},"⇒":{"ha":1333,"x_min":0,"x_max":0,"o":"m 699 851 l 815 967 l 1289 514 l 817 47 l 699 164 l 818 286 l 43 286 l 43 449 l 978 449 l 1043 514 l 983 572 l 43 572 l 43 736 l 815 736 z "},"⇔":{"ha":1333,"x_min":0,"x_max":0,"o":"m 857 736 l 743 858 l 867 967 l 1306 514 l 868 47 l 743 157 l 858 286 l 474 286 l 590 157 l 465 47 l 28 514 l 467 967 l 590 858 l 476 736 z m 324 572 l 269 514 l 328 449 l 1004 449 l 1064 514 l 1010 572 z "},"∀":{"ha":1333,"x_min":0,"x_max":0,"o":"m 818 -14 l 515 -14 l 163 1104 l 465 1104 l 511 925 l 824 925 l 869 1104 l 1171 1104 z m 568 700 l 667 311 l 767 700 z "},"∃":{"ha":1333,"x_min":0,"x_max":0,"o":"m 1021 1104 l 1021 -14 l 293 -14 l 293 225 l 719 225 l 719 411 l 350 411 l 350 651 l 719 651 l 719 867 l 285 867 l 285 1104 z "},"´":{"ha":608,"x_min":0,"x_max":0,"o":"m 524 1153 l 326 894 l 85 894 l 231 1153 z "},"ˇ":{"ha":656,"x_min":0,"x_max":0,"o":"m 436 894 l 221 894 l 29 1153 l 254 1153 l 328 1049 l 401 1153 l 626 1153 z "},"˘":{"ha":640,"x_min":0,"x_max":0,"o":"m 319 890 b 46 1138 158 890 47 976 l 251 1138 b 319 1053 251 1082 272 1053 b 388 1138 367 1053 389 1082 l 593 1138 b 319 890 592 976 481 890 z "},"˝":{"ha":703,"x_min":0,"x_max":0,"o":"m 732 1153 l 521 881 l 283 881 l 444 1153 z m 371 1153 l 208 881 l -28 881 l 85 1153 z "},"˚":{"ha":588,"x_min":0,"x_max":0,"o":"m 479 1022 b 293 850 479 915 399 850 b 107 1022 186 850 107 915 b 293 1194 107 1129 186 1194 b 479 1022 399 1194 479 1129 z m 249 1022 b 293 975 249 993 267 975 b 338 1022 321 975 338 993 b 293 1071 338 1051 321 1071 b 249 1022 267 1071 249 1051 z "},"˙":{"ha":549,"x_min":0,"x_max":0,"o":"m 393 1135 l 393 903 l 156 903 l 156 1135 z "},"¸":{"ha":601,"x_min":0,"x_max":0,"o":"m 92 -336 l 151 -224 b 251 -260 183 -246 217 -260 b 304 -218 283 -260 304 -247 b 242 -175 304 -190 281 -175 b 185 -183 225 -175 199 -178 l 157 -150 l 222 -14 l 397 -14 l 363 -78 b 508 -224 457 -90 508 -150 b 288 -393 508 -321 433 -393 b 92 -336 206 -393 138 -369 z "},"˛":{"ha":599,"x_min":0,"x_max":0,"o":"m 228 -14 l 419 -14 b 300 -165 340 -62 300 -119 l 300 -174 b 361 -229 300 -208 319 -229 b 436 -206 390 -229 415 -222 l 501 -306 b 324 -362 464 -342 400 -362 b 97 -206 183 -362 97 -301 l 97 -196 b 228 -14 97 -122 146 -56 z "},"¡":{"ha":474,"x_min":0,"x_max":0,"o":"m 376 785 l 376 539 l 97 539 l 97 785 z m 357 432 l 376 -174 l 376 -333 l 97 -333 l 97 -174 l 117 432 z "},"¿":{"ha":832,"x_min":0,"x_max":0,"o":"m 565 785 l 565 539 l 286 539 l 286 785 z m 338 -36 b 418 -132 338 -97 364 -132 b 499 -36 471 -132 499 -97 l 499 -8 l 778 -8 l 778 -35 b 418 -351 778 -219 660 -351 b 58 -35 176 -351 58 -219 b 186 233 58 83 92 149 b 286 399 274 311 286 340 l 286 451 l 565 451 l 565 371 b 447 129 565 260 540 210 b 338 -36 363 56 338 22 z "},"∮":{"ha":1333,"x_min":0,"x_max":0,"o":"m 800 949 l 800 833 b 1019 518 931 786 1019 669 b 800 203 1019 367 931 250 l 800 68 b 493 -187 800 -106 717 -187 b 328 -181 433 -187 369 -186 l 328 15 l 436 15 b 533 96 508 15 533 39 l 533 203 b 314 518 403 250 314 367 b 533 833 314 669 403 786 l 533 975 b 840 1232 533 1149 617 1232 b 1006 1224 899 1232 964 1229 l 1006 1028 l 896 1028 b 800 949 825 1028 800 1004 z m 800 640 l 800 396 b 849 518 831 426 849 469 b 800 640 849 567 831 610 z m 533 396 l 533 640 b 485 518 503 610 485 567 b 533 396 485 469 503 426 z "},"∑":{"ha":1333,"x_min":0,"x_max":0,"o":"m 267 118 l 486 485 l 267 863 l 267 1104 l 1065 1104 l 1065 865 l 611 865 l 804 515 l 804 449 l 610 117 l 1065 117 l 1065 -122 l 267 -122 z "},"∏":{"ha":1333,"x_min":0,"x_max":0,"o":"m 786 -122 l 786 865 l 547 865 l 547 -122 l 246 -122 l 246 1104 l 1088 1104 l 1088 -122 z "},"¤":{"ha":1019,"x_min":0,"x_max":0,"o":"m 882 507 b 840 338 882 444 868 388 l 975 203 l 801 28 l 658 171 b 510 140 613 151 564 140 b 361 171 456 140 406 151 l 218 28 l 44 203 l 178 338 b 138 507 151 388 138 444 b 178 675 138 568 151 625 l 44 811 l 218 985 l 361 842 b 510 872 406 861 456 872 b 658 842 564 872 613 861 l 801 985 l 975 811 l 840 675 b 882 507 868 625 882 568 z m 621 507 b 510 626 621 582 574 626 b 399 507 446 626 399 582 b 510 388 399 431 446 388 b 621 507 574 388 621 431 z "},"℉":{"ha":1333,"x_min":0,"x_max":0,"o":"m 540 -14 l 540 1104 l 1261 1104 l 1261 865 l 842 865 l 842 663 l 1211 663 l 1211 424 l 842 424 l 842 -14 z m 482 908 b 247 688 482 779 389 688 b 11 908 106 688 11 779 b 247 1131 11 1039 106 1131 b 482 908 389 1131 482 1039 z m 186 908 b 247 842 186 867 213 842 b 308 908 282 842 308 867 b 247 976 308 950 282 976 b 186 908 213 976 186 950 z "},"‰":{"ha":1890,"x_min":0,"x_max":0,"o":"m 794 1104 l 990 1104 l 532 -14 l 336 -14 z m 256 821 b 308 678 256 708 267 678 b 361 821 350 678 361 708 b 308 964 361 933 350 964 b 256 821 267 964 256 933 z m 54 821 b 307 1124 54 1017 135 1124 b 561 821 482 1124 561 1017 b 307 519 561 625 482 519 b 54 821 135 519 54 625 z m 1071 269 b 1018 411 1071 381 1060 411 b 964 269 976 411 964 381 b 1018 126 964 156 976 126 b 1071 269 1060 126 1071 156 z m 1272 269 b 1019 -33 1272 74 1192 -33 b 764 269 844 -33 764 74 b 1019 571 764 464 844 571 b 1272 269 1192 571 1272 464 z m 1636 269 b 1582 411 1636 381 1624 411 b 1528 269 1540 411 1528 381 b 1582 126 1528 156 1540 126 b 1636 269 1624 126 1636 156 z m 1836 269 b 1583 -33 1836 74 1756 -33 b 1328 269 1408 -33 1328 74 b 1583 571 1328 464 1408 571 b 1836 269 1756 571 1836 464 z "},"◁":{"ha":1333,"x_min":0,"x_max":0,"o":"m 63 551 l 1188 1192 l 1188 -89 z m 358 551 l 1019 178 l 1019 925 z "},"◀":{"ha":1333,"x_min":0,"x_max":0,"o":"m 63 551 l 1188 1192 l 1188 -89 z "},"▷":{"ha":1333,"x_min":0,"x_max":0,"o":"m 146 1192 l 1271 551 l 146 -89 z m 314 178 l 975 551 l 314 925 z "},"▶":{"ha":1333,"x_min":0,"x_max":0,"o":"m 146 1192 l 1271 551 l 146 -89 z "},"♤":{"ha":1333,"x_min":0,"x_max":0,"o":"m 64 529 b 269 865 64 644 154 765 b 667 1138 382 963 531 1061 b 1063 867 804 1063 950 965 b 1269 529 1176 767 1269 644 b 1185 328 1269 450 1233 375 b 982 257 1135 281 1054 256 b 775 350 903 258 818 290 b 1011 82 792 213 858 121 l 1011 -24 l 319 -24 l 319 82 b 554 349 468 118 538 215 b 350 257 513 292 426 258 b 142 333 272 256 188 289 b 64 529 94 379 64 450 z m 632 596 l 703 596 b 790 439 710 539 739 478 b 967 397 839 401 914 397 b 1108 542 1050 397 1108 447 b 954 781 1108 625 1039 707 b 667 993 861 863 757 943 b 369 771 574 936 464 857 b 226 542 282 692 226 617 b 365 383 226 447 274 383 b 538 436 413 383 486 400 b 632 596 589 472 626 538 z m 789 81 l 789 86 b 668 397 701 151 675 263 l 663 397 b 542 86 653 260 629 151 l 542 81 z "},"♠":{"ha":1333,"x_min":0,"x_max":0,"o":"m 64 529 b 269 865 64 644 154 765 b 667 1138 382 963 531 1061 b 1063 867 804 1063 950 965 b 1269 529 1176 767 1269 644 b 1185 328 1269 450 1233 375 b 982 257 1135 281 1054 256 b 761 357 903 258 808 292 b 1011 82 779 211 858 121 l 1011 -24 l 319 -24 l 319 82 b 568 356 468 118 547 215 b 350 257 522 296 426 258 b 142 333 272 256 188 289 b 64 529 94 379 64 450 z "},"♡":{"ha":1333,"x_min":0,"x_max":0,"o":"m 1269 717 b 1085 289 1269 568 1189 414 b 667 -36 979 163 810 38 b 244 289 517 40 353 161 b 64 717 138 415 64 568 b 149 953 64 824 96 904 b 351 1032 201 1001 281 1032 b 547 961 424 1032 494 1008 b 667 774 597 917 643 849 b 782 961 689 849 732 917 b 983 1032 835 1008 907 1032 b 1185 956 1056 1032 1132 1004 b 1269 717 1236 908 1269 824 z m 725 613 l 607 613 b 499 832 593 692 551 776 b 365 889 463 869 415 889 b 226 706 286 889 226 819 b 364 388 226 603 281 493 b 667 132 443 286 565 192 b 961 382 772 186 879 279 b 1107 706 1046 488 1107 603 b 969 889 1107 819 1056 889 b 829 833 917 889 864 869 b 725 613 776 779 739 692 z "},"♥":{"ha":1333,"x_min":0,"x_max":0,"o":"m 1269 717 b 1085 289 1269 568 1189 414 b 667 -36 979 163 810 38 b 244 289 517 40 353 161 b 64 717 138 415 64 568 b 149 953 64 824 96 904 b 351 1032 201 1001 281 1032 b 547 961 424 1032 494 1008 b 667 774 597 917 643 849 b 782 961 689 849 732 917 b 983 1032 835 1008 907 1032 b 1185 956 1056 1032 1132 1004 b 1269 717 1236 908 1269 824 z "},"♧":{"ha":1333,"x_min":0,"x_max":0,"o":"m 926 881 b 665 626 926 744 817 626 b 404 881 514 626 404 743 b 665 1135 404 1017 514 1135 b 926 881 814 1135 926 1015 z m 1011 82 l 1011 -24 l 319 -24 l 319 82 b 619 457 476 114 596 261 l 711 457 b 1011 82 733 256 851 118 z m 782 881 b 665 1004 782 953 729 1004 b 549 881 599 1004 549 953 b 665 756 549 807 599 756 b 782 881 731 756 782 807 z m 796 81 l 796 83 b 667 265 728 111 676 181 l 664 265 b 535 83 651 181 599 110 l 535 81 z m 583 463 b 322 208 583 326 474 208 b 61 463 171 208 61 325 b 322 717 61 599 171 717 b 583 463 471 717 583 597 z m 439 463 b 322 586 439 535 386 586 b 206 463 256 586 206 535 b 322 338 206 389 256 338 b 439 463 388 338 439 389 z m 1272 463 b 1011 208 1272 326 1163 208 b 750 463 860 208 750 325 b 1011 717 750 599 860 717 b 1272 463 1160 717 1272 597 z m 1128 463 b 1011 586 1128 535 1075 586 b 894 463 944 586 894 535 b 1011 338 894 389 944 338 b 1128 463 1076 338 1128 389 z "},"♣":{"ha":1333,"x_min":0,"x_max":0,"o":"m 926 881 b 665 626 926 744 817 626 b 404 881 514 626 404 743 b 665 1135 404 1017 514 1135 b 926 881 814 1135 926 1015 z m 1011 82 l 1011 -24 l 319 -24 l 319 82 b 633 457 476 114 610 247 l 697 457 b 1011 82 719 242 851 118 z m 583 463 b 322 208 583 326 474 208 b 61 463 171 208 61 325 b 322 717 61 599 171 717 b 583 463 471 717 583 597 z m 1272 463 b 1011 208 1272 326 1163 208 b 750 463 860 208 750 325 b 1011 717 750 599 860 717 b 1272 463 1160 717 1272 597 z "},"◈":{"ha":1333,"x_min":0,"x_max":0,"o":"m 667 1217 l 1306 539 l 667 -137 l 28 539 z m 667 994 l 238 539 l 667 83 l 1093 539 z m 667 853 l 960 539 l 667 225 l 371 539 z "},"▣":{"ha":1333,"x_min":0,"x_max":0,"o":"m 283 157 l 1050 157 l 1050 932 l 283 932 z m 1207 10 l 126 10 l 126 1081 l 1207 1081 z m 403 279 l 403 810 l 929 810 l 929 279 z "},"◐":{"ha":1333,"x_min":0,"x_max":0,"o":"m 1294 542 b 667 -86 1294 182 1029 -86 b 39 542 304 -86 39 182 b 667 1169 39 901 304 1169 b 1294 542 1029 1169 1294 901 z m 1135 542 b 667 1022 1135 821 944 1022 l 667 60 b 1135 542 944 60 1135 261 z "},"◑":{"ha":1333,"x_min":0,"x_max":0,"o":"m 1294 542 b 667 -86 1294 182 1029 -86 b 39 542 304 -86 39 182 b 667 1169 39 901 304 1169 b 1294 542 1029 1169 1294 901 z m 667 60 l 667 1022 b 199 542 389 1022 199 821 b 667 60 199 261 389 60 z "},"▒":{"ha":1333,"x_min":0,"x_max":0,"o":"m 614 108 l 614 211 l 714 211 l 714 108 z m 863 211 l 960 211 l 960 108 l 863 108 z m 838 108 l 738 108 l 738 211 l 838 211 z m 467 108 l 369 108 l 369 211 l 467 211 z m 343 108 l 244 108 l 244 211 l 343 211 z m 589 108 l 490 108 l 490 211 l 589 211 z m 985 211 l 1083 211 l 1083 108 l 985 108 z m 614 236 l 614 336 l 714 336 l 714 236 z m 863 336 l 960 336 l 960 236 l 863 236 z m 838 236 l 738 236 l 738 336 l 838 336 z m 467 236 l 369 236 l 369 336 l 467 336 z m 343 236 l 244 236 l 244 336 l 343 336 z m 589 236 l 490 236 l 490 336 l 589 336 z m 985 336 l 1083 336 l 1083 236 l 985 236 z m 614 360 l 614 461 l 714 461 l 714 360 z m 863 461 l 960 461 l 960 360 l 863 360 z m 838 360 l 738 360 l 738 461 l 838 461 z m 467 360 l 369 360 l 369 461 l 467 461 z m 343 360 l 244 360 l 244 461 l 343 461 z m 589 360 l 490 360 l 490 461 l 589 461 z m 985 461 l 1083 461 l 1083 360 l 985 360 z m 614 483 l 614 589 l 714 589 l 714 483 z m 863 589 l 960 589 l 960 483 l 863 483 z m 838 483 l 738 483 l 738 589 l 838 589 z m 467 483 l 369 483 l 369 589 l 467 589 z m 343 483 l 244 483 l 244 589 l 343 589 z m 589 483 l 490 483 l 490 589 l 589 589 z m 985 589 l 1083 589 l 1083 483 l 985 483 z m 614 613 l 614 714 l 714 714 l 714 613 z m 863 714 l 960 714 l 960 613 l 863 613 z m 838 613 l 738 613 l 738 714 l 838 714 z m 467 613 l 369 613 l 369 714 l 467 714 z m 343 613 l 244 613 l 244 714 l 343 714 z m 589 613 l 490 613 l 490 714 l 589 714 z m 985 714 l 1083 714 l 1083 613 l 985 613 z m 614 736 l 614 838 l 714 838 l 714 736 z m 863 838 l 960 838 l 960 736 l 863 736 z m 838 736 l 738 736 l 738 838 l 838 838 z m 467 736 l 369 736 l 369 838 l 467 838 z m 343 736 l 244 736 l 244 838 l 343 838 z m 589 736 l 490 736 l 490 838 l 589 838 z m 985 838 l 1083 838 l 1083 736 l 985 736 z m 614 861 l 614 964 l 714 964 l 714 861 z m 863 964 l 960 964 l 960 861 l 863 861 z m 838 861 l 738 861 l 738 964 l 838 964 z m 467 861 l 369 861 l 369 964 l 467 964 z m 343 861 l 244 861 l 244 964 l 343 964 z m 589 861 l 490 861 l 490 964 l 589 964 z m 985 964 l 1083 964 l 1083 861 l 985 861 z m 1206 4 l 128 4 l 128 1072 l 1206 1072 z m 221 82 l 1110 82 l 1110 988 l 221 988 z "},"▤":{"ha":1333,"x_min":0,"x_max":0,"o":"m 1138 138 l 1138 218 l 193 218 l 193 138 z m 1138 279 l 1138 360 l 193 360 l 193 279 z m 1138 421 l 1138 503 l 193 503 l 193 421 z m 1138 568 l 1138 649 l 193 649 l 193 568 z m 1138 710 l 1138 792 l 193 792 l 193 710 z m 1138 853 l 1138 933 l 193 933 l 193 853 z m 1206 4 l 128 4 l 128 1072 l 1206 1072 z m 221 82 l 1110 82 l 1110 988 l 221 988 z "},"▥":{"ha":1333,"x_min":0,"x_max":0,"o":"m 972 51 l 1054 51 l 1054 1024 l 972 1024 z m 832 51 l 913 51 l 913 1024 l 832 1024 z m 694 51 l 775 51 l 775 1024 l 694 1024 z m 554 51 l 635 51 l 635 1024 l 554 1024 z m 417 51 l 497 51 l 497 1024 l 417 1024 z m 276 51 l 357 51 l 357 1024 l 276 1024 z m 1206 4 l 128 4 l 128 1072 l 1206 1072 z m 221 82 l 1110 82 l 1110 988 l 221 988 z "},"▨":{"ha":1333,"x_min":0,"x_max":0,"o":"m 1206 4 l 128 4 l 128 1072 l 1206 1072 z m 222 233 l 222 150 l 1060 988 l 978 988 z m 269 82 l 346 82 l 1111 847 l 1111 925 z m 463 82 l 546 82 l 1111 647 l 1111 731 z m 222 431 l 222 349 l 863 988 l 781 988 z m 663 82 l 746 82 l 1111 451 l 1111 531 z m 222 622 l 222 540 l 669 988 l 589 988 z m 863 82 l 944 82 l 1111 253 l 1111 335 z m 222 818 l 222 738 l 472 988 l 392 988 z m 222 988 l 222 933 l 275 988 z m 1061 82 l 1111 82 l 1111 138 z "},"▧":{"ha":1333,"x_min":0,"x_max":0,"o":"m 1206 4 l 128 4 l 128 1072 l 1206 1072 z m 1111 150 l 1111 233 l 356 988 l 274 988 z m 988 82 l 1064 82 l 222 925 l 222 847 z m 788 82 l 871 82 l 222 731 l 222 647 z m 1111 349 l 1111 431 l 553 988 l 471 988 z m 588 82 l 671 82 l 222 531 l 222 451 z m 1111 540 l 1111 622 l 744 988 l 664 988 z m 389 82 l 471 82 l 222 335 l 222 253 z m 1111 738 l 1111 818 l 942 988 l 861 988 z m 1111 933 l 1111 988 l 1058 988 z m 222 82 l 272 82 l 222 138 z "},"▦":{"ha":1333,"x_min":0,"x_max":0,"o":"m 1138 140 l 1138 215 l 1051 215 l 1051 282 l 1138 282 l 1138 357 l 1051 357 l 1051 424 l 1138 424 l 1138 500 l 1051 500 l 1051 571 l 1138 571 l 1138 646 l 1051 646 l 1051 713 l 1138 713 l 1138 789 l 1051 789 l 1051 856 l 1138 856 l 1138 931 l 1051 931 l 1051 988 l 221 988 l 221 931 l 193 931 l 193 856 l 279 856 l 279 789 l 193 789 l 193 713 l 279 713 l 279 646 l 193 646 l 193 571 l 279 571 l 279 500 l 193 500 l 193 424 l 279 424 l 279 357 l 193 357 l 193 282 l 279 282 l 279 215 l 193 215 l 193 140 l 279 140 l 279 82 l 1110 82 l 1110 140 z m 975 215 l 910 215 l 910 282 l 975 282 z m 835 215 l 772 215 l 772 282 l 835 282 z m 697 215 l 632 215 l 632 282 l 697 282 z m 557 215 l 494 215 l 494 282 l 557 282 z m 419 215 l 354 215 l 354 282 l 419 282 z m 354 140 l 419 140 l 419 51 l 494 51 l 494 140 l 557 140 l 557 51 l 632 51 l 632 140 l 697 140 l 697 51 l 772 51 l 772 140 l 835 140 l 835 51 l 910 51 l 910 140 l 975 140 l 975 51 l 1051 51 l 1051 140 l 1110 140 l 1110 988 l 1051 988 l 1051 1024 l 975 1024 l 975 931 l 910 931 l 910 1024 l 835 1024 l 835 931 l 772 931 l 772 1024 l 697 1024 l 697 931 l 632 931 l 632 1024 l 557 1024 l 557 931 l 494 931 l 494 1024 l 419 1024 l 419 931 l 354 931 l 354 1024 l 279 1024 l 279 931 l 221 931 l 221 82 l 279 82 l 279 51 l 354 51 z m 975 357 l 910 357 l 910 424 l 975 424 z m 835 357 l 772 357 l 772 424 l 835 424 z m 697 357 l 632 357 l 632 424 l 697 424 z m 557 357 l 494 357 l 494 424 l 557 424 z m 419 357 l 354 357 l 354 424 l 419 424 z m 975 500 l 910 500 l 910 571 l 975 571 z m 835 500 l 772 500 l 772 571 l 835 571 z m 697 500 l 632 500 l 632 571 l 697 571 z m 557 500 l 494 500 l 494 571 l 557 571 z m 419 500 l 354 500 l 354 571 l 419 571 z m 975 646 l 910 646 l 910 713 l 975 713 z m 835 646 l 772 646 l 772 713 l 835 713 z m 697 646 l 632 646 l 632 713 l 697 713 z m 557 646 l 494 646 l 494 713 l 557 713 z m 419 646 l 354 646 l 354 713 l 419 713 z m 975 789 l 910 789 l 910 856 l 975 856 z m 835 789 l 772 789 l 772 856 l 835 856 z m 697 789 l 632 789 l 632 856 l 697 856 z m 557 789 l 494 789 l 494 856 l 557 856 z m 419 789 l 354 789 l 354 856 l 419 856 z m 1206 4 l 128 4 l 128 1072 l 1206 1072 z "},"▩":{"ha":1333,"x_min":0,"x_max":0,"o":"m 1206 4 l 128 4 l 128 1072 l 1206 1072 z m 767 192 l 719 144 l 767 97 l 814 144 z m 714 244 l 667 292 l 619 244 l 667 197 z m 567 192 l 519 144 l 567 97 l 614 144 z m 1104 635 l 1057 682 l 1010 635 l 1057 588 z m 908 439 l 861 486 l 815 440 l 863 393 z m 518 440 l 471 486 l 424 439 l 471 393 z m 1008 539 l 961 586 l 914 539 l 961 492 z m 322 635 l 276 682 l 229 635 l 275 588 z m 418 539 l 372 586 l 325 539 l 371 492 z m 1107 243 l 1060 289 l 1014 242 l 1060 194 z m 319 242 l 272 289 l 226 243 l 272 194 z m 813 735 l 765 781 l 719 735 l 765 688 z m 614 735 l 567 781 l 521 735 l 567 688 z m 1008 340 l 961 386 l 915 340 l 961 293 z m 713 635 l 667 682 l 619 635 l 667 589 z m 518 831 l 471 876 l 425 831 l 471 783 z m 713 833 l 667 879 l 619 833 l 667 788 z m 326 928 l 372 882 l 419 929 l 374 975 z m 914 929 l 960 882 l 1006 928 l 960 975 z m 907 829 l 861 876 l 815 831 l 861 783 z m 717 929 l 763 882 l 808 928 l 763 975 z m 418 340 l 371 386 l 325 342 l 372 294 z m 524 929 l 571 883 l 617 929 l 571 975 z m 1106 440 l 1061 486 l 1014 439 l 1060 393 z m 318 439 l 272 486 l 226 440 l 274 394 z m 811 342 l 764 389 l 719 344 l 767 297 z m 614 344 l 569 389 l 522 342 l 567 297 z m 910 242 l 864 289 l 819 244 l 865 197 z m 419 732 l 374 779 l 329 735 l 375 688 z m 908 639 l 864 683 l 817 636 l 861 592 z m 515 636 l 469 683 l 425 639 l 471 592 z m 808 539 l 764 583 l 718 538 l 763 493 z m 615 538 l 568 583 l 524 539 l 571 493 z m 963 189 l 918 144 l 965 97 l 1008 142 z m 514 244 l 469 289 l 424 242 l 467 197 z m 371 189 l 324 142 l 367 97 l 414 144 z m 321 831 l 275 876 l 231 832 l 276 786 z m 1003 733 l 958 778 l 913 732 l 957 688 z m 1057 876 l 1011 831 l 1056 786 l 1101 832 z m 711 442 l 667 486 l 622 442 l 667 397 z m 657 82 l 676 82 l 667 92 z m 457 82 l 476 82 l 467 92 z m 857 82 l 876 82 l 867 92 z m 667 979 l 675 988 l 658 988 z m 264 82 l 278 82 l 271 89 z m 1056 82 l 1069 82 l 1063 89 z m 274 981 l 281 988 l 268 988 z m 1058 981 l 1065 988 l 1053 988 z m 471 981 l 478 988 l 465 988 z m 861 981 l 868 988 l 856 988 z m 1111 729 l 1111 739 l 1106 733 z m 222 738 l 222 731 l 226 733 z m 1111 925 l 1111 933 l 1107 929 z m 222 933 l 222 925 l 226 929 z m 1111 539 l 1107 535 l 1111 531 z m 210 146 l 210 132 l 217 139 z m 222 543 l 222 536 l 226 539 z m 222 349 l 222 342 l 226 344 z m 1111 344 l 1107 340 l 1111 336 z "},"♨":{"ha":1333,"x_min":0,"x_max":0,"o":"m 771 488 b 633 218 771 389 721 279 b 561 265 586 185 535 224 b 610 460 593 317 610 392 b 572 636 610 515 592 581 b 531 829 551 699 529 771 b 575 978 532 881 550 932 b 686 1096 599 1022 647 1071 b 743 1044 725 1121 772 1085 b 693 856 706 992 692 922 b 731 678 694 801 711 739 b 771 488 750 617 771 551 z m 551 488 b 422 236 551 374 494 289 b 349 281 364 194 321 235 b 392 457 376 326 396 394 b 353 589 389 500 374 544 b 311 747 333 633 314 696 b 453 1022 306 865 371 958 b 515 968 499 1058 551 1021 b 472 775 476 911 468 846 b 508 633 475 725 490 672 b 551 488 529 586 551 538 z m 314 446 b 325 381 358 450 365 390 b 218 278 261 365 218 328 b 668 150 218 196 458 150 b 1117 278 878 150 1117 196 b 1025 372 1117 326 1078 361 b 1036 436 996 378 1008 439 b 1271 244 1163 426 1271 344 b 668 -22 1271 64 967 -22 b 64 238 371 -22 61 57 b 314 446 65 353 174 433 z m 996 488 b 867 236 996 374 939 289 b 793 281 808 194 765 235 b 836 457 821 326 840 394 b 797 589 833 500 818 544 b 756 747 778 633 758 696 b 897 1022 750 865 815 958 b 960 968 943 1058 996 1021 b 917 775 921 911 913 846 b 953 633 919 725 935 672 b 996 488 974 586 996 538 z "},"☏":{"ha":1333,"x_min":0,"x_max":0,"o":"m 1114 93 l 226 93 b 171 142 186 93 175 103 l 160 265 b 289 557 160 363 222 474 b 436 699 338 617 399 675 l 436 811 l 422 811 b 390 782 400 811 392 803 b 389 701 389 758 389 731 b 343 647 389 669 375 650 l 115 625 b 61 675 81 622 60 639 b 114 863 64 733 81 806 b 349 990 160 940 232 989 l 988 990 b 1218 860 1101 989 1174 936 b 1271 675 1251 801 1268 732 b 1222 624 1272 636 1258 619 l 1003 647 b 953 699 969 651 954 667 b 949 772 951 719 950 747 b 914 811 947 799 936 811 l 900 811 l 900 699 b 1044 560 931 679 990 625 b 1176 272 1111 479 1176 371 l 1165 143 b 1114 93 1163 110 1149 93 z m 694 711 l 694 811 l 642 811 l 642 711 z m 990 908 l 344 908 b 201 826 281 908 226 868 b 169 718 183 796 172 756 l 290 733 b 297 828 289 764 292 801 b 393 892 306 872 336 892 l 942 892 b 1040 817 994 892 1029 867 b 1047 728 1047 786 1049 753 l 1164 714 b 1125 831 1158 753 1142 801 b 990 908 1096 875 1049 908 z m 885 408 b 671 200 885 288 792 200 b 456 408 546 200 456 283 b 671 615 456 531 550 615 b 885 408 790 615 885 525 z m 811 654 l 811 811 l 783 811 l 783 631 l 551 631 l 551 811 l 526 811 l 526 656 b 364 496 469 622 418 568 b 265 263 310 425 268 332 l 271 186 l 1065 186 l 1074 268 b 971 503 1072 340 1025 431 b 811 654 917 575 865 631 z m 785 408 b 671 529 786 474 736 529 b 556 408 601 529 556 476 b 671 286 556 340 600 286 b 785 408 739 286 785 340 z "},"☎":{"ha":1333,"x_min":0,"x_max":0,"o":"m 1218 631 l 988 654 b 950 693 961 657 950 672 b 944 793 950 722 947 765 b 914 832 942 819 933 832 l 879 832 l 879 701 b 1044 556 921 683 986 628 b 1176 272 1113 471 1176 363 l 1165 139 b 1114 93 1163 107 1143 93 l 222 93 b 171 140 188 93 174 110 l 160 265 b 289 554 160 361 221 469 b 457 701 351 631 411 682 l 457 832 l 418 832 b 388 793 400 832 390 819 b 385 699 385 768 385 725 b 350 654 385 674 372 657 l 113 631 b 61 681 75 626 60 642 b 113 864 64 743 81 806 b 342 990 153 936 225 990 l 994 990 b 1218 861 1107 990 1176 931 b 1271 681 1250 807 1268 738 b 1218 631 1272 640 1254 626 z m 732 832 l 604 832 l 604 707 l 732 707 z m 840 401 b 671 574 840 496 767 574 b 500 401 571 574 500 499 b 671 228 500 301 569 228 b 840 401 769 228 840 306 z "},"☜":{"ha":1333,"x_min":0,"x_max":0,"o":"m 1303 194 l 1115 194 l 1115 215 l 1051 215 b 1028 238 1032 215 1028 221 l 1028 297 b 989 292 1015 297 1001 296 b 928 258 964 282 944 269 b 915 250 925 257 919 253 b 838 207 888 231 857 214 b 738 192 815 197 775 193 l 646 192 b 571 197 624 190 600 193 b 506 232 540 203 521 213 b 446 283 478 238 457 261 b 436 340 435 304 428 322 b 404 394 421 353 408 375 b 410 443 400 410 401 428 b 386 482 400 453 390 471 b 378 522 382 494 378 514 l 114 522 b 31 610 60 522 31 564 b 118 699 31 653 58 699 l 494 699 b 542 756 500 726 518 749 b 633 767 576 765 608 767 l 650 767 b 854 721 719 767 794 767 b 911 674 871 706 892 689 b 971 638 931 660 956 643 b 1028 632 986 632 1007 632 l 1028 679 b 1051 704 1028 696 1032 704 l 1115 704 l 1115 722 l 1303 722 z m 525 593 b 528 588 524 590 524 588 b 611 638 567 583 600 601 b 668 631 622 674 667 671 b 774 471 672 561 710 510 b 750 418 808 450 789 404 b 701 440 733 424 715 432 b 711 300 711 397 715 340 b 649 244 708 269 682 250 b 726 251 678 244 708 249 b 817 268 749 251 792 257 b 867 299 831 278 851 290 b 896 317 876 304 889 311 b 960 351 918 331 947 346 b 1028 360 981 360 1007 360 l 1028 567 b 947 578 1001 565 972 568 b 874 625 925 588 897 607 b 854 642 867 631 861 636 b 810 675 839 654 825 667 b 650 703 767 700 707 703 l 596 703 b 564 696 585 703 571 701 b 556 678 558 690 556 683 b 550 642 556 668 554 651 b 525 593 544 628 535 610 z m 461 596 l 482 633 l 126 633 b 94 610 108 633 94 626 b 126 586 94 593 107 586 l 458 586 b 461 596 458 589 460 593 z m 1092 279 l 1115 279 l 1115 640 l 1092 640 z m 631 417 b 608 429 628 426 622 431 b 483 424 564 424 524 422 b 471 408 474 424 471 415 b 489 389 472 399 478 389 b 618 400 526 388 579 390 b 631 417 626 403 632 410 z m 579 525 b 461 522 542 522 494 522 b 449 507 451 522 449 514 b 467 488 449 497 454 489 b 590 496 503 486 564 490 b 604 513 599 497 604 504 b 579 525 603 519 594 526 z m 647 322 b 638 304 649 314 644 307 b 521 296 601 297 553 294 b 503 314 510 296 504 304 b 511 328 501 322 504 328 b 628 333 550 326 592 328 b 647 322 638 335 646 331 z "},"☞":{"ha":1333,"x_min":0,"x_max":0,"o":"m 218 194 l 31 194 l 31 722 l 218 722 l 218 704 l 282 704 b 306 679 301 704 306 696 l 306 632 b 363 638 326 632 347 632 b 422 674 378 643 403 660 b 479 721 442 689 463 706 b 683 767 539 767 614 767 l 700 767 b 792 756 725 767 757 765 b 839 699 815 749 833 726 l 1215 699 b 1303 610 1275 699 1303 653 b 1219 522 1303 564 1274 522 l 956 522 b 947 482 956 514 951 494 b 924 443 943 471 933 453 b 929 394 932 428 933 410 b 897 340 925 375 913 353 b 888 283 906 322 899 304 b 828 232 876 261 856 238 b 763 197 813 213 793 203 b 688 192 733 193 710 190 l 596 192 b 496 207 558 193 518 197 b 418 250 476 214 446 231 b 406 258 414 253 408 257 b 344 292 389 269 369 282 b 306 297 332 296 318 297 l 306 238 b 282 215 306 221 301 215 l 218 215 z m 808 593 b 783 642 799 610 789 628 b 778 678 779 651 778 668 b 769 696 778 683 775 690 b 738 703 763 701 749 703 l 683 703 b 524 675 626 703 567 700 b 479 642 508 667 494 654 b 460 625 472 636 467 631 b 386 578 436 607 408 588 b 306 567 361 568 332 565 l 306 360 b 374 351 326 360 353 360 b 438 317 386 346 415 331 b 467 299 444 311 457 304 b 517 268 482 290 503 278 b 607 251 542 257 585 251 b 685 244 625 249 656 244 b 622 300 651 250 625 269 b 632 440 618 340 622 397 b 583 418 618 432 600 424 b 560 471 544 404 525 450 b 665 631 624 510 661 561 b 722 638 667 671 711 674 b 806 588 733 601 767 583 b 808 593 810 588 810 590 z m 851 633 l 872 596 b 875 586 874 593 875 589 l 1207 586 b 1239 610 1226 586 1239 593 b 1207 633 1239 626 1225 633 z m 218 279 l 242 279 l 242 640 l 218 640 z m 703 417 b 715 400 701 410 707 403 b 844 389 754 390 807 388 b 863 408 856 389 861 399 b 850 424 863 415 860 424 b 725 429 810 422 769 424 b 703 417 711 431 706 426 z m 754 525 b 729 513 739 526 731 519 b 743 496 729 504 735 497 b 867 488 769 490 831 486 b 885 507 879 489 885 497 b 872 522 885 514 882 522 b 754 525 839 522 792 522 z m 686 322 b 696 304 685 314 689 307 b 813 296 732 297 781 294 b 831 314 824 296 829 304 b 822 328 832 322 829 328 b 706 333 783 326 742 328 b 686 322 696 335 688 331 z "},"¶":{"ha":1333,"x_min":0,"x_max":0,"o":"m 544 1104 l 1086 1104 l 1086 -224 l 885 -224 l 885 928 l 813 928 l 813 -224 l 607 -224 l 607 413 l 564 413 b 219 754 367 413 219 539 l 219 765 b 544 1104 219 979 342 1104 z "},"†":{"ha":1333,"x_min":0,"x_max":0,"o":"m 1042 913 l 1042 708 l 797 708 l 797 -224 l 533 -224 l 533 708 l 290 708 l 290 913 l 533 913 l 533 1181 l 797 1181 l 797 913 z "},"‡":{"ha":1333,"x_min":0,"x_max":0,"o":"m 290 46 l 290 249 l 533 249 l 533 708 l 290 708 l 290 913 l 533 913 l 533 1181 l 797 1181 l 797 913 l 1042 913 l 1042 708 l 797 708 l 797 249 l 1042 249 l 1042 46 l 797 46 l 797 -224 l 533 -224 l 533 46 z "},"↕":{"ha":1333,"x_min":0,"x_max":0,"o":"m 322 351 l 508 351 l 508 757 l 322 757 l 668 1185 l 1011 757 l 826 757 l 826 351 l 1011 351 l 668 -75 z "},"↗":{"ha":1333,"x_min":0,"x_max":0,"o":"m 390 -14 l 165 211 l 754 800 l 624 931 l 1168 990 l 1110 444 l 979 575 z "},"↙":{"ha":1333,"x_min":0,"x_max":0,"o":"m 943 990 l 1168 765 l 579 176 l 710 46 l 165 -14 l 224 532 l 354 401 z "},"↖":{"ha":1333,"x_min":0,"x_max":0,"o":"m 1168 211 l 943 -14 l 354 575 l 224 444 l 165 990 l 710 931 l 579 800 z "},"↘":{"ha":1333,"x_min":0,"x_max":0,"o":"m 165 765 l 390 990 l 979 401 l 1110 532 l 1168 -14 l 624 46 l 754 176 z "},"♭":{"ha":1333,"x_min":0,"x_max":0,"o":"m 550 1176 l 550 483 b 758 636 590 563 654 636 b 982 379 885 636 982 529 b 435 -53 982 146 715 -56 l 435 1176 z m 550 269 l 550 46 b 811 360 697 57 811 207 b 715 531 811 475 781 531 b 550 269 624 531 550 414 z "},"♩":{"ha":1333,"x_min":0,"x_max":0,"o":"m 731 204 l 731 1175 l 839 1175 l 839 113 b 514 -151 839 -49 690 -151 b 356 -14 422 -151 356 -100 b 632 221 356 113 493 221 b 731 204 669 221 704 215 z "},"♪":{"ha":1333,"x_min":0,"x_max":0,"o":"m 742 785 l 742 113 b 417 -151 742 -49 593 -151 b 258 -14 325 -151 258 -100 b 535 221 258 113 396 221 b 633 204 572 221 607 215 l 633 1168 l 718 1168 b 890 872 718 1022 781 957 b 1101 525 1003 786 1101 674 b 961 160 1101 378 1038 250 l 907 160 b 992 472 963 250 992 368 b 742 785 992 629 892 738 z "},"♬":{"ha":1333,"x_min":0,"x_max":0,"o":"m 1103 917 l 1103 992 l 493 850 l 493 771 z m 1211 1201 l 1211 263 b 886 -1 1211 101 1063 -1 b 728 136 794 -1 728 50 b 1004 371 728 263 865 371 b 1103 354 1042 371 1076 365 l 1103 736 l 493 592 l 493 113 b 168 -151 493 -49 344 -151 b 10 -14 76 -151 10 -100 b 286 221 10 113 147 221 b 385 204 324 221 358 215 l 385 1015 z "},"㉿":{"ha":1333,"x_min":0,"x_max":0,"o":"m 1279 626 l 1107 626 b 978 901 1094 738 1049 833 l 815 550 l 999 189 b 1100 440 1058 257 1092 346 l 954 440 l 954 571 l 1283 571 b 667 -85 1289 158 1019 -85 b 53 447 333 -85 79 143 l 225 447 b 667 53 251 217 419 53 b 968 158 796 53 896 93 l 790 158 l 649 467 l 619 467 l 619 158 l 411 158 l 411 921 l 619 921 l 619 631 l 649 631 l 765 921 l 957 921 b 665 1021 882 983 782 1021 b 232 633 394 1021 249 842 l 378 633 l 378 503 l 49 503 b 665 1158 43 915 313 1158 b 1279 626 999 1158 1253 931 z "},"㈜":{"ha":1333,"x_min":0,"x_max":0,"o":"m 296 976 l 1039 976 l 1039 797 l 788 797 b 1050 661 818 707 911 672 l 1050 481 b 667 606 907 483 743 532 b 285 481 592 531 432 483 l 285 663 b 544 797 422 672 517 706 l 296 797 z m 254 442 l 1081 442 l 1081 261 l 779 261 l 779 47 l 553 47 l 553 261 l 254 261 z m 42 529 b 231 1136 42 749 108 964 l 372 1136 b 207 529 261 960 207 732 b 372 -76 207 326 261 99 l 231 -76 b 42 529 108 94 42 310 z m 1292 529 b 1103 -76 1292 310 1225 94 l 961 -76 b 1126 522 1072 99 1126 319 b 961 1136 1126 725 1072 960 l 1103 1136 b 1292 529 1225 964 1292 749 z "},"№":{"ha":1513,"x_min":0,"x_max":0,"o":"m 567 -14 l 350 575 l 350 -14 l 68 -14 l 68 1104 l 322 1104 l 539 514 l 539 1104 l 821 1104 l 821 -14 z m 896 -14 l 896 157 l 1463 157 l 1463 -14 z m 889 533 b 1179 858 889 756 979 858 b 1468 533 1378 858 1468 756 b 1179 207 1468 311 1378 207 b 889 533 979 207 889 311 z m 1122 533 b 1179 378 1122 404 1135 378 b 1236 533 1222 378 1236 404 b 1179 688 1236 663 1222 688 b 1122 533 1135 688 1122 663 z "},"㏇":{"ha":1333,"x_min":0,"x_max":0,"o":"m 21 546 b 336 1124 21 886 71 1124 b 646 708 528 1124 640 979 l 397 708 b 336 883 394 818 376 883 b 271 546 286 883 271 761 b 336 206 271 331 286 206 b 397 381 376 206 396 272 l 625 381 l 625 386 b 894 804 625 646 699 804 b 1163 386 1090 804 1163 646 b 1154 249 1163 336 1160 290 l 1326 249 l 1326 -14 l 1126 -14 l 1126 131 b 894 -33 1088 25 1014 -33 b 633 250 736 -33 657 71 b 336 -33 599 64 494 -33 b 21 546 71 -33 21 217 z m 861 386 b 894 171 861 215 869 171 b 928 386 919 171 928 213 b 894 600 928 551 919 600 b 861 386 869 600 861 549 z "},"™":{"ha":1081,"x_min":0,"x_max":0,"o":"m 10 964 l 10 1104 l 429 1104 l 429 964 l 308 964 l 308 571 l 131 571 l 131 964 z m 790 571 l 704 571 l 635 753 l 635 571 l 457 571 l 457 1104 l 622 1104 l 747 781 l 872 1104 l 1036 1104 l 1036 571 l 860 571 l 860 753 z "},"㏂":{"ha":1333,"x_min":0,"x_max":0,"o":"m 986 -14 l 986 497 b 975 604 986 571 983 604 b 960 449 963 604 960 547 l 960 -14 l 796 -14 l 796 497 b 785 604 796 571 793 604 b 767 449 772 604 767 547 l 767 -14 l 607 -14 l 607 785 l 756 785 l 756 765 b 828 804 772 786 801 804 b 919 746 864 804 900 783 b 1015 804 940 782 978 804 b 1144 499 1106 804 1144 706 l 1144 -14 z m 401 522 l 401 110 b 413 -14 401 65 404 15 l 250 -14 b 244 19 247 -4 246 6 b 153 -33 224 -12 190 -33 b 14 219 71 -33 14 61 b 153 472 14 376 71 472 b 240 424 189 472 219 454 l 240 528 b 217 611 240 579 233 611 b 193 529 199 611 193 581 l 32 529 b 217 804 32 688 96 804 b 401 522 336 804 401 683 z m 175 219 b 207 139 175 167 186 139 b 240 219 229 139 240 167 b 207 300 240 272 229 300 b 175 219 186 300 175 272 z m 582 263 l 582 -14 l 425 -14 l 425 263 z m 1326 263 l 1326 -14 l 1169 -14 l 1169 263 z "},"㏘":{"ha":1333,"x_min":0,"x_max":0,"o":"m 189 785 l 189 751 b 268 804 207 781 236 804 b 413 386 365 804 413 664 b 268 -33 413 106 365 -33 b 189 18 235 -33 206 -12 l 189 -361 l 28 -361 l 28 785 z m 189 386 b 218 165 189 210 196 165 b 249 386 240 165 249 207 b 218 604 249 561 240 604 b 189 386 196 604 189 560 z m 983 -14 l 983 497 b 972 604 983 571 981 604 b 957 449 960 604 957 547 l 957 -14 l 793 -14 l 793 497 b 782 604 793 571 790 604 b 764 449 769 604 764 547 l 764 -14 l 604 -14 l 604 785 l 753 785 l 753 765 b 825 804 769 786 799 804 b 917 746 861 804 897 783 b 1013 804 938 782 975 804 b 1142 499 1103 804 1142 706 l 1142 -14 z m 576 263 l 576 -14 l 419 -14 l 419 263 z m 1326 263 l 1326 -14 l 1169 -14 l 1169 263 z "},"℡":{"ha":1333,"x_min":0,"x_max":0,"o":"m 1031 322 l 697 322 l 697 285 b 747 147 697 183 711 147 b 796 246 779 147 793 176 l 1025 246 b 747 -33 1003 49 896 -33 b 461 386 572 -33 461 78 b 747 804 461 692 572 804 b 1032 386 922 804 1032 692 b 1031 322 1032 363 1032 342 z m 7 865 l 7 1104 l 582 1104 l 582 865 l 422 865 l 422 -14 l 167 -14 l 167 865 z m 1299 -14 l 1064 -14 l 1064 1104 l 1299 1104 z m 699 469 l 796 469 l 796 504 b 747 622 796 583 781 622 b 699 514 714 622 699 578 z "},"＂":{"ha":1333,"x_min":0,"x_max":0,"o":"m 701 743 l 701 1104 l 924 1104 l 924 743 z m 408 743 l 408 1104 l 631 1104 l 631 743 z "},"＃":{"ha":1333,"x_min":0,"x_max":0,"o":"m 613 -14 l 667 239 l 532 239 l 478 -14 l 228 -14 l 282 239 l 139 239 l 139 447 l 328 447 l 369 642 l 193 642 l 193 851 l 414 851 l 471 1104 l 721 1104 l 665 851 l 800 851 l 856 1104 l 1106 1104 l 1050 851 l 1194 851 l 1194 642 l 1004 642 l 963 447 l 1140 447 l 1140 239 l 918 239 l 863 -14 z m 619 642 l 578 447 l 713 447 l 754 642 z "},"＄":{"ha":1333,"x_min":0,"x_max":0,"o":"m 1092 317 b 797 -22 1092 147 992 17 l 797 -165 l 546 -165 l 546 -22 b 250 306 353 15 250 140 l 250 328 l 550 328 l 550 303 b 671 193 550 238 590 193 b 792 303 751 193 792 238 b 647 428 792 368 754 407 l 563 446 b 240 790 371 483 240 586 b 519 1111 240 947 340 1072 l 519 1256 l 771 1256 l 771 1111 b 1049 804 951 1071 1049 946 l 1049 785 l 749 785 l 749 804 b 644 896 749 861 711 896 b 540 804 576 896 540 861 b 689 685 540 742 582 707 l 774 669 b 1092 317 976 628 1092 515 z "},"％":{"ha":1333,"x_min":0,"x_max":0,"o":"m 797 1104 l 993 1104 l 535 -14 l 339 -14 z m 258 821 b 311 678 258 708 269 678 b 364 821 353 678 364 708 b 311 964 364 933 353 964 b 258 821 269 964 258 933 z m 57 821 b 310 1124 57 1017 138 1124 b 564 821 485 1124 564 1017 b 310 519 564 625 485 519 b 57 821 138 519 57 625 z m 1074 269 b 1021 411 1074 381 1063 411 b 967 269 979 411 967 381 b 1021 126 967 156 979 126 b 1074 269 1063 126 1074 156 z m 1275 269 b 1022 -33 1275 74 1194 -33 b 767 269 847 -33 767 74 b 1022 571 767 464 847 571 b 1275 269 1194 571 1275 464 z "},"＆":{"ha":1333,"x_min":0,"x_max":0,"o":"m 589 715 l 828 432 b 843 568 839 472 843 524 l 1115 568 b 1011 225 1110 442 1072 322 l 1217 -14 l 888 -14 l 831 54 b 563 -33 761 -4 665 -33 b 172 296 325 -33 172 96 b 363 592 172 426 242 529 b 251 850 283 689 251 765 b 583 1124 251 1021 382 1124 b 915 850 783 1124 915 1021 l 915 806 l 642 806 l 642 850 b 583 921 642 897 624 921 b 524 850 543 921 524 896 b 589 715 524 808 539 775 z m 583 179 b 690 214 622 179 663 190 l 511 422 b 454 301 475 392 454 350 b 583 179 454 218 507 179 z "},"＇":{"ha":1333,"x_min":0,"x_max":0,"o":"m 556 743 l 556 1104 l 778 1104 l 778 743 z "},"＊":{"ha":1333,"x_min":0,"x_max":0,"o":"m 532 506 l 289 600 l 396 788 l 599 624 l 558 881 l 775 881 l 735 624 l 938 788 l 1044 600 l 801 506 l 1044 413 l 938 225 l 735 389 l 775 132 l 558 132 l 599 389 l 396 225 l 289 413 z "},"＋":{"ha":1333,"x_min":0,"x_max":0,"o":"m 288 401 l 288 610 l 539 610 l 539 881 l 794 881 l 794 610 l 1046 610 l 1046 401 l 794 401 l 794 132 l 539 132 l 539 401 z "},"－":{"ha":1333,"x_min":0,"x_max":0,"o":"m 389 394 l 389 618 l 943 618 l 943 394 z "},"／":{"ha":1333,"x_min":0,"x_max":0,"o":"m 56 65 l 1079 1200 l 1276 1031 l 253 -106 z "},"０":{"ha":1333,"x_min":0,"x_max":0,"o":"m 1069 546 b 954 76 1069 322 1039 172 b 665 -33 890 4 796 -33 b 376 76 535 -33 440 4 b 263 546 293 172 263 322 b 376 1014 263 768 293 918 b 665 1124 440 1085 535 1124 b 954 1014 796 1124 890 1085 b 1069 546 1039 918 1069 768 z m 778 546 b 747 854 778 707 771 808 b 665 901 729 889 700 901 b 583 854 631 901 601 889 b 554 546 560 808 554 707 b 583 236 554 383 560 282 b 665 188 601 201 631 188 b 747 236 700 188 729 201 b 778 546 771 282 778 383 z "},"１":{"ha":1333,"x_min":0,"x_max":0,"o":"m 851 -14 l 560 -14 l 560 850 l 342 753 l 342 985 l 601 1104 l 851 1104 z "},"２":{"ha":1333,"x_min":0,"x_max":0,"o":"m 1035 786 b 913 494 1035 667 1003 599 l 661 207 l 1050 207 l 1050 -14 l 299 -14 l 299 190 l 669 619 b 743 790 722 679 743 724 b 658 901 743 864 718 901 b 574 790 599 901 574 864 l 574 732 l 282 732 l 282 786 b 658 1124 282 968 413 1124 b 1035 786 904 1124 1035 968 z "},"３":{"ha":1333,"x_min":0,"x_max":0,"o":"m 667 188 b 768 314 736 188 768 233 b 624 463 768 432 728 463 l 551 463 l 551 683 l 624 683 b 744 803 699 683 744 708 b 667 901 744 871 711 901 b 588 803 613 901 588 869 l 588 781 l 306 781 l 306 807 b 667 1124 306 1001 442 1124 b 1026 818 890 1124 1026 997 b 853 581 1026 688 961 611 b 1060 303 992 550 1060 447 b 667 -33 1060 103 906 -33 b 272 303 426 -33 272 103 l 272 343 l 564 343 l 564 314 b 667 188 564 233 596 188 z "},"４":{"ha":1333,"x_min":0,"x_max":0,"o":"m 483 406 l 671 406 l 671 721 z m 1065 406 l 1065 185 l 951 185 l 951 -14 l 671 -14 l 671 185 l 240 185 l 240 406 l 656 1104 l 951 1104 l 951 406 z "},"５":{"ha":1333,"x_min":0,"x_max":0,"o":"m 667 510 b 589 453 625 510 600 485 l 322 453 l 351 1104 l 997 1104 l 997 882 l 621 882 l 610 656 b 767 711 640 688 696 711 b 1050 338 936 711 1050 599 b 667 -33 1050 113 922 -33 b 283 310 421 -33 294 100 l 576 310 b 667 188 582 231 606 188 b 760 349 731 188 760 232 b 667 510 760 465 724 510 z "},"６":{"ha":1333,"x_min":0,"x_max":0,"o":"m 1036 814 l 750 814 b 671 910 747 876 719 910 b 561 631 599 910 561 836 b 738 711 593 683 658 711 b 1058 346 911 711 1058 582 b 675 -33 1058 114 914 -33 b 275 499 374 -33 275 169 b 672 1124 275 918 378 1124 b 1036 814 893 1124 1018 1007 z m 568 346 b 668 188 568 239 600 188 b 767 346 736 188 767 239 b 668 504 767 453 736 504 b 568 346 600 504 568 453 z "},"７":{"ha":1333,"x_min":0,"x_max":0,"o":"m 293 882 l 293 1104 l 1039 1104 l 1039 900 l 699 -14 l 403 -14 l 746 882 z "},"８":{"ha":1333,"x_min":0,"x_max":0,"o":"m 667 1124 b 1043 819 897 1124 1043 1003 b 881 581 1043 704 974 614 b 1076 303 999 538 1076 446 b 667 -33 1076 94 917 -33 b 257 303 417 -33 257 94 b 453 581 257 446 336 538 b 290 819 360 614 290 704 b 667 1124 290 1003 436 1124 z m 760 794 b 667 901 760 864 725 901 b 574 794 607 901 574 864 b 667 686 574 724 607 686 b 760 794 725 686 760 724 z m 785 329 b 667 472 785 425 740 472 b 549 329 593 472 549 425 b 667 188 549 235 593 188 b 785 329 740 188 785 235 z "},"９":{"ha":1333,"x_min":0,"x_max":0,"o":"m 297 276 l 583 276 b 663 179 586 213 614 179 b 774 460 736 179 771 251 b 596 379 740 407 675 379 b 275 744 422 379 275 508 b 658 1124 275 976 419 1124 b 1058 592 960 1124 1058 921 b 661 -33 1058 169 954 -33 b 297 276 440 -33 315 83 z m 765 743 b 667 901 765 851 733 901 b 567 743 599 901 567 851 b 667 586 567 636 599 586 b 765 743 733 586 765 636 z "},"＠":{"ha":1333,"x_min":0,"x_max":0,"o":"m 667 947 b 365 403 438 947 365 818 b 667 -140 365 -31 450 -140 b 833 -101 729 -140 786 -129 l 894 -262 b 660 -315 826 -299 740 -315 b 147 403 342 -315 147 -174 b 667 1124 147 919 292 1124 b 1186 417 1043 1124 1186 915 b 826 -1 1186 146 1063 -1 b 490 374 610 -1 490 136 b 775 738 490 618 604 738 b 958 636 871 738 933 697 b 667 947 931 853 860 947 z m 719 368 b 843 176 719 235 756 176 b 968 368 932 176 968 235 b 843 558 968 500 932 558 b 719 368 756 558 719 500 z "},"Ａ":{"ha":1333,"x_min":0,"x_max":0,"o":"m 515 1104 l 818 1104 l 1171 -14 l 868 -14 l 822 165 l 510 165 l 464 -14 l 163 -14 z m 765 390 l 667 779 l 567 390 z "},"Ｂ":{"ha":1333,"x_min":0,"x_max":0,"o":"m 783 772 b 669 888 783 856 746 888 l 554 888 l 554 657 l 669 657 b 783 772 746 657 783 689 z m 711 -14 l 253 -14 l 253 1104 l 700 1104 b 1076 796 950 1104 1076 996 b 919 569 1076 678 1017 604 b 1107 317 1035 532 1107 442 b 711 -14 1107 94 967 -14 z m 806 332 b 686 461 806 422 768 461 l 554 461 l 554 203 l 686 203 b 806 332 768 203 806 242 z "},"Ｃ":{"ha":1333,"x_min":0,"x_max":0,"o":"m 203 546 b 325 989 203 735 233 885 b 671 1124 404 1079 521 1124 b 1129 708 957 1124 1121 967 l 831 708 b 671 883 826 818 776 883 b 550 824 617 883 579 865 b 504 546 515 774 504 697 b 550 265 504 392 515 317 b 671 206 579 224 617 206 b 831 381 776 206 828 272 l 1129 381 b 671 -33 1121 122 957 -33 b 325 101 521 -33 404 11 b 203 546 233 206 203 354 z "},"Ｄ":{"ha":1333,"x_min":0,"x_max":0,"o":"m 671 -14 l 235 -14 l 235 1104 l 671 1104 b 1126 546 1028 1104 1126 890 b 671 -14 1126 196 1026 -14 z m 826 546 b 661 875 826 822 774 875 l 536 875 l 536 215 l 661 215 b 826 546 779 215 826 274 z "},"Ｅ":{"ha":1333,"x_min":0,"x_max":0,"o":"m 299 -14 l 299 1104 l 1026 1104 l 1026 865 l 600 865 l 600 679 l 969 679 l 969 439 l 600 439 l 600 224 l 1035 224 l 1035 -14 z "},"Ｆ":{"ha":1333,"x_min":0,"x_max":0,"o":"m 321 -14 l 321 1104 l 1040 1104 l 1040 865 l 622 865 l 622 663 l 992 663 l 992 424 l 622 424 l 622 -14 z "},"Ｇ":{"ha":1333,"x_min":0,"x_max":0,"o":"m 203 546 b 671 1124 203 900 333 1124 b 1129 708 957 1124 1121 967 l 831 708 b 671 883 826 818 776 883 b 504 546 561 883 504 825 b 678 206 504 275 554 206 b 846 389 782 206 842 276 l 675 389 l 675 588 l 1128 588 l 1128 -14 l 914 -14 l 888 107 b 629 -33 850 21 751 -33 b 203 546 340 -33 203 188 z "},"Ｈ":{"ha":1333,"x_min":0,"x_max":0,"o":"m 786 -14 l 786 439 l 546 439 l 546 -14 l 244 -14 l 244 1104 l 546 1104 l 546 679 l 786 679 l 786 1104 l 1088 1104 l 1088 -14 z "},"Ｉ":{"ha":1333,"x_min":0,"x_max":0,"o":"m 817 1104 l 817 -14 l 515 -14 l 515 1104 z "},"Ｊ":{"ha":1333,"x_min":0,"x_max":0,"o":"m 625 206 b 714 317 683 206 714 244 l 714 1104 l 1014 1104 l 1014 321 b 625 -33 1014 106 881 -33 b 236 321 369 -33 236 106 l 236 363 l 536 363 l 536 317 b 625 206 536 244 567 206 z "},"Ｋ":{"ha":1333,"x_min":0,"x_max":0,"o":"m 1131 1104 l 869 560 l 1171 -14 l 847 -14 l 625 439 l 547 439 l 547 -14 l 246 -14 l 246 1104 l 547 1104 l 547 679 l 625 679 l 811 1104 z "},"Ｌ":{"ha":1333,"x_min":0,"x_max":0,"o":"m 326 -14 l 326 1104 l 628 1104 l 628 224 l 1063 224 l 1063 -14 z "},"Ｍ":{"ha":1333,"x_min":0,"x_max":0,"o":"m 775 -14 l 557 -14 l 367 492 l 367 -14 l 78 -14 l 78 1104 l 357 1104 l 667 283 l 976 1104 l 1254 1104 l 1254 -14 l 965 -14 l 965 492 z "},"Ｎ":{"ha":1333,"x_min":0,"x_max":0,"o":"m 806 -14 l 528 597 l 528 -14 l 238 -14 l 238 1104 l 528 1104 l 806 492 l 806 1104 l 1096 1104 l 1096 -14 z "},"Ｏ":{"ha":1333,"x_min":0,"x_max":0,"o":"m 833 546 b 789 824 833 696 822 774 b 667 883 760 865 721 883 b 546 824 613 883 575 865 b 500 546 511 774 500 696 b 546 265 500 393 511 317 b 667 206 575 224 613 206 b 789 265 721 206 760 224 b 833 546 822 317 833 393 z m 1135 546 b 1014 101 1135 354 1104 206 b 667 -33 935 11 817 -33 b 321 101 517 -33 400 11 b 199 546 229 206 199 354 b 321 989 199 735 229 885 b 667 1124 400 1079 517 1124 b 1014 989 817 1124 935 1079 b 1135 546 1104 885 1135 735 z "},"Ｐ":{"ha":1333,"x_min":0,"x_max":0,"o":"m 736 361 l 568 361 l 568 -14 l 267 -14 l 267 1104 l 736 1104 b 1121 732 986 1104 1121 968 b 736 361 1121 494 986 361 z m 568 600 l 690 600 b 819 732 775 600 819 640 b 690 865 819 826 775 865 l 568 865 z "},"Ｑ":{"ha":1333,"x_min":0,"x_max":0,"o":"m 1118 546 b 1043 169 1118 392 1099 265 l 1169 64 l 1014 -114 l 867 11 b 650 -33 807 -19 732 -33 b 304 101 500 -33 383 11 b 182 546 213 206 182 354 b 304 989 182 735 213 885 b 650 1124 383 1079 500 1124 b 997 989 800 1124 918 1079 b 1118 546 1088 885 1118 735 z m 817 546 b 772 824 817 696 806 774 b 650 883 743 865 704 883 b 529 824 596 883 558 865 b 483 546 494 774 483 696 b 529 265 483 393 494 317 b 650 206 558 224 596 206 b 772 265 704 206 743 224 b 817 546 806 317 817 393 z "},"Ｒ":{"ha":1333,"x_min":0,"x_max":0,"o":"m 793 90 l 785 229 b 664 361 779 329 746 361 l 547 361 l 547 -14 l 246 -14 l 246 1104 l 731 1104 b 1100 763 974 1104 1100 968 b 910 482 1100 611 1025 515 b 1081 243 1025 461 1071 390 l 1090 92 b 1114 -14 1093 46 1101 13 l 814 -14 b 793 90 801 10 796 53 z m 547 600 l 669 600 b 799 732 754 600 799 639 b 669 865 799 828 754 865 l 547 865 z "},"Ｓ":{"ha":1333,"x_min":0,"x_max":0,"o":"m 1092 317 b 671 -33 1092 115 951 -33 b 250 306 399 -33 250 108 l 250 328 l 550 328 l 550 303 b 671 193 550 238 590 193 b 792 303 751 193 792 238 b 647 428 792 368 754 407 l 563 446 b 240 790 371 483 240 586 b 644 1124 240 982 390 1124 b 1049 804 907 1124 1049 976 l 1049 785 l 749 785 l 749 804 b 644 896 749 861 711 896 b 540 804 576 896 540 861 b 689 685 540 742 582 707 l 774 669 b 1092 317 976 628 1092 515 z "},"Ｔ":{"ha":1333,"x_min":0,"x_max":0,"o":"m 236 865 l 236 1104 l 1097 1104 l 1097 865 l 818 865 l 818 -14 l 517 -14 l 517 865 z "},"Ｕ":{"ha":1333,"x_min":0,"x_max":0,"o":"m 667 -33 b 221 404 363 -33 221 133 l 221 1104 l 521 1104 l 521 386 b 667 206 521 260 574 206 b 813 386 760 206 813 260 l 813 1104 l 1113 1104 l 1113 404 b 667 -33 1113 133 971 -33 z "},"Ｖ":{"ha":1333,"x_min":0,"x_max":0,"o":"m 818 -14 l 515 -14 l 163 1104 l 464 1104 l 667 326 l 868 1104 l 1171 1104 z "},"Ｗ":{"ha":1333,"x_min":0,"x_max":0,"o":"m 542 1104 l 792 1104 l 938 393 l 1032 1104 l 1332 1104 l 1094 -14 l 832 -14 l 667 764 l 501 -14 l 239 -14 l 1 1104 l 303 1104 l 397 393 z "},"Ｘ":{"ha":1333,"x_min":0,"x_max":0,"o":"m 1156 -14 l 847 -14 l 667 389 l 486 -14 l 176 -14 l 464 564 l 200 1104 l 510 1104 l 667 736 l 822 1104 l 1132 1104 l 868 564 z "},"Ｙ":{"ha":1333,"x_min":0,"x_max":0,"o":"m 667 674 l 849 1104 l 1156 1104 l 818 426 l 818 -14 l 515 -14 l 515 426 l 178 1104 l 485 1104 z "},"Ｚ":{"ha":1333,"x_min":0,"x_max":0,"o":"m 269 208 l 693 865 l 286 865 l 286 1104 l 1056 1104 l 1056 881 l 632 224 l 1064 224 l 1064 -14 l 269 -14 z "},"￦":{"ha":1333,"x_min":0,"x_max":0,"o":"m 539 1104 l 794 1104 l 886 625 l 960 625 l 1018 1104 l 1318 1104 l 1219 625 l 1314 625 l 1314 519 l 1199 519 l 1089 -14 l 822 -14 l 715 519 l 618 519 l 511 -14 l 244 -14 l 135 519 l 10 519 l 10 625 l 114 625 l 15 1104 l 317 1104 l 375 625 l 449 625 z m 907 519 l 931 393 l 946 519 z m 694 625 l 667 764 l 639 625 z m 389 519 l 404 393 l 428 519 z "},"＾":{"ha":1333,"x_min":0,"x_max":0,"o":"m 558 1104 l 774 1104 l 1021 706 l 764 706 l 665 882 l 567 706 l 311 706 z "},"｀":{"ha":1333,"x_min":0,"x_max":0,"o":"m 644 894 l 447 1153 l 740 1153 l 886 894 z "},"ａ":{"ha":1333,"x_min":0,"x_max":0,"o":"m 1031 522 l 1031 110 b 1054 -14 1031 65 1038 15 l 769 -14 b 750 82 760 8 751 43 b 540 -33 719 13 644 -33 b 278 219 385 -33 278 61 b 540 472 278 376 385 472 b 750 357 642 472 719 429 l 750 528 b 674 611 750 579 726 611 b 596 531 621 611 596 581 l 317 529 b 674 804 317 688 438 804 b 1031 522 906 804 1031 683 z m 557 219 b 654 139 557 167 592 139 b 750 219 717 139 750 167 b 654 300 750 272 717 300 b 557 219 592 300 557 272 z "},"ｂ":{"ha":1333,"x_min":0,"x_max":0,"o":"m 581 107 l 581 -14 l 301 -14 l 301 1104 l 581 1104 l 581 664 b 797 804 606 743 686 804 b 1086 386 983 804 1086 660 b 797 -33 1086 110 983 -33 b 581 107 686 -33 606 28 z m 581 386 b 693 165 581 210 617 165 b 807 386 768 165 807 207 b 693 604 807 561 768 604 b 581 386 618 604 581 560 z "},"ｃ":{"ha":1333,"x_min":0,"x_max":0,"o":"m 281 386 b 671 804 281 646 408 804 b 1053 486 899 804 1044 689 l 779 486 b 671 600 774 560 743 600 b 557 386 589 600 557 540 b 671 171 557 215 597 171 b 779 285 743 171 774 210 l 1053 285 b 671 -33 1044 82 899 -33 b 281 386 408 -33 281 124 z "},"ｄ":{"ha":1333,"x_min":0,"x_max":0,"o":"m 753 -14 l 753 107 b 536 -33 728 28 647 -33 b 246 386 349 -33 246 113 b 536 804 246 657 349 804 b 753 664 647 804 728 743 l 753 1104 l 1032 1104 l 1032 -14 z m 753 386 b 640 604 753 561 714 604 b 526 386 561 604 526 558 b 640 165 526 211 561 165 b 753 386 715 165 753 208 z "},"ｅ":{"ha":1333,"x_min":0,"x_max":0,"o":"m 1053 322 l 553 322 l 553 306 b 667 150 553 199 594 150 b 769 232 729 150 763 183 l 1040 232 b 667 -33 1010 51 867 -33 b 276 386 403 -33 276 125 b 667 804 276 644 401 804 b 1056 386 931 804 1056 644 b 1053 322 1056 361 1056 339 z m 553 469 l 779 469 l 779 471 b 667 621 779 569 733 621 b 553 469 593 621 560 569 z "},"ｆ":{"ha":1333,"x_min":0,"x_max":0,"o":"m 979 911 l 871 911 b 781 832 801 911 781 888 l 781 785 l 979 785 l 979 581 l 781 581 l 781 -14 l 501 -14 l 501 581 l 381 581 l 381 785 l 501 785 l 501 860 b 814 1115 501 1033 590 1115 b 979 1107 874 1115 938 1114 z "},"ｇ":{"ha":1333,"x_min":0,"x_max":0,"o":"m 781 386 b 668 604 781 561 742 604 b 554 386 589 604 554 558 b 668 165 554 211 589 165 b 781 386 743 165 781 208 z m 1060 785 l 1060 -67 b 688 -385 1060 -253 940 -385 b 317 -117 458 -385 338 -279 l 600 -117 b 689 -197 604 -171 635 -197 b 781 -86 751 -197 781 -162 l 781 107 b 564 -33 756 28 675 -33 b 274 386 376 -33 274 114 b 564 804 274 657 376 804 b 781 664 669 804 757 739 l 781 785 z "},"ｈ":{"ha":1333,"x_min":0,"x_max":0,"o":"m 1054 499 l 1054 -14 l 774 -14 l 774 496 b 692 604 774 572 747 604 b 586 449 625 604 586 547 l 586 -14 l 307 -14 l 307 1104 l 586 1104 l 586 663 b 801 804 614 747 692 804 b 1054 499 961 804 1054 706 z "},"ｉ":{"ha":1333,"x_min":0,"x_max":0,"o":"m 526 886 l 526 1104 l 806 1104 l 806 886 z m 526 -14 l 526 785 l 806 785 l 806 -14 z "},"ｊ":{"ha":1333,"x_min":0,"x_max":0,"o":"m 554 -47 l 554 785 l 833 785 l 833 -65 b 519 -361 833 -256 740 -361 b 388 -356 485 -361 419 -360 l 388 -160 l 454 -160 b 554 -47 524 -160 554 -126 z m 554 886 l 554 1104 l 833 1104 l 833 886 z "},"ｋ":{"ha":1333,"x_min":0,"x_max":0,"o":"m 310 -14 l 310 1104 l 589 1104 l 589 493 l 635 493 l 761 785 l 1049 785 l 863 401 l 1079 -14 l 790 -14 l 633 313 l 589 313 l 589 -14 z "},"ｌ":{"ha":1333,"x_min":0,"x_max":0,"o":"m 806 -14 l 526 -14 l 526 1104 l 806 1104 z "},"ｍ":{"ha":1333,"x_min":0,"x_max":0,"o":"m 992 -14 l 992 497 b 911 604 992 571 964 604 b 806 449 844 604 806 547 l 806 -14 l 526 -14 l 526 497 b 444 604 526 571 499 604 b 340 449 378 604 340 547 l 340 -14 l 61 -14 l 61 785 l 340 785 l 340 663 b 554 804 368 747 446 804 b 778 661 661 804 742 758 b 1017 804 818 747 899 804 b 1271 499 1181 804 1271 706 l 1271 -14 z "},"ｎ":{"ha":1333,"x_min":0,"x_max":0,"o":"m 1040 499 l 1040 -14 l 760 -14 l 760 496 b 678 604 760 572 733 604 b 572 449 611 604 572 547 l 572 -14 l 293 -14 l 293 785 l 572 785 l 572 663 b 788 804 600 747 678 804 b 1040 499 947 804 1040 706 z "},"ｏ":{"ha":1333,"x_min":0,"x_max":0,"o":"m 553 386 b 667 171 553 215 593 171 b 781 386 740 171 781 213 b 667 600 781 551 743 600 b 553 386 590 600 553 549 z m 276 386 b 667 804 276 646 404 804 b 1057 386 931 804 1057 646 b 667 -33 1057 124 931 -33 b 276 386 404 -33 276 124 z "},"ｐ":{"ha":1333,"x_min":0,"x_max":0,"o":"m 581 785 l 581 664 b 797 804 606 743 686 804 b 1086 386 983 804 1086 660 b 797 -33 1086 110 983 -33 b 581 107 686 -33 606 28 l 581 -361 l 301 -361 l 301 785 z m 581 386 b 693 165 581 210 617 165 b 807 386 768 165 807 207 b 693 604 807 561 768 604 b 581 386 618 604 581 560 z "},"ｑ":{"ha":1333,"x_min":0,"x_max":0,"o":"m 753 664 l 753 785 l 1032 785 l 1032 -361 l 753 -361 l 753 107 b 536 -33 728 28 647 -33 b 246 386 349 -33 246 113 b 536 804 246 657 349 804 b 753 664 647 804 728 743 z m 753 386 b 640 604 753 561 714 604 b 526 386 561 604 526 558 b 640 165 526 211 561 165 b 753 386 715 165 753 208 z "},"ｒ":{"ha":1333,"x_min":0,"x_max":0,"o":"m 903 572 b 707 353 781 572 707 497 l 707 -14 l 428 -14 l 428 785 l 707 785 l 707 622 b 906 804 726 743 793 804 b 960 797 929 804 949 803 l 957 571 b 903 572 942 572 926 572 z "},"ｓ":{"ha":1333,"x_min":0,"x_max":0,"o":"m 321 228 l 599 228 l 599 211 b 668 146 599 174 621 146 b 738 211 717 146 738 174 b 660 289 738 254 711 279 b 317 551 432 331 317 389 b 649 804 317 696 432 804 b 979 565 869 804 979 694 l 979 556 l 707 556 l 707 567 b 647 624 707 600 688 624 b 589 567 607 624 589 600 b 674 497 589 531 618 508 b 1015 231 897 454 1015 404 b 668 -33 1015 72 889 -33 b 321 228 435 -33 321 79 z "},"ｔ":{"ha":1333,"x_min":0,"x_max":0,"o":"m 763 581 l 763 289 b 889 178 763 199 790 178 l 969 178 l 969 -21 b 801 -25 931 -24 849 -25 b 482 257 564 -25 482 54 l 482 581 l 363 581 l 363 785 l 482 785 l 482 1011 l 763 1011 l 763 785 l 969 785 l 969 581 z "},"ｕ":{"ha":1333,"x_min":0,"x_max":0,"o":"m 293 272 l 293 785 l 574 785 l 574 275 b 656 165 574 197 600 165 b 761 322 722 165 761 224 l 761 785 l 1040 785 l 1040 -14 l 761 -14 l 761 108 b 546 -33 733 22 656 -33 b 293 272 386 -33 293 65 z "},"ｖ":{"ha":1333,"x_min":0,"x_max":0,"o":"m 807 -14 l 525 -14 l 249 785 l 533 785 l 667 281 l 797 785 l 1083 785 z "},"ｗ":{"ha":1333,"x_min":0,"x_max":0,"o":"m 567 785 l 765 785 l 907 282 l 1032 785 l 1315 785 l 1061 -14 l 794 -14 l 665 442 l 538 -14 l 271 -14 l 17 785 l 300 785 l 425 282 z "},"ｘ":{"ha":1333,"x_min":0,"x_max":0,"o":"m 779 -14 l 667 256 l 554 -14 l 268 -14 l 479 397 l 285 785 l 571 785 l 667 536 l 764 785 l 1050 785 l 856 397 l 1065 -14 z "},"ｙ":{"ha":1333,"x_min":0,"x_max":0,"o":"m 511 -72 l 531 -14 l 249 785 l 533 785 l 667 293 l 797 785 l 1083 785 l 778 -103 b 469 -361 706 -311 646 -361 b 344 -357 433 -361 379 -361 l 344 -158 l 404 -158 b 511 -72 456 -158 488 -140 z "},"ｚ":{"ha":1333,"x_min":0,"x_max":0,"o":"m 676 189 l 1003 189 l 1003 -14 l 331 -14 l 331 174 l 644 581 l 343 581 l 343 785 l 992 785 l 992 597 z "},"ㄱ":{"ha":1333,"x_min":0,"x_max":0,"o":"m 201 949 l 1118 949 l 1118 175 l 843 175 l 843 728 l 201 728 z "},"ㄲ":{"ha":1333,"x_min":0,"x_max":0,"o":"m 146 949 l 647 949 l 647 175 l 372 175 l 372 728 l 146 728 z m 694 949 l 1174 949 l 1174 175 l 899 175 l 899 728 l 694 728 z "},"ㄳ":{"ha":1333,"x_min":0,"x_max":0,"o":"m 125 949 l 613 949 l 613 175 l 338 175 l 338 728 l 125 728 z m 1063 949 l 1063 649 b 1196 394 1063 489 1092 432 l 1196 174 b 929 283 1096 176 989 222 b 660 174 871 221 760 179 l 660 394 b 793 649 760 429 793 482 l 793 949 z "},"ㄴ":{"ha":1333,"x_min":0,"x_max":0,"o":"m 1132 175 l 215 175 l 215 949 l 490 949 l 490 396 l 1132 396 z "},"ㄵ":{"ha":1333,"x_min":0,"x_max":0,"o":"m 576 396 l 576 175 l 143 175 l 143 949 l 418 949 l 418 396 z m 1183 949 l 1183 728 l 1044 728 l 1044 663 b 1192 394 1044 503 1090 432 l 1192 174 b 911 311 1086 179 968 243 b 628 174 856 242 733 182 l 628 394 b 775 663 725 429 775 496 l 775 728 l 635 728 l 635 949 z "},"ㄶ":{"ha":1333,"x_min":0,"x_max":0,"o":"m 564 869 l 756 869 l 756 1008 l 1031 1008 l 1031 869 l 1224 869 l 1224 676 l 564 676 z m 964 401 b 949 451 964 422 960 439 b 894 471 938 464 919 471 b 840 451 869 471 851 464 b 825 401 829 439 825 422 b 840 351 825 381 829 364 b 894 332 851 339 869 332 b 949 351 919 332 938 339 b 964 401 960 364 964 381 z m 576 396 l 576 175 l 143 175 l 143 949 l 418 949 l 418 396 z m 596 401 b 669 581 596 478 621 539 b 894 649 721 625 796 649 b 1119 581 993 649 1068 625 b 1193 401 1168 539 1193 478 b 1119 222 1193 325 1168 264 b 894 154 1068 178 993 154 b 669 222 796 154 721 178 b 596 401 621 264 596 325 z "},"ㄷ":{"ha":1333,"x_min":0,"x_max":0,"o":"m 490 396 l 1132 396 l 1132 175 l 215 175 l 215 949 l 1118 949 l 1118 728 l 490 728 z "},"ㄸ":{"ha":1333,"x_min":0,"x_max":0,"o":"m 954 396 l 1181 396 l 1181 175 l 679 175 l 679 949 l 1167 949 l 1167 728 l 954 728 z m 439 728 l 439 396 l 638 396 l 638 175 l 164 175 l 164 949 l 622 949 l 622 728 z "},"ㄹ":{"ha":1333,"x_min":0,"x_max":0,"o":"m 497 375 l 1139 375 l 1139 161 l 222 161 l 222 669 l 836 669 l 836 749 l 222 749 l 222 963 l 1111 963 l 1111 458 l 497 458 z "},"ㄺ":{"ha":1333,"x_min":0,"x_max":0,"o":"m 728 367 l 728 175 l 157 175 l 157 658 l 401 658 l 401 757 l 157 757 l 157 949 l 657 949 l 657 469 l 411 469 l 411 367 z m 1183 949 l 1183 175 l 911 175 l 911 736 l 707 736 l 707 949 z "},"ㄻ":{"ha":1333,"x_min":0,"x_max":0,"o":"m 692 949 l 1183 949 l 1183 175 l 692 175 z m 900 749 l 900 375 l 975 375 l 975 749 z m 644 367 l 644 175 l 157 175 l 157 658 l 374 658 l 374 757 l 157 757 l 157 949 l 629 949 l 629 469 l 411 469 l 411 367 z "},"ㄼ":{"ha":1333,"x_min":0,"x_max":0,"o":"m 975 949 l 1183 949 l 1183 175 l 692 175 l 692 949 l 900 949 l 900 740 l 975 740 z m 900 540 l 900 375 l 975 375 l 975 540 z m 644 367 l 644 175 l 157 175 l 157 658 l 374 658 l 374 757 l 157 757 l 157 949 l 629 949 l 629 469 l 411 469 l 411 367 z "},"ㄽ":{"ha":1333,"x_min":0,"x_max":0,"o":"m 638 367 l 638 175 l 157 175 l 157 658 l 374 658 l 374 757 l 157 757 l 157 949 l 629 949 l 629 469 l 411 469 l 411 367 z m 796 949 l 1067 949 l 1067 649 b 1196 394 1067 489 1092 432 l 1196 174 b 932 279 1096 176 993 221 b 667 174 875 219 767 179 l 667 394 b 796 649 767 429 796 482 z "},"ㄾ":{"ha":1333,"x_min":0,"x_max":0,"o":"m 946 367 l 1193 367 l 1193 175 l 692 175 l 692 949 l 1183 949 l 1183 757 l 946 757 l 946 658 l 1169 658 l 1169 469 l 946 469 z m 644 175 l 157 175 l 157 658 l 374 658 l 374 757 l 157 757 l 157 949 l 629 949 l 629 469 l 411 469 l 411 367 l 644 367 z "},"ㄿ":{"ha":1333,"x_min":0,"x_max":0,"o":"m 901 749 l 901 375 l 953 375 l 953 749 z m 1143 375 l 1190 375 l 1190 175 l 667 175 l 667 375 l 711 375 l 711 749 l 671 749 l 671 949 l 1183 949 l 1183 749 l 1143 749 z m 638 175 l 157 175 l 157 658 l 367 658 l 367 757 l 157 757 l 157 949 l 622 949 l 622 469 l 411 469 l 411 367 l 638 367 z "},"ㅀ":{"ha":1333,"x_min":0,"x_max":0,"o":"m 638 367 l 638 175 l 157 175 l 157 658 l 367 658 l 367 757 l 157 757 l 157 949 l 622 949 l 622 469 l 411 469 l 411 367 z m 647 869 l 783 869 l 783 1008 l 1058 1008 l 1058 869 l 1224 869 l 1224 676 l 647 676 z m 972 401 b 958 458 972 426 968 447 b 926 471 951 467 940 471 b 894 458 913 471 901 467 b 881 401 885 447 881 426 b 894 344 881 376 885 356 b 926 332 901 336 913 332 b 958 344 940 332 951 336 b 972 401 968 356 972 376 z m 651 401 b 711 572 651 475 672 531 b 926 649 758 622 832 649 b 1142 572 1021 649 1094 622 b 1201 401 1181 531 1201 475 b 1142 231 1201 328 1181 272 b 926 154 1094 181 1021 154 b 711 231 832 154 758 181 b 651 401 672 272 651 328 z "},"ㅁ":{"ha":1333,"x_min":0,"x_max":0,"o":"m 215 949 l 1118 949 l 1118 175 l 215 175 z m 843 728 l 490 728 l 490 396 l 843 396 z "},"ㅂ":{"ha":1333,"x_min":0,"x_max":0,"o":"m 490 754 l 843 754 l 843 949 l 1118 949 l 1118 175 l 215 175 l 215 949 l 490 949 z m 843 536 l 490 536 l 490 396 l 843 396 z "},"ㅃ":{"ha":1333,"x_min":0,"x_max":0,"o":"m 438 751 l 551 751 l 551 949 l 793 949 l 793 751 l 896 751 l 896 949 l 1146 949 l 1146 175 l 188 175 l 188 949 l 438 949 z m 896 542 l 793 542 l 793 385 l 896 385 z m 551 542 l 438 542 l 438 385 l 551 385 z "},"ㅄ":{"ha":1333,"x_min":0,"x_max":0,"o":"m 365 742 l 440 742 l 440 949 l 649 949 l 649 175 l 157 175 l 157 949 l 365 949 z m 365 544 l 365 375 l 440 375 l 440 544 z m 796 949 l 1067 949 l 1067 649 b 1196 394 1067 489 1092 432 l 1196 174 b 932 279 1096 176 993 221 b 667 174 875 219 767 179 l 667 394 b 796 649 767 429 796 482 z "},"ㅅ":{"ha":1333,"x_min":0,"x_max":0,"o":"m 665 408 b 164 167 565 279 367 183 l 164 394 b 526 836 407 443 526 578 l 526 963 l 801 963 l 801 836 b 1168 394 801 585 917 447 l 1168 167 b 665 408 976 183 761 279 z "},"ㅆ":{"ha":1333,"x_min":0,"x_max":0,"o":"m 665 174 b 424 364 576 208 475 288 b 100 169 357 272 215 192 l 100 396 b 285 764 222 446 285 519 l 285 949 l 560 949 l 560 764 b 665 440 560 563 603 488 b 769 764 729 490 769 564 l 769 949 l 1044 949 l 1044 764 b 1231 396 1044 519 1107 449 l 1231 169 b 907 364 1114 193 972 271 b 665 174 854 288 756 208 z "},"ㅇ":{"ha":1333,"x_min":0,"x_max":0,"o":"m 450 563 b 499 435 450 511 467 468 b 667 376 535 399 590 376 b 835 435 743 376 799 399 b 883 563 867 468 883 511 b 835 690 883 614 867 657 b 667 749 799 726 743 749 b 499 690 590 749 535 726 b 450 563 467 657 450 614 z m 175 563 b 304 851 175 683 224 782 b 667 969 393 928 521 969 b 1029 851 813 969 940 928 b 1158 563 1110 782 1158 683 b 1029 274 1158 442 1110 343 b 667 156 940 197 813 156 b 304 274 521 156 393 197 b 175 563 224 343 175 442 z "},"ㅈ":{"ha":1333,"x_min":0,"x_max":0,"o":"m 1138 728 l 807 728 b 1154 394 832 543 940 438 l 1154 167 b 665 389 963 182 761 274 b 178 167 565 274 381 182 l 178 394 b 521 728 386 436 496 538 l 194 728 l 194 949 l 1138 949 z "},"ㅉ":{"ha":1333,"x_min":0,"x_max":0,"o":"m 1204 728 l 1038 728 b 1214 396 1042 515 1099 447 l 1214 169 b 900 358 1094 193 963 268 b 665 174 849 282 756 210 b 431 358 576 210 481 282 b 117 169 367 269 231 192 l 117 396 b 292 728 228 444 288 515 l 144 728 l 144 949 l 1204 949 z m 763 728 l 567 728 b 665 440 569 557 606 489 b 763 728 726 490 760 558 z "},"ㅊ":{"ha":1333,"x_min":0,"x_max":0,"o":"m 1138 651 l 818 651 b 1154 394 857 513 964 433 l 1154 167 b 665 369 963 181 764 260 b 178 167 563 260 381 181 l 178 394 b 510 651 364 432 472 508 l 194 651 l 194 872 l 526 872 l 526 1042 l 801 1042 l 801 872 l 1138 872 z "},"ㅋ":{"ha":1333,"x_min":0,"x_max":0,"o":"m 215 949 l 1118 949 l 1118 175 l 843 175 l 843 397 b 533 379 750 383 640 379 l 215 379 l 215 599 l 535 599 b 843 614 638 599 749 601 l 843 728 l 215 728 z "},"ㅌ":{"ha":1333,"x_min":0,"x_max":0,"o":"m 497 375 l 1139 375 l 1139 161 l 222 161 l 222 963 l 1111 963 l 1111 749 l 497 749 l 497 669 l 1097 669 l 1097 458 l 497 458 z "},"ㅍ":{"ha":1333,"x_min":0,"x_max":0,"o":"m 751 593 l 751 728 l 579 728 l 579 396 l 731 396 b 751 593 747 450 751 519 z m 1024 728 l 1024 603 b 1001 396 1024 526 1019 451 l 1174 396 l 1174 175 l 160 175 l 160 396 l 307 396 l 307 728 l 188 728 l 188 949 l 1146 949 l 1146 728 z "},"ㅎ":{"ha":1333,"x_min":0,"x_max":0,"o":"m 156 917 l 525 917 l 525 1058 l 804 1058 l 804 917 l 1178 917 l 1178 706 l 156 706 z m 856 400 b 831 440 856 418 847 431 b 667 464 800 458 743 464 b 503 440 590 464 533 458 b 478 400 486 431 478 418 b 503 360 478 382 486 369 b 667 336 533 342 590 336 b 831 360 743 336 800 342 b 856 400 847 369 856 382 z m 208 400 b 308 592 208 486 246 549 b 667 672 392 649 518 672 b 1025 592 815 672 942 649 b 1125 400 1088 549 1125 486 b 1025 208 1125 314 1088 251 b 667 128 942 151 815 128 b 308 208 518 128 392 151 b 208 400 246 251 208 314 z "},"ㅏ":{"ha":1333,"x_min":0,"x_max":0,"o":"m 774 1207 l 774 710 l 975 710 l 975 482 l 774 482 l 774 -112 l 499 -112 l 499 1207 z "},"ㅐ":{"ha":1333,"x_min":0,"x_max":0,"o":"m 954 -112 l 711 -112 l 711 497 l 615 497 l 615 -99 l 379 -99 l 379 1200 l 615 1200 l 615 725 l 711 725 l 711 1207 l 954 1207 z "},"ㅑ":{"ha":1333,"x_min":0,"x_max":0,"o":"m 774 1207 l 774 919 l 975 919 l 975 694 l 774 694 l 774 465 l 975 465 l 975 242 l 774 242 l 774 -112 l 499 -112 l 499 1207 z "},"ㅒ":{"ha":1333,"x_min":0,"x_max":0,"o":"m 611 1200 l 611 935 l 715 935 l 715 1207 l 954 1207 l 954 -112 l 715 -112 l 715 240 l 611 240 l 611 -99 l 379 -99 l 379 1200 z m 715 464 l 715 711 l 611 711 l 611 464 z "},"ㅓ":{"ha":1333,"x_min":0,"x_max":0,"o":"m 553 710 l 553 1207 l 828 1207 l 828 -112 l 553 -112 l 553 482 l 351 482 l 351 710 z "},"ㅔ":{"ha":1333,"x_min":0,"x_max":0,"o":"m 429 497 l 254 497 l 254 724 l 429 724 l 429 1200 l 664 1200 l 664 -99 l 429 -99 z m 975 -112 l 732 -112 l 732 1207 l 975 1207 z "},"ㅕ":{"ha":1333,"x_min":0,"x_max":0,"o":"m 553 919 l 553 1207 l 828 1207 l 828 -112 l 553 -112 l 553 242 l 351 242 l 351 465 l 553 465 l 553 694 l 351 694 l 351 919 z "},"ㅖ":{"ha":1333,"x_min":0,"x_max":0,"o":"m 429 703 l 261 703 l 261 925 l 429 925 l 429 1200 l 664 1200 l 664 -99 l 429 -99 l 429 279 l 261 279 l 261 500 l 429 500 z m 975 -112 l 732 -112 l 732 1207 l 975 1207 z "},"ㅗ":{"ha":1333,"x_min":0,"x_max":0,"o":"m 78 189 l 78 414 l 531 414 l 531 921 l 806 921 l 806 414 l 1257 414 l 1257 189 z "},"ㅘ":{"ha":1333,"x_min":0,"x_max":0,"o":"m 318 639 l 593 639 l 593 219 l 653 219 b 860 272 761 219 817 232 l 860 1207 l 1135 1207 l 1135 710 l 1322 710 l 1322 482 l 1135 482 l 1135 -112 l 860 -112 l 860 57 b 631 -4 814 14 750 -4 l 54 -4 l 54 219 l 318 219 z "},"ㅙ":{"ha":1333,"x_min":0,"x_max":0,"o":"m 1211 -112 l 976 -112 l 976 500 l 915 500 l 915 -97 l 689 -97 l 689 42 b 485 -4 644 6 586 -4 l 68 -4 l 68 215 l 261 215 l 261 638 l 499 638 l 499 215 l 510 215 b 689 256 590 215 646 224 l 689 1200 l 915 1200 l 915 722 l 976 722 l 976 1207 l 1211 1207 z "},"ㅚ":{"ha":1333,"x_min":0,"x_max":0,"o":"m 1193 -112 l 918 -112 l 918 60 b 685 -4 872 14 808 -4 l 82 -4 l 82 219 l 364 219 l 364 639 l 639 639 l 639 219 l 707 219 b 918 275 817 219 874 233 l 918 1207 l 1193 1207 z "},"ㅛ":{"ha":1333,"x_min":0,"x_max":0,"o":"m 763 882 l 1035 882 l 1035 414 l 1257 414 l 1257 189 l 78 189 l 78 414 l 292 414 l 292 882 l 564 882 l 564 414 l 763 414 z "},"ㅜ":{"ha":1333,"x_min":0,"x_max":0,"o":"m 78 435 l 78 660 l 1257 660 l 1257 435 l 803 435 l 803 -37 l 528 -37 l 528 435 z "},"ㅝ":{"ha":1333,"x_min":0,"x_max":0,"o":"m 1207 1207 l 1207 -112 l 933 -112 l 933 60 l 685 60 l 685 282 l 933 282 l 933 1207 z m 663 367 l 592 367 l 592 -114 l 319 -114 l 319 367 l 82 367 l 82 592 l 668 592 b 896 615 761 592 839 600 l 896 401 b 663 367 838 375 760 367 z "},"ㅞ":{"ha":1333,"x_min":0,"x_max":0,"o":"m 976 1207 l 1211 1207 l 1211 -112 l 976 -112 z m 494 374 l 492 374 l 492 -114 l 250 -114 l 250 374 l 82 374 l 82 596 l 501 596 b 675 613 565 596 629 597 l 675 399 b 494 374 626 379 560 374 z m 708 69 l 543 69 l 543 288 l 708 288 l 708 1200 l 936 1200 l 936 -99 l 708 -99 z "},"ㅟ":{"ha":1333,"x_min":0,"x_max":0,"o":"m 656 344 l 603 344 l 603 -114 l 328 -114 l 328 344 l 68 344 l 68 567 l 678 567 b 919 610 786 567 863 575 l 919 1207 l 1193 1207 l 1193 -112 l 919 -112 l 919 393 b 656 344 863 356 781 344 z "},"ㅠ":{"ha":1333,"x_min":0,"x_max":0,"o":"m 775 435 l 561 435 l 561 -17 l 292 -17 l 292 435 l 78 435 l 78 660 l 1257 660 l 1257 435 l 1044 435 l 1044 -17 l 775 -17 z "},"ㅡ":{"ha":1333,"x_min":0,"x_max":0,"o":"m 78 189 l 78 417 l 1257 417 l 1257 189 z "},"ㅢ":{"ha":1333,"x_min":0,"x_max":0,"o":"m 1179 -112 l 904 -112 l 904 60 b 671 -4 858 14 794 -4 l 68 -4 l 68 219 l 693 219 b 904 275 803 219 860 233 l 904 1207 l 1179 1207 z "},"ㅣ":{"ha":1333,"x_min":0,"x_max":0,"o":"m 804 1207 l 804 -112 l 529 -112 l 529 1207 z "},"ㅥ":{"ha":1333,"x_min":0,"x_max":0,"o":"m 646 396 l 646 175 l 143 175 l 143 949 l 418 949 l 418 396 z m 1188 396 l 1188 175 l 685 175 l 685 949 l 960 949 l 960 396 z "},"ㅦ":{"ha":1333,"x_min":0,"x_max":0,"o":"m 946 396 l 1181 396 l 1181 175 l 671 175 l 671 949 l 1172 949 l 1172 728 l 946 728 z m 632 175 l 143 175 l 143 949 l 418 949 l 418 396 l 632 396 z "},"ㅧ":{"ha":1333,"x_min":0,"x_max":0,"o":"m 611 396 l 611 175 l 143 175 l 143 949 l 418 949 l 418 396 z m 793 949 l 1063 949 l 1063 649 b 1196 394 1063 489 1092 432 l 1196 174 b 929 283 1096 176 989 222 b 660 174 871 221 760 179 l 660 394 b 793 649 760 429 793 482 z "},"ㅨ":{"ha":1333,"x_min":0,"x_max":0,"o":"m 888 533 l 842 357 l 932 357 z m 143 175 l 143 949 l 418 949 l 418 396 l 611 396 l 611 263 l 888 1018 l 1196 175 z "},"ㅩ":{"ha":1333,"x_min":0,"x_max":0,"o":"m 499 367 l 499 175 l 89 175 l 89 658 l 240 658 l 240 757 l 89 757 l 89 949 l 447 949 l 447 469 l 294 469 l 294 367 z m 842 949 l 842 175 l 624 175 l 624 736 l 481 736 l 481 949 z m 961 949 l 1179 949 l 1179 649 b 1269 390 1179 486 1196 428 l 1269 174 b 1071 265 1190 176 1115 217 b 871 172 1026 215 947 178 l 871 390 b 961 649 940 425 961 479 z "},"ㅪ":{"ha":1333,"x_min":0,"x_max":0,"o":"m 974 396 l 1193 396 l 1193 175 l 699 175 l 699 949 l 1185 949 l 1185 728 l 974 728 z m 651 175 l 157 175 l 157 658 l 381 658 l 381 757 l 157 757 l 157 949 l 636 949 l 636 469 l 411 469 l 411 367 l 651 367 z "},"ㅫ":{"ha":1333,"x_min":0,"x_max":0,"o":"m 685 949 l 861 949 l 861 175 l 475 175 l 475 949 l 651 949 l 651 740 l 685 740 z m 651 540 l 651 375 l 685 375 l 685 540 z m 442 367 l 442 175 l 90 175 l 90 658 l 233 658 l 233 757 l 90 757 l 90 949 l 431 949 l 431 469 l 286 469 l 286 367 z m 972 949 l 1181 949 l 1181 649 b 1268 390 1181 486 1197 428 l 1268 174 b 1078 264 1188 176 1119 211 b 885 172 1036 211 961 179 l 885 390 b 972 649 953 425 972 479 z "},"ㅬ":{"ha":1333,"x_min":0,"x_max":0,"o":"m 908 533 l 867 357 l 949 357 z m 157 175 l 157 658 l 374 658 l 374 757 l 157 757 l 157 949 l 629 949 l 629 469 l 411 469 l 411 367 l 638 367 l 638 261 l 908 1018 l 1210 175 z "},"ㅭ":{"ha":1333,"x_min":0,"x_max":0,"o":"m 651 367 l 651 175 l 157 175 l 157 658 l 367 658 l 367 757 l 157 757 l 157 949 l 622 949 l 622 469 l 411 469 l 411 367 z m 661 949 l 1196 949 l 1196 753 l 661 753 z m 968 422 b 953 497 968 457 964 483 b 926 510 946 506 938 510 b 900 497 915 510 907 506 b 885 422 889 483 885 457 b 900 347 885 388 889 361 b 926 335 907 339 915 335 b 953 347 938 335 946 339 b 968 422 964 361 968 388 z m 658 422 b 757 640 658 519 694 594 b 926 690 801 672 858 690 b 1096 640 994 690 1051 672 b 1194 422 1158 594 1194 519 b 1096 204 1194 325 1158 250 b 926 154 1051 172 994 154 b 757 204 858 154 801 172 b 658 422 694 250 658 325 z "},"ㅮ":{"ha":1333,"x_min":0,"x_max":0,"o":"m 157 949 l 649 949 l 649 175 l 157 175 z m 365 749 l 365 375 l 440 375 l 440 749 z m 975 949 l 1183 949 l 1183 175 l 692 175 l 692 949 l 900 949 l 900 740 l 975 740 z m 900 540 l 900 375 l 975 375 l 975 540 z "},"ㅯ":{"ha":1333,"x_min":0,"x_max":0,"o":"m 157 949 l 649 949 l 649 175 l 157 175 z m 365 749 l 365 375 l 440 375 l 440 749 z m 796 949 l 1067 949 l 1067 649 b 1196 394 1067 489 1092 432 l 1196 174 b 932 279 1096 176 993 221 b 667 174 875 219 767 179 l 667 394 b 796 649 767 429 796 482 z "},"ㅰ":{"ha":1333,"x_min":0,"x_max":0,"o":"m 365 749 l 365 375 l 440 375 l 440 749 z m 908 533 l 867 357 l 949 357 z m 157 175 l 157 949 l 649 949 l 649 292 l 908 1018 l 1210 175 z "},"ㅱ":{"ha":1333,"x_min":0,"x_max":0,"o":"m 271 1092 l 1063 1092 l 1063 526 l 271 526 z m 813 882 l 521 882 l 521 736 l 813 736 z m 567 247 b 581 219 567 236 571 226 b 667 204 597 208 626 204 b 753 219 707 204 736 208 b 767 247 763 226 767 236 b 753 275 767 258 763 268 b 667 290 736 286 707 290 b 581 275 626 290 597 286 b 567 247 571 268 567 258 z m 322 247 b 397 415 322 318 350 374 b 667 496 458 468 553 496 b 936 415 781 496 875 468 b 1011 247 983 374 1011 318 b 936 79 1011 176 983 121 b 667 -1 875 26 781 -1 b 397 79 553 -1 458 26 b 322 247 350 121 322 176 z "},"ㅲ":{"ha":1333,"x_min":0,"x_max":0,"o":"m 1183 949 l 1183 175 l 911 175 l 911 736 l 714 736 l 714 949 z m 368 742 l 458 742 l 458 949 l 669 949 l 669 175 l 157 175 l 157 949 l 368 949 z m 368 544 l 368 375 l 458 375 l 458 544 z "},"ㅳ":{"ha":1333,"x_min":0,"x_max":0,"o":"m 365 742 l 447 742 l 447 949 l 656 949 l 656 175 l 157 175 l 157 949 l 365 949 z m 365 544 l 365 375 l 447 375 l 447 544 z m 978 396 l 1193 396 l 1193 175 l 706 175 l 706 949 l 1185 949 l 1185 728 l 978 728 z "},"ㅴ":{"ha":1333,"x_min":0,"x_max":0,"o":"m 333 949 l 510 949 l 510 175 l 124 175 l 124 949 l 300 949 l 300 740 l 333 740 z m 300 540 l 300 375 l 333 375 l 333 540 z m 614 949 l 822 949 l 822 649 b 903 390 822 486 838 426 l 903 174 b 719 264 825 178 760 213 b 533 172 679 213 607 181 l 533 390 b 614 649 596 424 614 479 z m 1200 949 l 1200 175 l 982 175 l 982 736 l 876 736 l 876 949 z "},"ㅵ":{"ha":1333,"x_min":0,"x_max":0,"o":"m 1097 396 l 1206 396 l 1206 175 l 899 175 l 899 949 l 1200 949 l 1200 728 l 1097 728 z m 510 949 l 510 175 l 124 175 l 124 949 l 300 949 l 300 740 l 333 740 l 333 949 z m 300 375 l 333 375 l 333 540 l 300 540 z m 806 949 l 806 649 b 882 390 806 486 822 424 l 882 174 b 706 264 807 178 743 214 b 526 172 668 214 597 181 l 526 390 b 603 649 583 421 603 479 l 603 949 z "},"ㅶ":{"ha":1333,"x_min":0,"x_max":0,"o":"m 1192 728 l 1074 728 l 1074 649 b 1196 394 1074 496 1103 429 l 1196 174 b 942 286 1097 178 1003 225 b 686 174 885 224 786 181 l 686 394 b 808 649 775 426 808 489 l 808 728 l 694 728 l 694 949 l 1192 949 z m 365 742 l 447 742 l 447 949 l 656 949 l 656 175 l 157 175 l 157 949 l 365 949 z m 365 544 l 365 375 l 447 375 l 447 544 z "},"ㅷ":{"ha":1333,"x_min":0,"x_max":0,"o":"m 957 367 l 1193 367 l 1193 175 l 704 175 l 704 949 l 1183 949 l 1183 757 l 957 757 l 957 658 l 1169 658 l 1169 469 l 957 469 z m 447 742 l 447 949 l 656 949 l 656 175 l 157 175 l 157 949 l 365 949 l 365 742 z m 365 375 l 447 375 l 447 544 l 365 544 z "},"ㅸ":{"ha":1333,"x_min":0,"x_max":0,"o":"m 521 990 l 813 990 l 813 1092 l 1063 1092 l 1063 526 l 271 526 l 271 1092 l 521 1092 z m 813 796 l 521 796 l 521 724 l 813 724 z m 567 247 b 581 219 567 236 571 226 b 667 204 597 208 626 204 b 753 219 707 204 736 208 b 767 247 763 226 767 236 b 753 275 767 258 763 268 b 667 290 736 286 707 290 b 581 275 626 290 597 286 b 567 247 571 268 567 258 z m 322 247 b 397 415 322 318 350 374 b 667 496 458 468 553 496 b 936 415 781 496 875 468 b 1011 247 983 374 1011 318 b 936 79 1011 176 983 121 b 667 -1 875 26 781 -1 b 397 79 553 -1 458 26 b 322 247 350 121 322 176 z "},"ㅹ":{"ha":1333,"x_min":0,"x_max":0,"o":"m 478 978 l 557 978 l 557 1092 l 789 1092 l 789 978 l 857 978 l 857 1092 l 1090 1092 l 1090 526 l 243 526 l 243 1092 l 478 1092 z m 857 796 l 789 796 l 789 711 l 857 711 z m 557 796 l 478 796 l 478 711 l 557 711 z m 567 247 b 581 219 567 236 571 226 b 667 204 597 208 626 204 b 753 219 707 204 736 208 b 767 247 763 226 767 236 b 753 275 767 258 763 268 b 667 290 736 286 707 290 b 581 275 626 290 597 286 b 567 247 571 268 567 258 z m 322 247 b 397 415 322 318 350 374 b 667 496 458 468 553 496 b 936 415 781 496 875 468 b 1011 247 983 374 1011 318 b 936 79 1011 176 983 121 b 667 -1 875 26 781 -1 b 397 79 553 -1 458 26 b 322 247 350 121 322 176 z "},"ㅺ":{"ha":1333,"x_min":0,"x_max":0,"o":"m 674 949 l 1161 949 l 1161 175 l 886 175 l 886 728 l 674 728 z m 571 949 l 571 649 b 704 394 571 489 600 432 l 704 174 b 438 283 604 176 497 222 b 168 174 379 221 268 179 l 168 394 b 301 649 268 429 301 482 l 301 949 z "},"ㅻ":{"ha":1333,"x_min":0,"x_max":0,"o":"m 1174 396 l 1174 175 l 706 175 l 706 949 l 978 949 l 978 396 z m 269 949 l 540 949 l 540 649 b 669 394 540 489 565 432 l 669 174 b 406 279 569 176 467 221 b 140 174 349 219 240 179 l 140 394 b 269 649 240 429 269 482 z "},"ㅼ":{"ha":1333,"x_min":0,"x_max":0,"o":"m 254 949 l 525 949 l 525 649 b 654 394 525 489 550 432 l 654 174 b 390 279 554 176 451 221 b 125 174 333 219 225 179 l 125 394 b 254 649 225 429 254 482 z m 961 396 l 1181 396 l 1181 175 l 686 175 l 686 949 l 1172 949 l 1172 728 l 961 728 z "},"ㅽ":{"ha":1333,"x_min":0,"x_max":0,"o":"m 254 949 l 525 949 l 525 649 b 654 394 525 489 550 432 l 654 174 b 390 279 554 176 451 221 b 125 174 333 219 225 179 l 125 394 b 254 649 225 429 254 482 z m 900 742 l 975 742 l 975 949 l 1183 949 l 1183 175 l 692 175 l 692 949 l 900 949 z m 900 544 l 900 375 l 975 375 l 975 544 z "},"ㅾ":{"ha":1333,"x_min":0,"x_max":0,"o":"m 1197 728 l 1044 728 b 1214 396 1049 515 1101 447 l 1214 169 b 907 358 1094 193 969 268 b 665 174 856 282 758 210 b 424 358 574 210 474 282 b 117 169 360 269 231 192 l 117 396 b 285 750 229 446 285 519 l 285 949 l 560 949 l 560 750 b 665 440 560 563 600 490 b 769 728 729 490 767 558 l 638 728 l 638 949 l 1197 949 z "},"ㅿ":{"ha":1333,"x_min":0,"x_max":0,"o":"m 146 175 l 664 1046 l 1189 175 z m 663 625 l 522 374 l 810 374 z "},"ㆀ":{"ha":1333,"x_min":0,"x_max":0,"o":"m 338 563 b 365 378 338 472 343 406 b 396 363 374 368 383 363 b 426 378 408 363 418 368 b 454 563 449 406 454 472 b 426 747 454 653 449 719 b 396 763 418 757 408 763 b 365 747 383 763 374 757 b 338 563 343 719 338 653 z m 129 563 b 249 915 129 722 165 850 b 396 963 288 946 336 963 b 543 915 456 963 504 946 b 663 563 626 850 663 722 b 543 210 663 403 626 275 b 396 163 504 179 456 163 b 249 210 336 163 288 179 b 129 563 165 275 129 403 z m 885 563 b 913 378 885 472 890 406 b 943 363 921 368 931 363 b 974 378 956 363 965 368 b 1001 563 996 406 1001 472 b 974 747 1001 653 996 719 b 943 763 965 757 956 763 b 913 747 931 763 921 757 b 885 563 890 719 885 653 z m 676 563 b 796 915 676 722 713 850 b 943 963 835 946 883 963 b 1090 915 1003 963 1051 946 b 1210 563 1174 850 1210 722 b 1090 210 1210 403 1174 275 b 943 163 1051 179 1003 163 b 796 210 883 163 835 179 b 676 563 713 275 676 403 z "},"ㆁ":{"ha":1333,"x_min":0,"x_max":0,"o":"m 806 1051 l 806 819 b 1044 721 901 804 983 771 b 1157 479 1115 663 1157 582 b 1044 238 1157 376 1115 296 b 665 128 956 164 819 128 b 286 238 511 128 375 164 b 174 479 215 296 174 376 b 286 721 174 582 215 663 b 526 819 347 771 431 804 l 526 1051 z m 449 479 b 485 390 449 440 460 411 b 665 346 519 360 581 346 b 846 390 750 346 811 360 b 882 479 871 411 882 440 b 846 568 882 518 871 547 b 665 613 811 599 750 613 b 485 568 581 613 519 599 b 449 479 460 547 449 518 z "},"ㆂ":{"ha":1333,"x_min":0,"x_max":0,"o":"m 540 983 l 540 778 b 575 756 553 772 564 764 b 676 486 642 701 676 607 b 669 396 676 454 674 424 b 796 649 767 431 796 483 l 796 949 l 1067 949 l 1067 649 b 1196 394 1067 489 1092 432 l 1196 174 b 932 279 1096 176 993 221 b 667 174 875 219 767 179 l 667 383 b 575 217 653 311 621 254 b 403 163 532 182 474 163 b 231 217 332 163 274 182 b 129 486 164 271 129 365 b 231 756 129 607 164 701 b 265 778 242 764 253 772 l 265 983 z m 356 486 b 374 363 356 422 360 382 b 403 349 381 353 390 349 b 432 363 415 349 425 353 b 450 486 446 382 450 422 b 432 610 450 550 446 590 b 403 624 425 619 415 624 b 374 610 390 624 381 619 b 356 486 360 590 356 550 z "},"ㆃ":{"ha":1333,"x_min":0,"x_max":0,"o":"m 533 983 l 533 778 b 568 756 546 772 557 764 b 669 486 635 701 669 607 b 568 217 669 365 635 271 b 396 163 525 182 467 163 b 224 217 325 163 267 182 b 122 486 157 271 122 365 b 224 756 122 607 157 701 b 258 778 235 764 246 772 l 258 983 z m 349 486 b 367 363 349 422 353 382 b 396 349 374 353 383 349 b 425 363 408 349 418 353 b 443 486 439 382 443 422 b 425 610 443 550 439 590 b 396 624 418 619 408 624 b 367 610 383 624 374 619 b 349 486 353 590 349 550 z m 917 533 l 875 357 l 957 357 z m 917 1018 l 1218 175 l 615 175 z "},"ㆄ":{"ha":1333,"x_min":0,"x_max":0,"o":"m 215 526 l 215 733 l 350 733 l 350 885 l 243 885 l 243 1092 l 1090 1092 l 1090 885 l 988 885 l 988 829 b 975 733 988 797 985 761 l 1118 733 l 1118 526 z m 592 885 l 592 733 l 735 733 b 746 818 744 757 746 788 l 746 885 z m 567 247 b 581 219 567 236 571 226 b 667 204 597 208 626 204 b 753 219 707 204 736 208 b 767 247 763 226 767 236 b 753 275 767 258 763 268 b 667 290 736 286 707 290 b 581 275 626 290 597 286 b 567 247 571 268 567 258 z m 322 247 b 397 415 322 318 350 374 b 667 496 458 468 553 496 b 936 415 781 496 875 468 b 1011 247 983 374 1011 318 b 936 79 1011 176 983 121 b 667 -1 875 26 781 -1 b 397 79 553 -1 458 26 b 322 247 350 121 322 176 z "},"ㆅ":{"ha":1333,"x_min":0,"x_max":0,"o":"m 682 869 l 790 869 l 790 1008 l 1065 1008 l 1065 869 l 1210 869 l 1210 676 l 682 676 z m 969 401 b 957 461 969 429 967 450 b 933 471 951 468 943 471 b 910 461 924 471 915 468 b 897 401 900 450 897 429 b 910 342 897 374 900 353 b 933 332 915 335 924 332 b 957 342 943 332 951 335 b 969 401 967 353 969 374 z m 679 401 b 754 590 679 482 704 547 b 933 649 797 628 857 649 b 1113 590 1010 649 1069 628 b 1188 401 1163 547 1188 482 b 1113 213 1188 321 1163 256 b 933 154 1069 175 1010 154 b 754 213 857 154 797 175 b 679 401 704 256 679 321 z m 543 869 l 651 869 l 651 676 l 124 676 l 124 869 l 268 869 l 268 1008 l 543 1008 z m 364 401 b 376 342 364 374 367 353 b 400 332 382 335 390 332 b 424 342 410 332 418 335 b 436 401 433 353 436 374 b 424 461 436 429 433 450 b 400 471 418 468 410 471 b 376 461 390 471 382 468 b 364 401 367 450 364 429 z m 654 401 b 579 213 654 321 629 256 b 400 154 536 175 476 154 b 221 213 324 154 264 175 b 146 401 171 256 146 321 b 221 590 146 482 171 547 b 400 649 264 628 324 649 b 579 590 476 649 536 628 b 654 401 629 547 654 482 z "},"ㆆ":{"ha":1333,"x_min":0,"x_max":0,"o":"m 201 949 l 1132 949 l 1132 736 l 201 736 z m 826 431 b 808 471 826 447 821 461 b 667 497 786 489 740 497 b 525 471 593 497 547 489 b 507 431 513 461 507 447 b 525 390 507 414 513 400 b 667 364 547 372 593 364 b 808 390 740 364 786 372 b 826 431 821 400 826 414 z m 243 431 b 329 617 243 511 275 574 b 667 706 406 679 528 706 b 1004 617 806 706 928 679 b 1090 431 1058 574 1090 511 b 1004 244 1090 350 1058 288 b 667 156 928 182 806 156 b 329 244 528 156 406 182 b 243 431 275 288 243 350 z "},"ㆇ":{"ha":1333,"x_min":0,"x_max":0,"o":"m 151 639 l 419 639 l 419 217 l 499 217 l 499 639 l 767 639 l 767 222 b 874 269 814 229 846 244 l 874 1207 l 1149 1207 l 1149 918 l 1322 918 l 1322 690 l 1149 690 l 1149 488 l 1322 488 l 1322 260 l 1149 260 l 1149 -112 l 874 -112 l 874 57 b 644 -4 828 14 764 -4 l 54 -4 l 54 217 l 151 217 z "},"ㆈ":{"ha":1333,"x_min":0,"x_max":0,"o":"m 936 1200 l 936 914 l 1007 914 l 1007 1207 l 1239 1207 l 1239 -112 l 1007 -112 l 1007 267 l 936 267 l 936 -97 l 713 -97 l 713 42 b 508 -4 668 6 610 -4 l 68 -4 l 68 213 l 160 213 l 160 638 l 388 638 l 388 213 l 439 213 l 439 638 l 667 638 l 667 229 b 713 253 683 235 699 243 l 713 1200 z m 936 694 l 936 486 l 1007 486 l 1007 694 z "},"ㆉ":{"ha":1333,"x_min":0,"x_max":0,"o":"m 1207 -112 l 932 -112 l 932 60 b 699 -4 886 14 822 -4 l 82 -4 l 82 217 l 219 217 l 219 639 l 489 639 l 489 217 l 567 217 l 567 639 l 836 639 l 836 225 b 932 272 878 233 907 249 l 932 1207 l 1207 1207 z "},"ㆊ":{"ha":1333,"x_min":0,"x_max":0,"o":"m 1221 1207 l 1221 -112 l 954 -112 l 954 -46 l 754 -46 l 754 160 l 954 160 l 954 215 l 754 215 l 754 421 l 954 421 l 954 1207 z m 463 453 l 415 453 l 415 -114 l 167 -114 l 167 453 l 68 453 l 68 675 l 689 675 b 917 699 782 675 860 683 l 917 488 b 711 453 864 464 796 454 l 711 -114 l 463 -114 z "},"ㆋ":{"ha":1333,"x_min":0,"x_max":0,"o":"m 1011 1207 l 1239 1207 l 1239 -112 l 1011 -112 z m 392 449 l 353 449 l 353 -114 l 139 -114 l 139 449 l 68 449 l 68 665 l 529 665 b 703 682 593 665 657 667 l 703 474 b 606 453 675 463 642 456 l 606 -114 l 392 -114 z m 750 222 l 640 222 l 640 426 l 750 426 l 750 1200 l 971 1200 l 971 -99 l 750 -99 l 750 -28 l 640 -28 l 640 176 l 750 176 z "},"ㆌ":{"ha":1333,"x_min":0,"x_max":0,"o":"m 550 372 l 472 372 l 472 -114 l 207 -114 l 207 372 l 68 372 l 68 594 l 692 594 b 933 638 800 594 876 603 l 933 1207 l 1207 1207 l 1207 -112 l 933 -112 l 933 421 b 815 381 903 400 864 388 l 815 -114 l 550 -114 z "},"ㆍ":{"ha":1333,"x_min":0,"x_max":0,"o":"m 807 717 l 807 440 l 525 440 l 525 717 z "},"ㆎ":{"ha":1333,"x_min":0,"x_max":0,"o":"m 613 717 l 613 440 l 331 440 l 331 717 z m 978 1207 l 978 -112 l 703 -112 l 703 1207 z "},"ⅰ":{"ha":1333,"x_min":0,"x_max":0,"o":"m 526 886 l 526 1104 l 806 1104 l 806 886 z m 526 -14 l 526 785 l 806 785 l 806 -14 z "},"ⅱ":{"ha":1333,"x_min":0,"x_max":0,"o":"m 339 886 l 339 1104 l 604 1104 l 604 886 z m 339 -14 l 339 785 l 604 785 l 604 -14 z m 728 886 l 728 1104 l 993 1104 l 993 886 z m 728 -14 l 728 785 l 993 785 l 993 -14 z "},"ⅲ":{"ha":1333,"x_min":0,"x_max":0,"o":"m 204 886 l 204 1104 l 461 1104 l 461 886 z m 204 -14 l 204 785 l 461 785 l 461 -14 z m 538 886 l 538 1104 l 794 1104 l 794 886 z m 538 -14 l 538 785 l 794 785 l 794 -14 z m 871 886 l 871 1104 l 1128 1104 l 1128 886 z m 871 -14 l 871 785 l 1128 785 l 1128 -14 z "},"ⅳ":{"ha":1333,"x_min":0,"x_max":0,"o":"m 197 886 l 197 1104 l 454 1104 l 454 886 z m 197 -14 l 197 785 l 454 785 l 454 -14 z m 1011 -14 l 715 -14 l 474 785 l 744 785 l 864 282 l 981 785 l 1253 785 z "},"ⅴ":{"ha":1333,"x_min":0,"x_max":0,"o":"m 807 -14 l 525 -14 l 249 785 l 533 785 l 667 281 l 797 785 l 1083 785 z "},"ⅵ":{"ha":1333,"x_min":0,"x_max":0,"o":"m 629 -14 l 333 -14 l 92 785 l 363 785 l 482 282 l 599 785 l 871 785 z m 899 886 l 899 1104 l 1156 1104 l 1156 886 z m 899 -14 l 899 785 l 1156 785 l 1156 -14 z "},"ⅶ":{"ha":1333,"x_min":0,"x_max":0,"o":"m 513 -14 l 206 -14 l 36 785 l 294 785 l 360 282 l 422 785 l 682 785 z m 997 886 l 997 1104 l 1242 1104 l 1242 886 z m 997 -14 l 997 785 l 1242 785 l 1242 -14 z m 696 886 l 696 1104 l 940 1104 l 940 886 z m 696 -14 l 696 785 l 940 785 l 940 -14 z "},"ⅷ":{"ha":1333,"x_min":0,"x_max":0,"o":"m 440 -14 l 106 -14 l 1 785 l 236 785 l 274 268 l 308 785 l 544 785 z m 815 886 l 815 1104 l 1039 1104 l 1039 886 z m 815 -14 l 815 785 l 1039 785 l 1039 -14 z m 549 886 l 549 1104 l 772 1104 l 772 886 z m 549 -14 l 549 785 l 772 785 l 772 -14 z m 1081 886 l 1081 1104 l 1304 1104 l 1304 886 z m 1081 -14 l 1081 785 l 1304 785 l 1304 -14 z "},"ⅸ":{"ha":1333,"x_min":0,"x_max":0,"o":"m 469 -14 l 721 401 l 489 785 l 757 785 l 854 622 l 953 785 l 1219 785 l 989 401 l 1239 -14 l 971 -14 l 854 179 l 738 -14 z m 197 886 l 197 1104 l 454 1104 l 454 886 z m 197 -14 l 197 785 l 454 785 l 454 -14 z "},"ⅹ":{"ha":1333,"x_min":0,"x_max":0,"o":"m 779 -14 l 667 256 l 554 -14 l 268 -14 l 479 397 l 285 785 l 571 785 l 667 536 l 764 785 l 1050 785 l 856 397 l 1065 -14 z "},"Ⅰ":{"ha":1333,"x_min":0,"x_max":0,"o":"m 901 -14 l 431 -14 l 431 224 l 515 224 l 515 867 l 431 867 l 431 1104 l 901 1104 l 901 867 l 817 867 l 817 224 l 901 224 z "},"Ⅱ":{"ha":1333,"x_min":0,"x_max":0,"o":"m 640 -14 l 221 -14 l 221 217 l 292 217 l 292 874 l 221 874 l 221 1104 l 640 1104 l 640 874 l 569 874 l 569 217 l 640 217 z m 1113 -14 l 693 -14 l 693 217 l 764 217 l 764 874 l 693 874 l 693 1104 l 1113 1104 l 1113 874 l 1042 874 l 1042 217 l 1113 217 z "},"Ⅲ":{"ha":1333,"x_min":0,"x_max":0,"o":"m 460 -14 l 101 -14 l 101 217 l 153 217 l 153 874 l 101 874 l 101 1104 l 460 1104 l 460 874 l 408 874 l 408 217 l 460 217 z m 844 -14 l 486 -14 l 486 217 l 538 217 l 538 874 l 486 874 l 486 1104 l 844 1104 l 844 874 l 793 874 l 793 217 l 844 217 z m 1231 -14 l 872 -14 l 872 217 l 924 217 l 924 874 l 872 874 l 872 1104 l 1231 1104 l 1231 874 l 1179 874 l 1179 217 l 1231 217 z "},"Ⅳ":{"ha":1333,"x_min":0,"x_max":0,"o":"m 878 268 l 1000 1104 l 1272 1104 l 1058 -14 l 699 -14 l 485 1104 l 756 1104 z m 111 -14 l 111 217 l 163 217 l 163 874 l 111 874 l 111 1104 l 469 1104 l 469 874 l 418 874 l 418 217 l 469 217 l 469 -14 z "},"Ⅴ":{"ha":1333,"x_min":0,"x_max":0,"o":"m 818 -14 l 515 -14 l 163 1104 l 464 1104 l 667 326 l 868 1104 l 1171 1104 z "},"Ⅵ":{"ha":1333,"x_min":0,"x_max":0,"o":"m 328 1104 l 450 268 l 572 1104 l 843 1104 l 629 -14 l 269 -14 l 56 1104 z m 1217 -14 l 858 -14 l 858 217 l 910 217 l 910 874 l 858 874 l 858 1104 l 1217 1104 l 1217 874 l 1165 874 l 1165 217 l 1217 217 z "},"Ⅶ":{"ha":1333,"x_min":0,"x_max":0,"o":"m 1289 -14 l 988 -14 l 988 210 l 1022 210 l 1022 881 l 988 881 l 988 1104 l 1289 1104 l 1289 881 l 1254 881 l 1254 210 l 1289 210 z m 960 -14 l 658 -14 l 658 210 l 693 210 l 693 881 l 658 881 l 658 1104 l 960 1104 l 960 881 l 925 881 l 925 210 l 960 210 z m 335 282 l 404 1104 l 642 1104 l 492 -14 l 179 -14 l 29 1104 l 265 1104 z "},"Ⅷ":{"ha":1333,"x_min":0,"x_max":0,"o":"m 1306 -14 l 1054 -14 l 1054 208 l 1076 208 l 1076 882 l 1054 882 l 1054 1104 l 1306 1104 l 1306 882 l 1283 882 l 1283 208 l 1306 208 z m 1026 -14 l 775 -14 l 775 208 l 797 208 l 797 882 l 775 882 l 775 1104 l 1026 1104 l 1026 882 l 1004 882 l 1004 208 l 1026 208 z m 749 -14 l 497 -14 l 497 208 l 519 208 l 519 882 l 497 882 l 497 1104 l 749 1104 l 749 882 l 726 882 l 726 208 l 749 208 z m 244 254 l 274 1104 l 488 1104 l 390 -14 l 100 -14 l 3 1104 l 215 1104 z "},"Ⅸ":{"ha":1333,"x_min":0,"x_max":0,"o":"m 97 -14 l 97 217 l 149 217 l 149 874 l 97 874 l 97 1104 l 456 1104 l 456 874 l 404 874 l 404 217 l 456 217 l 456 -8 l 736 560 l 467 1104 l 733 1104 l 869 829 l 1004 1104 l 1271 1104 l 1003 560 l 1285 -14 l 1018 -14 l 869 289 l 719 -14 z "},"Ⅹ":{"ha":1333,"x_min":0,"x_max":0,"o":"m 1156 -14 l 847 -14 l 667 389 l 486 -14 l 176 -14 l 464 564 l 200 1104 l 510 1104 l 667 736 l 822 1104 l 1132 1104 l 868 564 z "},"Α":{"ha":1028,"x_min":0,"x_max":0,"o":"m 363 1104 l 665 1104 l 1018 -14 l 715 -14 l 669 165 l 357 165 l 311 -14 l 10 -14 z m 613 390 l 514 779 l 414 390 z "},"Β":{"ha":957,"x_min":0,"x_max":0,"o":"m 599 772 b 485 888 599 856 561 888 l 369 888 l 369 657 l 485 657 b 599 772 561 657 599 689 z m 526 -14 l 68 -14 l 68 1104 l 515 1104 b 892 796 765 1104 892 996 b 735 569 892 678 832 604 b 922 317 850 532 922 442 b 526 -14 922 94 782 -14 z m 621 332 b 501 461 621 422 583 461 l 369 461 l 369 203 l 501 203 b 621 332 583 203 621 242 z "},"Γ":{"ha":808,"x_min":0,"x_max":0,"o":"m 68 1104 l 797 1104 l 797 865 l 369 865 l 369 -14 l 68 -14 z "},"Δ":{"ha":1028,"x_min":0,"x_max":0,"o":"m 363 1104 l 665 1104 l 1018 -14 l 10 -14 z m 656 211 l 514 754 l 369 211 z "},"Ε":{"ha":849,"x_min":0,"x_max":0,"o":"m 68 -14 l 68 1104 l 796 1104 l 796 865 l 369 865 l 369 679 l 739 679 l 739 439 l 369 439 l 369 224 l 804 224 l 804 -14 z "},"Ζ":{"ha":872,"x_min":0,"x_max":0,"o":"m 39 208 l 463 865 l 56 865 l 56 1104 l 825 1104 l 825 881 l 401 224 l 833 224 l 833 -14 l 39 -14 z "},"Η":{"ha":979,"x_min":0,"x_max":0,"o":"m 610 -14 l 610 439 l 369 439 l 369 -14 l 68 -14 l 68 1104 l 369 1104 l 369 679 l 610 679 l 610 1104 l 911 1104 l 911 -14 z "},"Θ":{"ha":1033,"x_min":0,"x_max":0,"o":"m 683 546 b 639 824 683 697 672 774 b 517 883 610 865 571 883 b 396 824 463 883 425 865 b 350 546 361 774 350 697 b 396 265 350 392 361 317 b 517 206 425 224 463 206 b 639 265 571 206 610 224 b 683 546 672 317 683 392 z m 985 546 b 864 101 985 354 954 206 b 517 -33 785 11 667 -33 b 171 101 367 -33 250 11 b 49 546 79 206 49 354 b 171 989 49 735 79 885 b 517 1124 250 1079 367 1124 b 864 989 667 1124 785 1079 b 985 546 954 885 985 735 z m 406 456 l 406 633 l 626 633 l 626 456 z "},"Ι":{"ha":436,"x_min":0,"x_max":0,"o":"m 369 1104 l 369 -14 l 68 -14 l 68 1104 z "},"Κ":{"ha":985,"x_min":0,"x_max":0,"o":"m 953 1104 l 692 560 l 993 -14 l 669 -14 l 447 439 l 369 439 l 369 -14 l 68 -14 l 68 1104 l 369 1104 l 369 679 l 447 679 l 633 1104 z "},"Λ":{"ha":1028,"x_min":0,"x_max":0,"o":"m 363 1104 l 665 1104 l 1018 -14 l 715 -14 l 514 754 l 311 -14 l 10 -14 z "},"Μ":{"ha":1313,"x_min":0,"x_max":0,"o":"m 765 -14 l 547 -14 l 357 492 l 357 -14 l 68 -14 l 68 1104 l 347 1104 l 657 283 l 967 1104 l 1244 1104 l 1244 -14 l 956 -14 l 956 492 z "},"Ν":{"ha":994,"x_min":0,"x_max":0,"o":"m 636 -14 l 358 597 l 358 -14 l 68 -14 l 68 1104 l 358 1104 l 636 492 l 636 1104 l 926 1104 l 926 -14 z "},"Ξ":{"ha":925,"x_min":0,"x_max":0,"o":"m 51 865 l 51 1104 l 872 1104 l 872 865 z m 44 -14 l 44 224 l 881 224 l 881 -14 z m 110 439 l 110 679 l 815 679 l 815 439 z "},"Ο":{"ha":1033,"x_min":0,"x_max":0,"o":"m 683 546 b 639 824 683 696 672 774 b 517 883 610 865 571 883 b 396 824 463 883 425 865 b 350 546 361 774 350 696 b 396 265 350 393 361 317 b 517 206 425 224 463 206 b 639 265 571 206 610 224 b 683 546 672 317 683 393 z m 985 546 b 864 101 985 354 954 206 b 517 -33 785 11 667 -33 b 171 101 367 -33 250 11 b 49 546 79 206 49 354 b 171 989 49 735 79 885 b 517 1124 250 1079 367 1124 b 864 989 667 1124 785 1079 b 985 546 954 885 985 735 z "},"Π":{"ha":979,"x_min":0,"x_max":0,"o":"m 610 -14 l 610 865 l 369 865 l 369 -14 l 68 -14 l 68 1104 l 911 1104 l 911 -14 z "},"Ρ":{"ha":951,"x_min":0,"x_max":0,"o":"m 538 361 l 369 361 l 369 -14 l 68 -14 l 68 1104 l 538 1104 b 922 732 788 1104 922 968 b 538 361 922 494 788 361 z m 369 600 l 492 600 b 621 732 576 600 621 640 b 492 865 621 826 576 865 l 369 865 z "},"Σ":{"ha":851,"x_min":0,"x_max":0,"o":"m 49 228 l 267 563 l 49 863 l 49 1104 l 815 1104 l 815 865 l 397 865 l 590 596 l 590 528 l 396 224 l 815 224 l 815 -14 l 49 -14 z "},"Τ":{"ha":892,"x_min":0,"x_max":0,"o":"m 15 865 l 15 1104 l 876 1104 l 876 865 l 597 865 l 597 -14 l 296 -14 l 296 865 z "},"Υ":{"ha":1008,"x_min":0,"x_max":0,"o":"m 504 674 l 686 1104 l 993 1104 l 656 426 l 656 -14 l 353 -14 l 353 426 l 15 1104 l 322 1104 z "},"Φ":{"ha":1282,"x_min":0,"x_max":0,"o":"m 490 368 l 490 721 b 324 546 379 718 324 664 b 490 368 324 425 379 372 z m 792 721 l 792 368 b 958 546 904 372 958 425 b 792 721 958 664 904 718 z m 490 1104 l 792 1104 l 792 949 b 1247 546 1053 931 1247 822 b 792 142 1247 267 1053 160 l 792 -14 l 490 -14 l 490 142 b 35 546 229 160 35 267 b 490 949 35 822 229 931 z "},"Χ":{"ha":1011,"x_min":0,"x_max":0,"o":"m 994 -14 l 686 -14 l 506 389 l 325 -14 l 15 -14 l 303 564 l 39 1104 l 349 1104 l 506 736 l 661 1104 l 971 1104 l 707 564 z "},"Ψ":{"ha":1193,"x_min":0,"x_max":0,"o":"m 454 1104 l 740 1104 l 740 469 b 847 631 806 476 847 517 l 847 1104 l 1138 1104 l 1138 640 b 740 231 1138 385 994 264 l 740 -14 l 454 -14 l 454 231 b 56 640 199 264 56 385 l 56 1104 l 346 1104 l 346 631 b 454 469 346 517 388 476 z "},"Ω":{"ha":1039,"x_min":0,"x_max":0,"o":"m 519 1124 b 867 989 668 1124 789 1079 b 988 607 957 885 988 754 b 801 224 988 414 924 288 l 968 224 l 968 -14 l 558 -14 l 558 224 b 686 546 643 267 686 351 b 642 824 686 697 676 772 b 519 883 613 865 574 883 b 397 824 465 883 426 865 b 353 546 363 772 353 697 b 481 224 353 351 396 267 l 481 -14 l 71 -14 l 71 224 l 238 224 b 51 607 115 288 51 414 b 172 989 51 754 82 885 b 519 1124 250 1079 371 1124 z "},"α":{"ha":931,"x_min":0,"x_max":0,"o":"m 546 386 b 433 604 546 561 507 604 b 319 386 354 604 319 558 b 433 165 319 211 354 165 b 546 386 508 165 546 208 z m 546 107 b 329 -33 521 28 440 -33 b 39 386 139 -33 39 114 b 329 804 39 656 139 804 b 546 664 440 804 521 743 l 546 785 l 825 785 l 825 238 b 885 174 825 189 843 174 l 908 174 l 908 -25 b 765 -31 863 -28 815 -31 b 546 107 615 -31 564 22 z "},"β":{"ha":900,"x_min":0,"x_max":0,"o":"m 817 807 b 628 574 817 690 749 597 b 864 306 758 561 864 461 b 560 -33 864 85 726 -33 b 338 106 443 -33 364 18 l 338 -361 l 58 -361 l 58 775 b 438 1124 58 996 183 1124 b 817 807 690 1124 817 989 z m 538 799 b 438 919 538 879 501 919 b 338 749 356 919 338 863 l 338 375 b 461 171 338 231 360 171 b 585 315 543 171 585 218 b 438 471 585 431 532 471 l 399 471 l 399 675 l 438 675 b 538 799 503 675 538 707 z "},"γ":{"ha":865,"x_min":0,"x_max":0,"o":"m 292 -361 l 292 -7 l 15 785 l 300 785 l 433 281 l 564 785 l 850 785 l 572 -7 l 572 -361 z "},"δ":{"ha":858,"x_min":0,"x_max":0,"o":"m 118 900 l 118 1104 l 756 1104 l 756 900 l 426 900 l 660 747 b 818 386 758 682 818 563 b 429 -33 818 133 700 -33 b 39 386 160 -33 39 132 b 290 786 39 583 113 735 z m 315 386 b 429 165 315 211 353 165 b 543 386 506 165 543 208 b 429 604 543 560 506 604 b 315 386 353 604 315 557 z "},"ε":{"ha":792,"x_min":0,"x_max":0,"o":"m 519 306 l 406 306 b 315 231 347 306 315 278 b 401 151 315 182 347 151 b 488 221 458 151 485 181 l 768 221 l 768 210 b 401 -33 768 67 628 -33 b 36 210 176 -33 36 67 b 201 392 36 310 103 371 b 53 571 117 414 53 478 b 397 804 53 704 176 804 b 742 564 625 804 742 701 l 742 550 l 472 550 b 397 618 472 592 447 618 b 324 547 349 618 324 592 b 404 476 324 503 357 476 l 519 476 z "},"ζ":{"ha":731,"x_min":0,"x_max":0,"o":"m 586 161 b 696 58 665 157 696 122 b 553 -303 696 -31 629 -199 l 324 -249 b 408 -32 361 -179 392 -97 b 36 306 150 -17 36 90 b 422 906 36 550 181 750 l 118 906 l 118 1104 l 696 1104 l 696 900 b 313 333 456 742 313 567 b 586 161 313 224 385 172 z "},"η":{"ha":861,"x_min":0,"x_max":0,"o":"m 806 499 l 806 -361 l 525 -361 l 525 496 b 443 604 525 572 499 604 b 338 449 376 604 338 547 l 338 -14 l 58 -14 l 58 785 l 338 785 l 338 663 b 553 804 365 747 443 804 b 806 499 713 804 806 706 z "},"θ":{"ha":919,"x_min":0,"x_max":0,"o":"m 872 557 b 460 -33 872 142 746 -33 b 46 557 171 -33 46 144 b 460 1149 46 965 171 1149 b 872 557 746 1149 872 969 z m 365 897 b 322 654 339 854 326 782 l 596 654 b 460 944 589 883 551 944 b 365 897 419 944 388 931 z m 553 217 b 596 460 581 260 592 332 l 322 460 b 460 168 329 226 371 168 b 553 217 500 168 531 183 z "},"ι":{"ha":446,"x_min":0,"x_max":0,"o":"m 58 158 l 58 785 l 338 785 l 338 238 b 396 174 338 189 356 174 l 421 174 l 421 -25 b 278 -31 375 -28 328 -31 b 58 158 126 -31 58 17 z "},"κ":{"ha":835,"x_min":0,"x_max":0,"o":"m 58 -14 l 58 785 l 338 785 l 338 493 l 383 493 l 510 785 l 797 785 l 611 401 l 828 -14 l 539 -14 l 382 313 l 338 313 l 338 -14 z "},"λ":{"ha":835,"x_min":0,"x_max":0,"o":"m 0 -14 l 282 774 b 156 919 251 889 224 919 l 96 919 l 96 1121 b 221 1124 131 1124 185 1124 b 529 864 397 1124 457 1072 l 835 -14 l 549 -14 l 418 471 l 286 -14 z "},"μ":{"ha":864,"x_min":0,"x_max":0,"o":"m 525 -14 l 525 108 b 396 -33 507 24 460 -33 b 338 -4 369 -33 347 -22 l 338 -361 l 58 -361 l 58 785 l 338 785 l 338 272 b 419 163 338 194 365 163 b 525 319 486 163 525 221 l 525 785 l 806 785 l 806 -14 z "},"ν":{"ha":865,"x_min":0,"x_max":0,"o":"m 574 -14 l 292 -14 l 15 785 l 300 785 l 433 281 l 564 785 l 850 785 z "},"ξ":{"ha":775,"x_min":0,"x_max":0,"o":"m 457 -28 b 38 319 207 -10 39 107 b 290 638 36 488 138 594 b 88 863 167 658 88 742 b 421 1124 88 1010 194 1124 b 754 861 646 1124 753 1013 l 482 861 b 421 926 481 901 461 926 b 357 847 379 926 357 903 b 465 747 357 776 393 747 l 578 747 l 578 543 l 500 543 b 317 357 394 543 317 476 b 633 161 317 242 419 172 b 744 58 713 157 744 122 b 600 -303 744 -31 678 -199 l 371 -249 b 457 -28 408 -179 442 -93 z "},"ο":{"ha":858,"x_min":0,"x_max":0,"o":"m 315 386 b 429 171 315 215 356 171 b 543 386 503 171 543 213 b 429 600 543 551 506 600 b 315 386 353 600 315 549 z m 39 386 b 429 804 39 646 167 804 b 819 386 693 804 819 646 b 429 -33 819 124 693 -33 b 39 386 167 -33 39 124 z "},"π":{"ha":964,"x_min":0,"x_max":0,"o":"m 429 581 l 429 -14 l 150 -14 l 150 581 l 29 581 l 29 785 l 935 785 l 935 581 l 814 581 l 814 -14 l 535 -14 l 535 581 z "},"ρ":{"ha":875,"x_min":0,"x_max":0,"o":"m 49 -361 l 49 386 b 442 804 49 631 169 804 b 835 386 717 804 835 636 b 544 -33 835 110 732 -33 b 329 107 435 -33 354 28 l 329 -361 z m 556 386 b 442 604 556 561 517 604 b 329 386 364 604 329 558 b 442 165 329 211 364 165 b 556 386 517 165 556 207 z "},"σ":{"ha":889,"x_min":0,"x_max":0,"o":"m 429 785 l 872 785 l 872 581 l 739 581 b 819 376 786 543 819 464 b 429 -33 819 132 699 -33 b 39 376 161 -33 39 132 b 429 785 39 619 161 785 z m 543 376 b 429 586 543 538 507 586 b 315 376 353 586 315 535 b 429 165 315 213 354 165 b 543 376 506 165 543 210 z "},"τ":{"ha":764,"x_min":0,"x_max":0,"o":"m 510 581 l 510 244 b 582 174 510 186 528 174 l 625 174 l 625 -25 b 483 -31 593 -28 528 -31 b 229 185 285 -31 229 15 l 229 581 l 13 581 l 13 785 l 746 785 l 746 581 z "},"υ":{"ha":853,"x_min":0,"x_max":0,"o":"m 426 -33 b 54 282 203 -33 54 72 l 54 785 l 333 785 l 333 282 b 426 171 333 204 363 171 b 518 282 490 171 518 204 l 518 785 l 799 785 l 799 282 b 426 -33 799 72 650 -33 z "},"φ":{"ha":1143,"x_min":0,"x_max":0,"o":"m 42 376 b 351 779 42 592 108 749 l 393 560 b 303 376 335 543 303 503 b 438 171 303 188 357 171 l 438 785 l 706 785 b 1100 376 990 785 1100 643 b 706 -33 1100 110 988 -32 l 706 -361 l 438 -361 l 438 -33 b 42 376 154 -32 42 108 z m 839 376 b 706 581 839 564 788 581 l 706 171 b 839 376 788 171 839 188 z "},"χ":{"ha":858,"x_min":0,"x_max":0,"o":"m 565 -361 l 429 69 l 292 -361 l 0 -361 l 215 228 l 17 785 l 306 785 l 429 383 l 551 785 l 842 785 l 642 228 l 858 -361 z "},"ψ":{"ha":1115,"x_min":0,"x_max":0,"o":"m 424 785 l 692 785 l 692 175 b 793 299 757 178 793 218 l 793 785 l 1061 785 l 1061 307 b 692 -28 1061 106 913 -14 l 692 -361 l 424 -361 l 424 -28 b 54 307 203 -14 54 106 l 54 785 l 322 785 l 322 299 b 424 175 322 218 358 178 z "},"ω":{"ha":1222,"x_min":0,"x_max":0,"o":"m 472 628 l 750 628 l 750 358 b 826 169 750 215 764 169 b 899 358 875 169 899 214 b 815 785 899 486 872 635 l 1099 785 b 1179 360 1156 638 1179 493 b 861 -33 1179 97 1071 -33 b 611 129 728 -33 646 24 b 360 -33 576 24 493 -33 b 43 360 151 -33 43 97 b 122 785 43 493 67 638 l 407 785 b 324 358 350 635 324 486 b 394 169 324 214 347 169 b 472 358 458 169 472 215 z "},"─":{"ha":1333,"x_min":0,"x_max":0,"o":"m 1333 579 l 1333 497 l 0 497 l 0 579 z "},"│":{"ha":1333,"x_min":0,"x_max":0,"o":"m 626 1233 l 708 1233 l 708 -156 l 626 -156 z "},"┌":{"ha":1333,"x_min":0,"x_max":0,"o":"m 626 -156 l 626 579 l 1333 579 l 1333 497 l 708 497 l 708 -156 z "},"┐":{"ha":1333,"x_min":0,"x_max":0,"o":"m 708 579 l 708 -156 l 626 -156 l 626 497 l 0 497 l 0 579 z "},"┘":{"ha":1333,"x_min":0,"x_max":0,"o":"m 708 1233 l 708 497 l 0 497 l 0 579 l 626 579 l 626 1233 z "},"└":{"ha":1333,"x_min":0,"x_max":0,"o":"m 626 497 l 626 1233 l 708 1233 l 708 579 l 1333 579 l 1333 497 z "},"├":{"ha":1333,"x_min":0,"x_max":0,"o":"m 626 1233 l 708 1233 l 708 579 l 1333 579 l 1333 497 l 708 497 l 708 -156 l 626 -156 z "},"┬":{"ha":1333,"x_min":0,"x_max":0,"o":"m 1333 579 l 1333 497 l 708 497 l 708 -156 l 626 -156 l 626 497 l 0 497 l 0 579 z "},"┤":{"ha":1333,"x_min":0,"x_max":0,"o":"m 708 1233 l 708 -156 l 626 -156 l 626 497 l 0 497 l 0 579 l 626 579 l 626 1233 z "},"┴":{"ha":1333,"x_min":0,"x_max":0,"o":"m 1333 497 l 0 497 l 0 579 l 626 579 l 626 1233 l 708 1233 l 708 579 l 1333 579 z "},"┼":{"ha":1333,"x_min":0,"x_max":0,"o":"m 626 1233 l 708 1233 l 708 579 l 1333 579 l 1333 497 l 708 497 l 708 -156 l 626 -156 l 626 497 l 0 497 l 0 579 l 626 579 z "},"━":{"ha":1333,"x_min":0,"x_max":0,"o":"m 0 604 l 1333 604 l 1333 474 l 0 474 z "},"┃":{"ha":1333,"x_min":0,"x_max":0,"o":"m 601 1233 l 732 1233 l 732 -156 l 601 -156 z "},"┏":{"ha":1333,"x_min":0,"x_max":0,"o":"m 601 604 l 1333 604 l 1333 474 l 732 474 l 732 -156 l 601 -156 z "},"┓":{"ha":1333,"x_min":0,"x_max":0,"o":"m 0 604 l 732 604 l 732 -156 l 601 -156 l 601 474 l 0 474 z "},"┛":{"ha":1333,"x_min":0,"x_max":0,"o":"m 601 1233 l 732 1233 l 732 474 l 0 474 l 0 604 l 601 604 z "},"┗":{"ha":1333,"x_min":0,"x_max":0,"o":"m 601 1233 l 732 1233 l 732 604 l 1333 604 l 1333 474 l 601 474 z "},"┣":{"ha":1333,"x_min":0,"x_max":0,"o":"m 601 1233 l 732 1233 l 732 604 l 1333 604 l 1333 474 l 732 474 l 732 -156 l 601 -156 z "},"┳":{"ha":1333,"x_min":0,"x_max":0,"o":"m 0 474 l 0 604 l 1333 604 l 1333 474 l 732 474 l 732 -156 l 601 -156 l 601 474 z "},"┫":{"ha":1333,"x_min":0,"x_max":0,"o":"m 0 474 l 0 604 l 601 604 l 601 1233 l 732 1233 l 732 -156 l 601 -156 l 601 474 z "},"┻":{"ha":1333,"x_min":0,"x_max":0,"o":"m 601 604 l 601 1233 l 732 1233 l 732 604 l 1333 604 l 1333 474 l 0 474 l 0 604 z "},"╋":{"ha":1333,"x_min":0,"x_max":0,"o":"m 601 604 l 601 1233 l 732 1233 l 732 604 l 1333 604 l 1333 474 l 732 474 l 732 -156 l 601 -156 l 601 474 l 0 474 l 0 604 z "},"┠":{"ha":1333,"x_min":0,"x_max":0,"o":"m 1333 563 l 1333 513 l 732 513 l 732 -156 l 601 -156 l 601 1233 l 732 1233 l 732 563 z "},"┯":{"ha":1333,"x_min":0,"x_max":0,"o":"m 1333 604 l 1333 474 l 692 474 l 692 -156 l 640 -156 l 640 474 l 0 474 l 0 604 z "},"┨":{"ha":1333,"x_min":0,"x_max":0,"o":"m 732 -156 l 601 -156 l 601 513 l 0 513 l 0 563 l 601 563 l 601 1233 l 732 1233 z "},"┷":{"ha":1333,"x_min":0,"x_max":0,"o":"m 640 604 l 640 1233 l 692 1233 l 692 604 l 1333 604 l 1333 474 l 0 474 l 0 604 z "},"┿":{"ha":1333,"x_min":0,"x_max":0,"o":"m 640 604 l 640 1233 l 692 1233 l 692 604 l 1333 604 l 1333 474 l 692 474 l 692 -156 l 640 -156 l 640 474 l 0 474 l 0 604 z "},"┝":{"ha":1333,"x_min":0,"x_max":0,"o":"m 1333 604 l 1333 474 l 692 474 l 692 -156 l 640 -156 l 640 1233 l 692 1233 l 692 604 z "},"┰":{"ha":1333,"x_min":0,"x_max":0,"o":"m 1333 563 l 1333 513 l 732 513 l 732 -156 l 601 -156 l 601 513 l 0 513 l 0 563 z "},"┥":{"ha":1333,"x_min":0,"x_max":0,"o":"m 640 604 l 640 1233 l 692 1233 l 692 -156 l 640 -156 l 640 474 l 0 474 l 0 604 z "},"┸":{"ha":1333,"x_min":0,"x_max":0,"o":"m 601 563 l 601 1233 l 732 1233 l 732 563 l 1333 563 l 1333 513 l 0 513 l 0 563 z "},"╂":{"ha":1333,"x_min":0,"x_max":0,"o":"m 601 563 l 601 1233 l 732 1233 l 732 563 l 1333 563 l 1333 513 l 732 513 l 732 -156 l 601 -156 l 601 513 l 0 513 l 0 563 z "},"┒":{"ha":1333,"x_min":0,"x_max":0,"o":"m 601 513 l 0 513 l 0 563 l 732 563 l 732 -156 l 601 -156 z "},"┑":{"ha":1333,"x_min":0,"x_max":0,"o":"m 640 474 l 0 474 l 0 604 l 692 604 l 692 -156 l 640 -156 z "},"┚":{"ha":1333,"x_min":0,"x_max":0,"o":"m 601 563 l 601 1233 l 732 1233 l 732 513 l 0 513 l 0 563 z "},"┙":{"ha":1333,"x_min":0,"x_max":0,"o":"m 640 604 l 640 1233 l 692 1233 l 692 474 l 0 474 l 0 604 z "},"┖":{"ha":1333,"x_min":0,"x_max":0,"o":"m 732 563 l 1333 563 l 1333 513 l 601 513 l 601 1233 l 732 1233 z "},"┕":{"ha":1333,"x_min":0,"x_max":0,"o":"m 692 604 l 1333 604 l 1333 474 l 640 474 l 640 1233 l 692 1233 z "},"┎":{"ha":1333,"x_min":0,"x_max":0,"o":"m 732 513 l 732 -156 l 601 -156 l 601 563 l 1333 563 l 1333 513 z "},"┍":{"ha":1333,"x_min":0,"x_max":0,"o":"m 640 604 l 1333 604 l 1333 474 l 692 474 l 692 -156 l 640 -156 z "},"┞":{"ha":1333,"x_min":0,"x_max":0,"o":"m 601 1233 l 732 1233 l 732 563 l 1333 563 l 1333 513 l 692 513 l 692 -156 l 640 -156 l 640 513 l 601 513 z "},"┟":{"ha":1333,"x_min":0,"x_max":0,"o":"m 640 1233 l 692 1233 l 692 563 l 1333 563 l 1333 513 l 732 513 l 732 -156 l 601 -156 l 601 563 l 640 563 z "},"┡":{"ha":1333,"x_min":0,"x_max":0,"o":"m 640 -156 l 640 474 l 601 474 l 601 1233 l 732 1233 l 732 604 l 1333 604 l 1333 474 l 692 474 l 692 -156 z "},"┢":{"ha":1333,"x_min":0,"x_max":0,"o":"m 601 -156 l 601 604 l 640 604 l 640 1233 l 692 1233 l 692 604 l 1333 604 l 1333 474 l 732 474 l 732 -156 z "},"┦":{"ha":1333,"x_min":0,"x_max":0,"o":"m 601 1233 l 732 1233 l 732 513 l 692 513 l 692 -156 l 640 -156 l 640 513 l 0 513 l 0 563 l 601 563 z "},"┧":{"ha":1333,"x_min":0,"x_max":0,"o":"m 0 563 l 640 563 l 640 1233 l 692 1233 l 692 563 l 732 563 l 732 -156 l 601 -156 l 601 513 l 0 513 z "},"┩":{"ha":1333,"x_min":0,"x_max":0,"o":"m 0 474 l 0 604 l 601 604 l 601 1233 l 732 1233 l 732 474 l 692 474 l 692 -156 l 640 -156 l 640 474 z "},"┪":{"ha":1333,"x_min":0,"x_max":0,"o":"m 0 474 l 0 604 l 640 604 l 640 1233 l 692 1233 l 692 604 l 732 604 l 732 -156 l 601 -156 l 601 474 z "},"┭":{"ha":1333,"x_min":0,"x_max":0,"o":"m 0 474 l 0 604 l 692 604 l 692 563 l 1333 563 l 1333 513 l 692 513 l 692 -156 l 640 -156 l 640 474 z "},"┮":{"ha":1333,"x_min":0,"x_max":0,"o":"m 0 513 l 0 563 l 640 563 l 640 604 l 1333 604 l 1333 474 l 692 474 l 692 -156 l 640 -156 l 640 513 z "},"┱":{"ha":1333,"x_min":0,"x_max":0,"o":"m 0 474 l 0 604 l 732 604 l 732 563 l 1333 563 l 1333 513 l 732 513 l 732 -156 l 601 -156 l 601 474 z "},"┲":{"ha":1333,"x_min":0,"x_max":0,"o":"m 0 513 l 0 563 l 601 563 l 601 604 l 1333 604 l 1333 474 l 732 474 l 732 -156 l 601 -156 l 601 513 z "},"┵":{"ha":1333,"x_min":0,"x_max":0,"o":"m 0 474 l 0 604 l 640 604 l 640 1233 l 692 1233 l 692 563 l 1333 563 l 1333 513 l 692 513 l 692 474 z "},"┶":{"ha":1333,"x_min":0,"x_max":0,"o":"m 0 513 l 0 563 l 640 563 l 640 1233 l 692 1233 l 692 604 l 1333 604 l 1333 474 l 640 474 l 640 513 z "},"┹":{"ha":1333,"x_min":0,"x_max":0,"o":"m 0 474 l 0 604 l 601 604 l 601 1233 l 732 1233 l 732 563 l 1333 563 l 1333 513 l 732 513 l 732 474 z "},"┺":{"ha":1333,"x_min":0,"x_max":0,"o":"m 0 513 l 0 563 l 601 563 l 601 1233 l 732 1233 l 732 604 l 1333 604 l 1333 474 l 601 474 l 601 513 z "},"┽":{"ha":1333,"x_min":0,"x_max":0,"o":"m 0 474 l 0 604 l 640 604 l 640 1233 l 692 1233 l 692 563 l 1333 563 l 1333 513 l 692 513 l 692 -156 l 640 -156 l 640 474 z "},"┾":{"ha":1333,"x_min":0,"x_max":0,"o":"m 692 1233 l 692 604 l 1333 604 l 1333 474 l 692 474 l 692 -156 l 640 -156 l 640 513 l 0 513 l 0 563 l 640 563 l 640 1233 z "},"╀":{"ha":1333,"x_min":0,"x_max":0,"o":"m 732 1233 l 732 563 l 1333 563 l 1333 513 l 692 513 l 692 -156 l 640 -156 l 640 513 l 0 513 l 0 563 l 601 563 l 601 1233 z "},"╁":{"ha":1333,"x_min":0,"x_max":0,"o":"m 692 1233 l 692 563 l 1333 563 l 1333 513 l 732 513 l 732 -156 l 601 -156 l 601 513 l 0 513 l 0 563 l 640 563 l 640 1233 z "},"╃":{"ha":1333,"x_min":0,"x_max":0,"o":"m 732 1233 l 732 563 l 1333 563 l 1333 513 l 732 513 l 732 474 l 692 474 l 692 -156 l 640 -156 l 640 474 l 0 474 l 0 604 l 601 604 l 601 1233 z "},"╄":{"ha":1333,"x_min":0,"x_max":0,"o":"m 692 -156 l 640 -156 l 640 474 l 601 474 l 601 513 l 0 513 l 0 563 l 601 563 l 601 1233 l 732 1233 l 732 604 l 1333 604 l 1333 474 l 692 474 z "},"╅":{"ha":1333,"x_min":0,"x_max":0,"o":"m 692 1233 l 692 604 l 732 604 l 732 563 l 1333 563 l 1333 513 l 732 513 l 732 -156 l 601 -156 l 601 474 l 0 474 l 0 604 l 640 604 l 640 1233 z "},"╆":{"ha":1333,"x_min":0,"x_max":0,"o":"m 692 1233 l 692 604 l 1333 604 l 1333 472 l 732 472 l 732 -156 l 601 -156 l 601 513 l 0 513 l 0 563 l 601 563 l 601 604 l 640 604 l 640 1233 z "},"╇":{"ha":1333,"x_min":0,"x_max":0,"o":"m 732 1233 l 732 604 l 1333 604 l 1333 474 l 692 474 l 692 -156 l 640 -156 l 640 474 l 0 474 l 0 604 l 601 604 l 601 1233 z "},"╈":{"ha":1333,"x_min":0,"x_max":0,"o":"m 692 1233 l 692 604 l 1333 604 l 1333 474 l 732 474 l 732 -156 l 601 -156 l 601 474 l 0 474 l 0 604 l 640 604 l 640 1233 z "},"╉":{"ha":1333,"x_min":0,"x_max":0,"o":"m 732 1233 l 732 563 l 1333 563 l 1333 513 l 732 513 l 732 -156 l 601 -156 l 601 474 l 0 474 l 0 604 l 601 604 l 601 1233 z "},"╊":{"ha":1333,"x_min":0,"x_max":0,"o":"m 732 1233 l 732 604 l 1333 604 l 1333 474 l 732 474 l 732 -156 l 601 -156 l 601 513 l 0 513 l 0 563 l 601 563 l 601 1233 z "},"㎕":{"ha":1333,"x_min":0,"x_max":0,"o":"m 413 -14 l 413 7 b 338 -33 394 -19 367 -33 b 304 -25 325 -33 313 -29 l 304 -361 l 40 -361 l 40 785 l 304 785 l 304 272 b 350 163 304 194 318 163 b 413 319 390 163 413 221 l 413 785 l 679 785 l 679 397 b 746 421 703 404 725 414 l 746 813 b 1029 1124 746 1001 844 1124 b 1313 826 1214 1124 1313 1000 l 1313 814 b 1007 297 1313 582 1200 411 l 1007 267 b 1043 172 1007 204 1019 172 b 1085 264 1063 172 1076 200 l 1329 204 b 1036 -33 1300 58 1207 -33 b 754 189 872 -33 779 46 b 696 175 736 183 715 179 l 679 229 l 679 -14 z m 1029 906 b 1001 832 1011 906 1001 883 l 1001 579 b 1057 814 1038 638 1057 717 l 1057 832 b 1029 906 1057 881 1047 906 z "},"㎖":{"ha":1333,"x_min":0,"x_max":0,"o":"m 553 -14 l 553 497 b 540 604 553 571 550 604 b 514 449 524 604 514 547 l 514 -14 l 292 -14 l 292 497 b 279 604 292 571 289 604 b 254 449 263 604 254 547 l 254 -14 l 32 -14 l 32 785 l 240 785 l 240 765 b 342 804 264 788 306 804 b 468 739 394 804 440 781 b 600 804 496 779 542 804 b 775 499 713 804 775 706 l 775 399 b 831 419 794 406 814 413 l 831 813 b 1074 1124 831 1001 914 1124 b 1317 826 1233 1124 1317 1000 l 1317 814 b 1050 294 1317 579 1217 407 l 1050 267 b 1085 172 1050 204 1063 172 b 1126 264 1104 172 1118 200 l 1332 206 b 1079 -33 1307 58 1228 -33 b 838 192 940 -33 861 51 b 801 182 829 189 813 185 l 775 283 l 775 -14 z m 1074 906 b 1050 832 1057 906 1050 883 l 1050 581 b 1097 814 1085 635 1097 710 l 1097 832 b 1074 906 1097 881 1090 906 z "},"㎗":{"ha":1333,"x_min":0,"x_max":0,"o":"m 404 -14 l 404 19 b 274 -33 371 -12 325 -33 b 43 386 124 -33 43 113 b 274 804 43 657 124 804 b 397 758 325 804 365 788 l 397 1104 l 649 1104 l 649 392 b 732 421 679 400 707 411 l 732 813 b 1015 1124 732 1001 831 1124 b 1299 826 1200 1124 1299 1000 l 1299 814 b 993 297 1299 582 1186 411 l 993 267 b 1029 172 993 204 1006 172 b 1071 264 1049 172 1063 200 l 1315 204 b 1022 -33 1286 58 1193 -33 b 740 189 858 -33 765 46 b 682 175 722 183 701 179 l 649 283 l 649 -14 z m 397 386 b 346 604 397 561 381 604 b 294 386 311 604 294 558 b 346 165 294 211 311 165 b 397 386 381 165 397 208 z m 1015 906 b 988 832 997 906 988 883 l 988 579 b 1043 814 1024 638 1043 717 l 1043 832 b 1015 906 1043 881 1033 906 z "},"ℓ":{"ha":890,"x_min":0,"x_max":0,"o":"m 15 382 b 178 425 75 396 129 408 l 178 813 b 506 1124 178 1001 292 1124 b 833 826 719 1124 833 1000 l 833 814 b 451 290 833 578 694 406 l 451 267 b 522 172 451 204 476 172 b 600 258 563 172 589 199 l 856 208 b 514 -33 819 60 711 -33 b 186 200 325 -33 215 54 b 94 176 158 190 125 182 z m 506 906 b 451 832 469 906 451 883 l 451 550 b 560 814 529 610 560 694 l 560 832 b 506 906 560 881 542 906 z "},"㎘":{"ha":1333,"x_min":0,"x_max":0,"o":"m 68 -14 l 68 1104 l 332 1104 l 332 501 l 431 785 l 699 785 l 550 401 l 724 -14 l 453 -14 l 332 301 l 332 -14 z m 682 175 l 618 383 b 732 421 660 393 699 408 l 732 813 b 1015 1124 732 1001 831 1124 b 1299 826 1200 1124 1299 1000 l 1299 814 b 993 297 1299 582 1186 411 l 993 267 b 1029 172 993 204 1006 172 b 1071 264 1049 172 1063 200 l 1315 204 b 1022 -33 1286 58 1193 -33 b 740 189 858 -33 765 46 b 682 175 722 183 701 179 z m 1015 906 b 988 832 997 906 988 883 l 988 579 b 1043 814 1024 638 1043 717 l 1043 832 b 1015 906 1043 881 1033 906 z "},"㏄":{"ha":1333,"x_min":0,"x_max":0,"o":"m 22 386 b 343 804 22 660 128 804 b 657 486 544 804 650 689 l 396 486 b 343 600 392 560 376 600 b 285 386 301 600 285 540 b 343 171 285 215 306 171 b 396 285 376 171 392 210 l 657 285 b 343 -33 650 82 544 -33 b 22 386 128 -33 22 110 z m 678 386 b 999 804 678 660 783 804 b 1313 486 1200 804 1306 689 l 1051 486 b 999 600 1047 560 1032 600 b 940 386 957 600 940 540 b 999 171 940 215 961 171 b 1051 285 1032 171 1047 210 l 1313 285 b 999 -33 1306 82 1200 -33 b 678 386 783 -33 678 110 z "},"㎣":{"ha":1333,"x_min":0,"x_max":0,"o":"m 464 -14 l 464 497 b 453 604 464 585 463 604 b 433 449 440 604 433 561 l 433 -14 l 253 -14 l 253 497 b 240 604 253 585 251 604 b 221 449 228 604 221 561 l 221 -14 l 40 -14 l 40 785 l 207 785 l 207 765 b 293 804 226 788 258 804 b 396 742 333 804 372 779 b 503 804 417 776 458 804 b 646 499 596 804 646 706 l 646 -14 z m 1111 -14 l 1111 497 b 1100 604 1111 585 1110 604 b 1081 449 1088 604 1081 561 l 1081 -14 l 900 -14 l 900 497 b 888 604 900 585 899 604 b 868 449 875 604 868 561 l 868 -14 l 688 -14 l 688 785 l 854 785 l 854 765 b 940 804 874 788 906 804 b 1043 742 981 804 1019 779 b 1150 804 1064 776 1106 804 b 1293 499 1243 804 1293 706 l 1293 -14 z m 1156 928 b 1182 951 1174 928 1182 936 b 1139 982 1182 976 1171 982 l 1082 982 l 1082 1082 l 1139 1082 b 1174 1104 1160 1082 1174 1088 b 1151 1124 1174 1115 1164 1124 b 1129 1104 1138 1124 1129 1114 l 1129 1099 l 989 1099 l 989 1106 b 1151 1219 989 1172 1047 1219 b 1314 1108 1256 1219 1314 1171 b 1274 1036 1314 1072 1303 1050 b 1326 949 1310 1019 1326 986 b 1156 828 1326 881 1260 828 b 985 949 1051 828 985 881 l 985 960 l 1129 960 l 1129 951 b 1156 928 1129 936 1138 928 z "},"㎤":{"ha":1333,"x_min":0,"x_max":0,"o":"m 1086 -14 l 1086 497 b 1071 604 1086 571 1082 604 b 1043 449 1053 604 1043 547 l 1043 -14 l 843 -14 l 843 497 b 826 604 843 571 839 604 b 800 449 810 604 800 547 l 800 -14 l 600 -14 l 600 785 l 788 785 l 788 765 b 883 804 810 788 851 804 b 1001 739 931 804 976 781 b 1124 804 1026 779 1072 804 b 1286 499 1225 804 1286 706 l 1286 -14 z m 18 386 b 296 804 18 660 96 804 b 568 486 485 804 565 689 l 317 486 b 296 600 317 560 311 600 b 269 386 274 600 269 540 b 296 171 269 215 279 171 b 317 285 310 171 315 211 l 568 285 b 296 -33 565 82 485 -33 b 18 386 96 -33 18 110 z m 1156 928 b 1182 951 1174 928 1182 936 b 1139 982 1182 976 1171 982 l 1082 982 l 1082 1082 l 1139 1082 b 1174 1104 1160 1082 1174 1088 b 1151 1124 1174 1115 1164 1124 b 1129 1104 1138 1124 1129 1114 l 1129 1099 l 989 1099 l 989 1106 b 1151 1219 989 1172 1047 1219 b 1314 1108 1256 1219 1314 1171 b 1274 1036 1314 1072 1303 1050 b 1326 949 1310 1019 1326 986 b 1156 828 1326 881 1260 828 b 985 949 1051 828 985 881 l 985 960 l 1129 960 l 1129 951 b 1156 928 1129 936 1138 928 z "},"㎥":{"ha":1333,"x_min":0,"x_max":0,"o":"m 989 -14 l 989 497 b 908 604 989 571 961 604 b 803 449 842 604 803 547 l 803 -14 l 524 -14 l 524 497 b 442 604 524 571 496 604 b 338 449 375 604 338 547 l 338 -14 l 58 -14 l 58 785 l 338 785 l 338 663 b 551 804 365 747 443 804 b 775 661 658 804 739 758 b 1014 804 815 747 896 804 b 1268 499 1178 804 1268 706 l 1268 -14 z m 1156 928 b 1182 951 1174 928 1182 936 b 1139 982 1182 976 1171 982 l 1082 982 l 1082 1082 l 1139 1082 b 1174 1104 1160 1082 1174 1088 b 1151 1124 1174 1115 1164 1124 b 1129 1104 1138 1124 1129 1114 l 1129 1099 l 989 1099 l 989 1106 b 1151 1219 989 1172 1047 1219 b 1314 1108 1256 1219 1314 1171 b 1274 1036 1314 1072 1303 1050 b 1326 949 1310 1019 1326 986 b 1156 828 1326 881 1260 828 b 985 949 1051 828 985 881 l 985 960 l 1129 960 l 1129 951 b 1156 928 1129 936 1138 928 z "},"㎦":{"ha":1333,"x_min":0,"x_max":0,"o":"m 46 -14 l 46 1104 l 257 1104 l 257 501 l 347 785 l 564 785 l 432 401 l 585 -14 l 365 -14 l 257 301 l 257 -14 z m 1078 -14 l 1078 497 b 1063 604 1078 571 1074 604 b 1035 449 1044 604 1035 547 l 1035 -14 l 835 -14 l 835 497 b 818 604 835 571 831 604 b 792 449 801 604 792 547 l 792 -14 l 592 -14 l 592 785 l 776 785 l 776 758 b 875 804 799 785 839 804 b 993 739 922 804 968 781 b 1115 804 1018 779 1064 804 b 1278 499 1217 804 1278 706 l 1278 -14 z m 1156 928 b 1182 951 1174 928 1182 936 b 1139 982 1182 976 1171 982 l 1082 982 l 1082 1082 l 1139 1082 b 1174 1104 1160 1082 1174 1088 b 1151 1124 1174 1115 1164 1124 b 1129 1104 1138 1124 1129 1114 l 1129 1099 l 989 1099 l 989 1106 b 1151 1219 989 1172 1047 1219 b 1314 1108 1256 1219 1314 1171 b 1274 1036 1314 1072 1303 1050 b 1326 949 1310 1019 1326 986 b 1156 828 1326 881 1260 828 b 985 949 1051 828 985 881 l 985 960 l 1129 960 l 1129 951 b 1156 928 1129 936 1138 928 z "},"㎙":{"ha":1333,"x_min":0,"x_max":0,"o":"m 483 911 l 400 911 b 365 832 374 911 365 888 l 365 785 l 483 785 l 483 581 l 365 581 l 365 -14 l 114 -14 l 114 581 l 36 581 l 36 785 l 114 785 l 114 860 b 360 1115 114 1033 185 1115 b 483 1101 400 1115 443 1113 z m 1043 -14 l 1043 497 b 1031 604 1043 571 1040 604 b 1004 449 1014 604 1004 547 l 1004 -14 l 782 -14 l 782 497 b 769 604 782 571 779 604 b 744 449 753 604 744 547 l 744 -14 l 522 -14 l 522 785 l 717 785 l 717 757 b 832 804 743 786 789 804 b 958 739 885 804 931 781 b 1090 804 986 779 1032 804 b 1265 499 1203 804 1265 706 l 1265 -14 z "},"㎚":{"ha":1333,"x_min":0,"x_max":0,"o":"m 568 499 l 568 -14 l 331 -14 l 331 496 b 304 604 331 572 324 604 b 264 449 278 604 264 547 l 264 -14 l 26 -14 l 26 785 l 264 785 l 264 764 b 376 804 293 793 326 804 b 568 499 497 804 568 706 z m 1103 -14 l 1103 497 b 1088 604 1103 571 1099 604 b 1060 449 1069 604 1060 547 l 1060 -14 l 860 -14 l 860 497 b 843 604 860 571 856 604 b 817 449 826 604 817 547 l 817 -14 l 617 -14 l 617 785 l 804 785 l 804 765 b 900 804 826 788 868 804 b 1018 739 947 804 993 781 b 1140 804 1043 779 1089 804 b 1303 499 1242 804 1303 706 l 1303 -14 z "},"㎛":{"ha":1333,"x_min":0,"x_max":0,"o":"m 353 -14 l 353 1 b 288 -33 336 -21 310 -33 b 256 -18 275 -33 263 -28 l 256 -361 l 26 -361 l 26 785 l 256 785 l 256 272 b 289 163 256 194 267 163 b 339 319 315 163 339 221 l 339 785 l 568 785 l 568 -14 z m 1103 -14 l 1103 497 b 1088 604 1103 571 1099 604 b 1060 449 1069 604 1060 547 l 1060 -14 l 860 -14 l 860 497 b 843 604 860 571 856 604 b 817 449 826 604 817 547 l 817 -14 l 617 -14 l 617 785 l 804 785 l 804 765 b 900 804 826 788 868 804 b 1018 739 947 804 993 781 b 1140 804 1043 779 1089 804 b 1303 499 1242 804 1303 706 l 1303 -14 z "},"㎜":{"ha":1333,"x_min":0,"x_max":0,"o":"m 464 -14 l 464 497 b 453 604 464 585 463 604 b 433 449 440 604 433 561 l 433 -14 l 253 -14 l 253 497 b 240 604 253 585 251 604 b 221 449 228 604 221 561 l 221 -14 l 40 -14 l 40 785 l 207 785 l 207 765 b 293 804 226 788 258 804 b 396 742 333 804 372 779 b 503 804 417 776 458 804 b 646 499 596 804 646 706 l 646 -14 z m 1111 -14 l 1111 497 b 1100 604 1111 585 1110 604 b 1081 449 1088 604 1081 561 l 1081 -14 l 900 -14 l 900 497 b 888 604 900 585 899 604 b 868 449 875 604 868 561 l 868 -14 l 688 -14 l 688 785 l 854 785 l 854 765 b 940 804 874 788 906 804 b 1043 742 981 804 1019 779 b 1150 804 1064 776 1106 804 b 1293 499 1243 804 1293 706 l 1293 -14 z "},"㎝":{"ha":1333,"x_min":0,"x_max":0,"o":"m 1090 -14 l 1090 497 b 1075 604 1090 571 1086 604 b 1047 449 1057 604 1047 547 l 1047 -14 l 847 -14 l 847 497 b 831 604 847 571 843 604 b 804 449 814 604 804 547 l 804 -14 l 604 -14 l 604 785 l 792 785 l 792 765 b 888 804 814 788 856 804 b 1006 739 935 804 981 781 b 1128 804 1031 779 1076 804 b 1290 499 1229 804 1290 706 l 1290 -14 z m 22 386 b 300 804 22 660 100 804 b 572 486 489 804 569 689 l 321 486 b 300 600 321 560 315 600 b 274 386 278 600 274 540 b 300 171 274 215 283 171 b 321 285 314 171 319 211 l 572 285 b 300 -33 569 82 489 -33 b 22 386 100 -33 22 110 z "},"㎞":{"ha":1333,"x_min":0,"x_max":0,"o":"m 53 -14 l 53 1104 l 264 1104 l 264 501 l 354 785 l 571 785 l 439 401 l 592 -14 l 372 -14 l 264 301 l 264 -14 z m 1085 -14 l 1085 497 b 1069 604 1085 571 1081 604 b 1042 449 1051 604 1042 547 l 1042 -14 l 842 -14 l 842 497 b 825 604 842 571 838 604 b 799 449 808 604 799 547 l 799 -14 l 599 -14 l 599 785 l 783 785 l 783 758 b 882 804 806 785 846 804 b 1000 739 929 804 975 781 b 1122 804 1025 779 1071 804 b 1285 499 1224 804 1285 706 l 1285 -14 z "},"㎟":{"ha":1333,"x_min":0,"x_max":0,"o":"m 464 -14 l 464 497 b 453 604 464 585 463 604 b 433 449 440 604 433 561 l 433 -14 l 253 -14 l 253 497 b 240 604 253 585 251 604 b 221 449 228 604 221 561 l 221 -14 l 40 -14 l 40 785 l 207 785 l 207 765 b 293 804 226 788 258 804 b 396 742 333 804 372 779 b 503 804 417 776 458 804 b 646 499 596 804 646 706 l 646 -14 z m 1111 -14 l 1111 497 b 1100 604 1111 585 1110 604 b 1081 449 1088 604 1081 561 l 1081 -14 l 900 -14 l 900 497 b 888 604 900 585 899 604 b 868 449 875 604 868 561 l 868 -14 l 688 -14 l 688 785 l 854 785 l 854 765 b 940 804 874 788 906 804 b 1043 742 981 804 1019 779 b 1150 804 1064 776 1106 804 b 1293 499 1243 804 1293 706 l 1293 -14 z m 1319 1100 b 1265 994 1319 1060 1306 1031 l 1196 933 l 1326 933 l 1326 832 l 997 832 l 997 922 l 1150 1054 b 1175 1094 1165 1068 1175 1082 b 1156 1117 1175 1108 1169 1117 b 1135 1094 1142 1117 1135 1108 l 1135 1072 l 990 1072 l 990 1100 b 1156 1217 990 1163 1044 1217 b 1319 1100 1267 1217 1319 1163 z "},"㎠":{"ha":1333,"x_min":0,"x_max":0,"o":"m 1086 -14 l 1086 497 b 1071 604 1086 571 1082 604 b 1043 449 1053 604 1043 547 l 1043 -14 l 843 -14 l 843 497 b 826 604 843 571 839 604 b 800 449 810 604 800 547 l 800 -14 l 600 -14 l 600 785 l 788 785 l 788 765 b 883 804 810 788 851 804 b 1001 739 931 804 976 781 b 1124 804 1026 779 1072 804 b 1286 499 1225 804 1286 706 l 1286 -14 z m 18 386 b 296 804 18 660 96 804 b 568 486 485 804 565 689 l 317 486 b 296 600 317 560 311 600 b 269 386 274 600 269 540 b 296 171 269 215 279 171 b 317 285 310 171 315 211 l 568 285 b 296 -33 565 82 485 -33 b 18 386 96 -33 18 110 z m 1319 1100 b 1265 994 1319 1060 1306 1031 l 1196 933 l 1326 933 l 1326 832 l 997 832 l 997 922 l 1150 1054 b 1175 1094 1165 1068 1175 1082 b 1156 1117 1175 1108 1169 1117 b 1135 1094 1142 1117 1135 1108 l 1135 1072 l 990 1072 l 990 1100 b 1156 1217 990 1163 1044 1217 b 1319 1100 1267 1217 1319 1163 z "},"㎡":{"ha":1333,"x_min":0,"x_max":0,"o":"m 1319 1100 b 1265 994 1319 1060 1306 1031 l 1196 933 l 1326 933 l 1326 832 l 997 832 l 997 922 l 1150 1054 b 1175 1094 1165 1068 1175 1082 b 1156 1117 1175 1108 1169 1117 b 1135 1094 1142 1117 1135 1108 l 1135 1072 l 990 1072 l 990 1100 b 1156 1217 990 1163 1044 1217 b 1319 1100 1267 1217 1319 1163 z m 989 -14 l 989 497 b 908 604 989 571 961 604 b 803 449 842 604 803 547 l 803 -14 l 524 -14 l 524 497 b 442 604 524 571 496 604 b 338 449 375 604 338 547 l 338 -14 l 58 -14 l 58 785 l 338 785 l 338 663 b 551 804 365 747 443 804 b 775 661 658 804 739 758 b 1014 804 815 747 896 804 b 1268 499 1178 804 1268 706 l 1268 -14 z "},"㎢":{"ha":1333,"x_min":0,"x_max":0,"o":"m 1319 1100 b 1265 994 1319 1060 1306 1031 l 1196 933 l 1326 933 l 1326 832 l 997 832 l 997 922 l 1150 1054 b 1175 1094 1165 1068 1175 1082 b 1156 1117 1175 1108 1169 1117 b 1135 1094 1142 1117 1135 1108 l 1135 1072 l 990 1072 l 990 1100 b 1156 1217 990 1163 1044 1217 b 1319 1100 1267 1217 1319 1163 z m 46 -14 l 46 1104 l 257 1104 l 257 501 l 347 785 l 564 785 l 432 401 l 585 -14 l 365 -14 l 257 301 l 257 -14 z m 1078 -14 l 1078 497 b 1063 604 1078 571 1074 604 b 1035 449 1044 604 1035 547 l 1035 -14 l 835 -14 l 835 497 b 818 604 835 571 831 604 b 792 449 801 604 792 547 l 792 -14 l 592 -14 l 592 785 l 776 785 l 776 758 b 875 804 799 785 839 804 b 993 739 922 804 968 781 b 1115 804 1018 779 1064 804 b 1278 499 1217 804 1278 706 l 1278 -14 z "},"㏊":{"ha":1333,"x_min":0,"x_max":0,"o":"m 647 499 l 647 -14 l 383 -14 l 383 496 b 349 604 383 572 372 604 b 296 449 315 604 296 547 l 296 -14 l 33 -14 l 33 785 l 296 785 l 296 754 b 431 804 329 785 375 804 b 647 499 568 804 647 706 z m 1297 522 l 1297 110 b 1313 -14 1297 63 1301 11 l 1050 -14 b 1042 14 1047 -7 1044 4 b 903 -33 1008 -15 961 -33 b 681 219 771 -33 681 61 b 903 472 681 376 771 472 b 1035 432 957 472 1001 458 l 1035 528 b 1003 611 1035 579 1025 611 b 971 531 982 611 971 581 l 710 529 b 1003 804 710 688 808 804 b 1297 522 1194 804 1297 683 z m 942 219 b 989 139 942 167 958 139 b 1035 219 1019 139 1035 167 b 989 300 1035 272 1019 300 b 942 219 958 300 942 272 z "},"㎍":{"ha":1333,"x_min":0,"x_max":0,"o":"m 411 -14 l 411 3 b 335 -33 394 -18 365 -33 b 307 -19 322 -33 311 -26 l 307 -361 l 56 -361 l 56 785 l 307 785 l 307 272 b 336 163 307 194 314 163 b 383 319 368 163 383 221 l 383 785 l 635 785 l 635 -14 z m 1036 386 b 985 604 1036 561 1019 604 b 933 386 950 604 933 558 b 985 165 933 211 950 165 b 1036 386 1019 165 1036 208 z m 1288 785 l 1288 -67 b 999 -385 1288 -253 1196 -385 b 711 -117 819 -385 725 -281 l 965 -117 b 1000 -197 967 -171 981 -197 b 1036 -86 1025 -197 1036 -162 l 1036 11 b 913 -33 1004 -18 964 -33 b 682 386 763 -33 682 114 b 913 804 682 657 763 804 b 1036 757 964 804 1003 789 l 1036 785 z "},"㎎":{"ha":1333,"x_min":0,"x_max":0,"o":"m 1072 386 b 1028 604 1072 561 1057 604 b 983 386 997 604 983 558 b 1028 165 983 211 997 165 b 1072 386 1058 165 1072 208 z m 1286 785 l 1286 -67 b 1040 -385 1286 -251 1208 -385 b 793 -117 886 -385 806 -278 l 1011 -117 b 1040 -197 1014 -171 1024 -197 b 1072 -86 1063 -197 1072 -162 l 1072 11 b 965 -33 1046 -15 1008 -33 b 768 386 838 -33 768 114 b 965 804 768 657 838 804 b 1072 757 1008 804 1044 789 l 1072 785 z m 529 -14 l 529 497 b 514 604 529 571 525 604 b 486 449 496 604 486 547 l 486 -14 l 286 -14 l 286 497 b 269 604 286 571 282 604 b 243 449 253 604 243 547 l 243 -14 l 43 -14 l 43 785 l 231 785 l 231 765 b 326 804 253 788 294 804 b 444 739 374 804 419 781 b 567 804 469 779 515 804 b 729 499 668 804 729 706 l 729 -14 z "},"㎏":{"ha":1333,"x_min":0,"x_max":0,"o":"m 67 -14 l 67 1104 l 325 1104 l 325 501 l 422 785 l 685 785 l 539 401 l 710 -14 l 444 -14 l 325 301 l 325 -14 z m 1018 386 b 967 604 1018 561 1001 604 b 915 386 932 604 915 558 b 967 165 915 211 932 165 b 1018 386 1001 165 1018 208 z m 1269 785 l 1269 -67 b 981 -385 1269 -253 1178 -385 b 693 -117 801 -385 707 -281 l 947 -117 b 982 -197 949 -171 963 -197 b 1018 -86 1007 -197 1018 -162 l 1018 11 b 894 -33 986 -18 946 -33 b 664 386 744 -33 664 114 b 894 804 664 657 744 804 b 1018 757 946 804 985 789 l 1018 785 z "},"㏏":{"ha":1333,"x_min":0,"x_max":0,"o":"m 90 -14 l 90 1104 l 354 1104 l 354 501 l 453 785 l 721 785 l 572 401 l 746 -14 l 475 -14 l 354 301 l 354 -14 z m 1096 581 l 1096 289 b 1176 178 1096 199 1114 178 l 1261 178 l 1261 -19 b 1106 -25 1221 -24 1147 -25 b 829 257 901 -25 829 54 l 829 581 l 735 581 l 735 785 l 829 785 l 829 1011 l 1096 1011 l 1096 785 l 1261 785 l 1261 581 z "},"㎈":{"ha":1333,"x_min":0,"x_max":0,"o":"m 17 386 b 271 804 17 646 100 804 b 521 486 421 804 517 689 l 315 486 b 271 600 313 560 300 600 b 224 386 238 600 224 540 b 271 171 224 215 240 171 b 315 285 300 171 313 210 l 521 285 b 271 -33 517 82 421 -33 b 17 386 100 -33 17 124 z m 1035 522 l 1035 110 b 1047 -14 1035 63 1039 13 l 836 -14 b 831 14 833 -6 832 6 b 719 -33 804 -17 768 -33 b 540 219 614 -33 540 61 b 719 472 540 376 614 472 b 824 433 763 472 797 460 l 824 528 b 799 611 824 579 817 611 b 774 531 782 611 774 581 l 564 529 b 799 804 564 688 643 804 b 1035 522 953 804 1035 683 z m 750 219 b 788 139 750 167 764 139 b 824 219 811 139 824 167 b 788 300 824 272 811 300 b 750 219 764 300 750 272 z m 1300 -14 l 1090 -14 l 1090 1104 l 1300 1104 z "},"㎉":{"ha":1333,"x_min":0,"x_max":0,"o":"m 42 -14 l 42 1104 l 203 1104 l 203 536 l 244 785 l 408 785 l 315 401 l 421 -14 l 258 -14 l 203 236 l 203 -14 z m 375 386 b 560 804 375 646 431 804 b 742 486 675 804 739 689 l 585 486 b 560 600 582 560 576 600 b 533 386 540 600 533 540 b 560 171 533 215 542 171 b 585 285 576 171 582 210 l 742 285 b 560 -33 739 82 675 -33 b 375 386 431 -33 375 124 z m 1106 522 l 1106 110 b 1114 -14 1106 63 1108 13 l 967 -14 b 963 6 964 -8 964 -1 b 878 -33 944 -19 913 -33 b 746 219 800 -33 746 61 b 878 472 746 376 800 472 b 944 449 906 472 926 465 l 944 528 b 933 611 944 579 942 611 b 921 531 925 611 921 581 l 763 529 b 933 804 763 699 821 804 b 1106 522 1051 804 1106 697 z m 907 219 b 926 139 907 167 911 139 b 944 219 940 139 944 167 b 926 300 944 272 940 300 b 907 219 911 300 907 272 z m 1299 -14 l 1138 -14 l 1138 1104 l 1299 1104 z "},"㏈":{"ha":1333,"x_min":0,"x_max":0,"o":"m 378 -14 l 378 24 b 247 -33 347 -6 296 -33 b 24 386 101 -33 24 113 b 247 804 24 657 101 804 b 378 747 304 804 347 785 l 378 1104 l 615 1104 l 615 -14 z m 378 386 b 319 604 378 561 358 604 b 261 386 279 604 261 558 b 319 165 261 211 279 165 b 378 386 358 165 378 208 z m 1044 772 b 985 888 1044 856 1025 888 l 925 888 l 925 657 l 985 657 b 1044 772 1025 657 1044 689 z m 1014 -14 l 672 -14 l 672 1104 l 1007 1104 b 1290 796 1196 1104 1290 996 b 1169 569 1290 682 1244 607 l 1168 569 b 1313 317 1257 529 1313 438 b 1014 -14 1313 94 1207 -14 z m 1060 332 b 997 461 1060 422 1040 461 l 925 461 l 925 203 l 997 203 b 1060 332 1040 203 1060 242 z "},"㎧":{"ha":1333,"x_min":0,"x_max":0,"o":"m 888 228 l 1076 228 l 1076 211 b 1107 146 1076 174 1086 146 b 1138 211 1128 146 1138 174 b 1099 289 1138 256 1125 281 b 885 551 957 332 885 392 b 1096 804 885 696 958 804 b 1304 565 1235 804 1304 694 l 1304 556 l 1119 556 l 1119 567 b 1094 624 1119 600 1111 624 b 1071 567 1078 624 1071 600 b 1114 497 1071 529 1085 507 b 1326 231 1253 451 1326 401 b 1107 -33 1326 72 1246 -33 b 888 228 960 -33 888 79 z m 446 -14 l 446 497 b 435 604 446 585 444 604 b 415 449 422 604 415 561 l 415 -14 l 235 -14 l 235 497 b 222 604 235 585 233 604 b 203 449 210 604 203 561 l 203 -14 l 22 -14 l 22 785 l 189 785 l 189 765 b 275 804 208 788 240 804 b 378 742 315 804 354 779 b 485 804 399 776 440 804 b 628 499 578 804 628 706 l 628 32 l 767 1111 l 936 1111 l 751 -325 l 582 -325 l 622 -14 z "},"㎨":{"ha":1333,"x_min":0,"x_max":0,"o":"m 888 228 l 1076 228 l 1076 211 b 1107 146 1076 174 1086 146 b 1138 211 1128 146 1138 174 b 1099 289 1138 256 1125 281 b 885 551 957 332 885 392 b 1096 804 885 696 958 804 b 1304 565 1235 804 1304 694 l 1304 556 l 1119 556 l 1119 567 b 1094 624 1119 600 1111 624 b 1071 567 1078 624 1071 600 b 1114 497 1071 529 1085 507 b 1326 231 1253 451 1326 401 b 1107 -33 1326 72 1246 -33 b 888 228 960 -33 888 79 z m 446 -14 l 446 497 b 435 604 446 585 444 604 b 415 449 422 604 415 561 l 415 -14 l 235 -14 l 235 497 b 222 604 235 585 233 604 b 203 449 210 604 203 561 l 203 -14 l 22 -14 l 22 785 l 189 785 l 189 765 b 275 804 208 788 240 804 b 378 742 315 804 354 779 b 485 804 399 776 440 804 b 628 499 578 804 628 706 l 628 32 l 767 1111 l 936 1111 l 751 -325 l 582 -325 l 622 -14 z m 1319 1100 b 1265 994 1319 1060 1306 1031 l 1196 933 l 1326 933 l 1326 832 l 997 832 l 997 922 l 1150 1054 b 1175 1094 1165 1068 1175 1082 b 1156 1117 1175 1108 1169 1117 b 1135 1094 1142 1117 1135 1108 l 1135 1072 l 990 1072 l 990 1100 b 1156 1217 990 1163 1044 1217 b 1319 1100 1267 1217 1319 1163 z "},"㎰":{"ha":1333,"x_min":0,"x_max":0,"o":"m 304 785 l 304 744 b 447 804 338 781 388 804 b 690 386 603 804 690 660 b 447 -33 690 110 603 -33 b 304 26 388 -33 338 -10 l 304 -361 l 49 -361 l 49 785 z m 304 386 b 368 165 304 210 325 165 b 433 386 411 165 433 207 b 368 604 433 561 411 604 b 304 386 326 604 304 560 z m 708 228 l 975 228 l 975 211 b 1008 146 975 174 985 146 b 1042 211 1033 146 1042 174 b 996 289 1042 257 1025 282 b 704 551 807 333 704 393 b 993 804 704 696 806 804 b 1279 565 1185 804 1279 694 l 1279 556 l 1017 556 l 1017 567 b 992 624 1017 600 1010 624 b 967 567 972 624 967 600 b 1018 497 967 529 986 506 b 1308 231 1204 451 1308 397 b 1008 -33 1308 72 1199 -33 b 708 228 806 -33 708 79 z "},"㎱":{"ha":1333,"x_min":0,"x_max":0,"o":"m 676 499 l 676 -14 l 407 -14 l 407 496 b 364 604 407 572 393 604 b 301 449 325 604 301 547 l 301 -14 l 35 -14 l 35 785 l 301 785 l 301 743 b 451 804 336 782 386 804 b 676 499 593 804 676 706 z m 711 228 l 978 228 l 978 211 b 1011 146 978 174 988 146 b 1044 211 1036 146 1044 174 b 999 289 1044 257 1028 282 b 707 551 810 333 707 393 b 996 804 707 696 808 804 b 1282 565 1188 804 1282 694 l 1282 556 l 1019 556 l 1019 567 b 994 624 1019 600 1013 624 b 969 567 975 624 969 600 b 1021 497 969 529 989 506 b 1311 231 1207 451 1311 397 b 1011 -33 1311 72 1201 -33 b 711 228 808 -33 711 79 z "},"㎲":{"ha":1333,"x_min":0,"x_max":0,"o":"m 421 -14 l 421 8 b 342 -33 400 -17 371 -33 b 301 -18 328 -33 310 -28 l 301 -361 l 35 -361 l 35 785 l 301 785 l 301 272 b 346 163 301 194 317 163 b 407 319 385 163 407 221 l 407 785 l 676 785 l 676 -14 z m 711 228 l 978 228 l 978 211 b 1011 146 978 174 988 146 b 1044 211 1036 146 1044 174 b 999 289 1044 257 1028 282 b 707 551 810 333 707 393 b 996 804 707 696 808 804 b 1282 565 1188 804 1282 694 l 1282 556 l 1019 556 l 1019 567 b 994 624 1019 600 1013 624 b 969 567 975 624 969 600 b 1021 497 969 529 989 506 b 1311 231 1207 451 1311 397 b 1011 -33 1311 72 1201 -33 b 711 228 808 -33 711 79 z "},"㎳":{"ha":1333,"x_min":0,"x_max":0,"o":"m 779 228 l 1015 228 l 1015 211 b 1043 146 1015 174 1025 146 b 1071 211 1063 146 1071 174 b 1032 289 1071 256 1057 282 b 776 551 867 333 776 393 b 1031 804 776 696 850 804 b 1282 565 1213 804 1282 694 l 1282 556 l 1050 556 l 1050 567 b 1029 624 1050 600 1043 624 b 1010 567 1015 624 1010 600 b 1053 497 1010 529 1025 506 b 1307 231 1215 451 1307 397 b 1043 -33 1307 72 1226 -33 b 779 228 853 -33 779 79 z m 535 -14 l 535 497 b 519 604 535 571 531 604 b 492 449 501 604 492 547 l 492 -14 l 292 -14 l 292 497 b 275 604 292 571 288 604 b 249 449 258 604 249 547 l 249 -14 l 49 -14 l 49 785 l 236 785 l 236 765 b 332 804 258 788 300 804 b 450 739 379 804 425 781 b 572 804 475 779 521 804 b 735 499 674 804 735 706 l 735 -14 z "},"㎴":{"ha":1333,"x_min":0,"x_max":0,"o":"m 297 785 l 297 760 b 429 804 332 789 381 804 b 665 386 581 804 665 660 b 429 -33 665 110 581 -33 b 311 7 381 -33 342 -19 l 311 -361 l 49 -361 l 49 785 z m 311 386 b 357 165 311 210 325 165 b 403 386 388 165 403 207 b 357 604 403 561 388 604 b 311 386 326 604 311 560 z m 1082 -14 l 806 -14 l 558 1104 l 835 1104 l 943 479 l 1051 1104 l 1328 1104 z "},"㎵":{"ha":1333,"x_min":0,"x_max":0,"o":"m 646 499 l 646 -14 l 383 -14 l 383 496 b 358 604 383 572 378 604 b 318 449 331 604 318 547 l 318 -14 l 56 -14 l 56 785 l 304 785 l 304 760 b 436 804 336 788 386 804 b 646 499 568 804 646 706 z m 1082 -14 l 806 -14 l 558 1104 l 835 1104 l 943 479 l 1051 1104 l 1328 1104 z "},"㎶":{"ha":1333,"x_min":0,"x_max":0,"o":"m 639 -14 l 403 -14 l 403 10 b 331 -33 388 -14 363 -33 b 308 -25 321 -33 314 -31 l 308 -361 l 49 -361 l 49 785 l 308 785 l 308 272 b 335 163 308 194 319 163 b 376 319 361 163 376 221 l 376 785 l 629 785 l 558 1104 l 835 1104 l 943 479 l 1051 1104 l 1328 1104 l 1082 -14 l 806 -14 l 639 740 z "},"㎷":{"ha":1333,"x_min":0,"x_max":0,"o":"m 1111 -14 l 863 -14 l 640 1104 l 889 1104 l 986 465 l 1083 1104 l 1332 1104 z m 526 -14 l 526 497 b 511 604 526 571 522 604 b 483 449 493 604 483 547 l 483 -14 l 283 -14 l 283 497 b 267 604 283 571 279 604 b 240 449 250 604 240 547 l 240 -14 l 40 -14 l 40 785 l 228 785 l 228 765 b 324 804 250 788 292 804 b 442 739 371 804 417 781 b 564 804 467 779 513 804 b 726 499 665 804 726 706 l 726 -14 z "},"㎸":{"ha":1333,"x_min":0,"x_max":0,"o":"m 53 -14 l 53 1104 l 314 1104 l 314 493 l 415 785 l 629 785 l 558 1104 l 835 1104 l 943 479 l 1051 1104 l 1328 1104 l 1082 -14 l 806 -14 l 647 700 l 532 401 l 706 -14 l 438 -14 l 314 308 l 314 -14 z "},"㎹":{"ha":1333,"x_min":0,"x_max":0,"o":"m 1146 -14 l 924 -14 l 736 1104 l 957 1104 l 1035 476 l 1110 1104 l 1332 1104 z m 464 -14 l 303 -14 l 239 358 l 239 -14 l 39 -14 l 39 1104 l 233 1104 l 383 386 l 533 1104 l 728 1104 l 728 -14 l 526 -14 l 526 360 z "},"㎀":{"ha":1333,"x_min":0,"x_max":0,"o":"m 271 785 l 271 747 b 401 804 301 779 350 804 b 625 386 546 804 625 660 b 401 -33 625 110 546 -33 b 271 24 344 -33 301 -14 l 271 -361 l 33 -361 l 33 785 z m 271 386 b 329 165 271 210 289 165 b 388 386 368 165 388 207 b 329 604 388 561 368 604 b 271 386 290 604 271 560 z m 832 1104 l 1085 1104 l 1332 -14 l 1078 -14 l 1047 165 l 869 165 l 839 -14 l 585 -14 z m 1007 390 l 958 714 l 910 390 z "},"㎁":{"ha":1333,"x_min":0,"x_max":0,"o":"m 1007 390 l 958 714 l 910 390 z m 361 -14 l 361 496 b 324 604 361 572 350 604 b 271 449 290 604 271 547 l 271 -14 l 33 -14 l 33 785 l 271 785 l 271 749 b 401 804 301 783 347 804 b 599 499 525 804 599 706 l 599 49 l 832 1104 l 1085 1104 l 1332 -14 l 1078 -14 l 1047 165 l 869 165 l 839 -14 z "},"㎂":{"ha":1333,"x_min":0,"x_max":0,"o":"m 1007 390 l 958 714 l 910 390 z m 375 -14 l 375 15 b 296 -33 354 -17 324 -33 b 271 -25 288 -33 278 -29 l 271 -361 l 33 -361 l 33 785 l 271 785 l 271 272 b 307 163 271 194 283 163 b 361 319 342 163 361 221 l 361 785 l 599 785 l 599 49 l 832 1104 l 1085 1104 l 1332 -14 l 1078 -14 l 1047 165 l 869 165 l 839 -14 z "},"㎃":{"ha":1333,"x_min":0,"x_max":0,"o":"m 1049 390 l 1010 708 l 971 390 z m 508 -14 l 508 497 b 493 604 508 571 504 604 b 465 449 475 604 465 547 l 465 -14 l 265 -14 l 265 497 b 249 604 265 571 261 604 b 222 449 232 604 222 547 l 222 -14 l 22 -14 l 22 785 l 210 785 l 210 765 b 306 804 232 788 274 804 b 424 739 353 804 399 781 b 546 804 449 779 494 804 b 708 499 647 804 708 706 l 708 103 l 899 1104 l 1121 1104 l 1333 -14 l 1110 -14 l 1082 165 l 936 165 l 908 -14 z "},"㎄":{"ha":1333,"x_min":0,"x_max":0,"o":"m 996 390 l 939 718 l 882 390 z m 415 -14 l 300 313 l 299 313 l 299 -14 l 60 -14 l 60 1104 l 299 1104 l 299 493 l 301 493 l 394 785 l 635 785 l 499 401 l 593 157 l 811 1104 l 1068 1104 l 1326 -14 l 1072 -14 l 1038 165 l 840 165 l 806 -14 z "},"㎺":{"ha":1333,"x_min":0,"x_max":0,"o":"m 226 785 l 226 764 b 340 804 253 790 297 804 b 521 386 456 804 521 660 b 340 -33 521 110 456 -33 b 254 0 306 -33 276 -22 l 254 -361 l 53 -361 l 53 785 z m 254 386 b 286 165 254 210 264 165 b 319 386 308 165 319 207 b 286 604 319 561 308 604 b 254 386 264 604 254 560 z m 808 1104 l 994 1104 l 1067 479 l 1117 1104 l 1329 1104 l 1179 -14 l 988 -14 l 900 589 l 815 -14 l 624 -14 l 474 1104 l 686 1104 l 738 478 z "},"㎻":{"ha":1333,"x_min":0,"x_max":0,"o":"m 503 499 l 503 -14 l 301 -14 l 301 496 b 279 604 301 572 294 604 b 246 449 258 604 246 547 l 246 -14 l 44 -14 l 44 785 l 232 785 l 232 757 b 340 804 257 786 297 804 b 503 499 443 804 503 706 z m 808 1104 l 994 1104 l 1067 479 l 1117 1104 l 1329 1104 l 1179 -14 l 988 -14 l 900 589 l 815 -14 l 624 -14 l 474 1104 l 686 1104 l 738 478 z "},"㎼":{"ha":1333,"x_min":0,"x_max":0,"o":"m 331 -14 l 331 1 b 269 -33 315 -21 292 -33 b 247 -22 260 -33 251 -29 l 247 -361 l 46 -361 l 46 785 l 247 785 l 247 272 b 268 163 247 194 254 163 b 303 319 290 163 303 221 l 303 785 l 504 785 l 504 -14 z m 808 1104 l 994 1104 l 1067 479 l 1117 1104 l 1329 1104 l 1179 -14 l 988 -14 l 900 589 l 815 -14 l 624 -14 l 474 1104 l 686 1104 l 738 478 z "},"㎽":{"ha":1333,"x_min":0,"x_max":0,"o":"m 450 -14 l 450 497 b 439 604 450 571 447 604 b 417 449 425 604 417 547 l 417 -14 l 242 -14 l 242 497 b 229 604 242 571 239 604 b 207 449 215 604 207 547 l 207 -14 l 29 -14 l 29 785 l 193 785 l 193 765 b 279 804 213 790 250 804 b 382 742 319 804 360 779 b 486 804 406 775 443 804 b 629 499 579 804 629 706 l 629 -14 z m 875 1104 l 1043 1104 l 1097 536 l 1139 1104 l 1329 1104 l 1200 -14 l 1026 -14 l 960 546 l 892 -14 l 718 -14 l 589 1104 l 781 1104 l 822 535 z "},"㎾":{"ha":1333,"x_min":0,"x_max":0,"o":"m 39 -14 l 39 1104 l 250 1104 l 250 501 l 340 785 l 517 785 l 474 1104 l 686 1104 l 738 478 l 808 1104 l 994 1104 l 1067 479 l 1117 1104 l 1329 1104 l 1179 -14 l 988 -14 l 900 589 l 815 -14 l 624 -14 l 528 700 l 425 401 l 578 -14 l 358 -14 l 250 301 l 250 -14 z "},"㎿":{"ha":1333,"x_min":0,"x_max":0,"o":"m 393 -14 l 250 -14 l 210 339 l 210 -14 l 35 -14 l 35 1104 l 204 1104 l 322 446 l 439 1104 l 608 1104 l 608 -14 l 435 -14 l 435 343 z m 897 1104 l 1054 1104 l 1110 538 l 1149 1104 l 1329 1104 l 1206 -14 l 1043 -14 l 975 576 l 908 -14 l 744 -14 l 622 1104 l 803 1104 l 842 542 z "},"㎐":{"ha":1333,"x_min":0,"x_max":0,"o":"m 454 -14 l 454 439 l 339 439 l 339 -14 l 75 -14 l 75 1104 l 339 1104 l 339 679 l 454 679 l 454 1104 l 718 1104 l 718 -14 z m 1058 189 l 1289 189 l 1289 -14 l 765 -14 l 765 168 l 988 581 l 774 581 l 774 785 l 1281 785 l 1281 603 z "},"㎑":{"ha":1333,"x_min":0,"x_max":0,"o":"m 1161 189 l 1313 189 l 1313 -14 l 944 -14 l 944 164 l 1090 581 l 950 581 l 950 785 l 1307 785 l 1307 607 z m 278 -14 l 231 242 l 231 -14 l 36 -14 l 36 1104 l 231 1104 l 231 556 l 264 785 l 461 785 l 364 401 l 475 -8 l 475 1104 l 675 1104 l 675 679 l 722 679 l 722 1104 l 921 1104 l 921 -14 l 722 -14 l 722 439 l 675 439 l 675 -14 z "},"㎒":{"ha":1333,"x_min":0,"x_max":0,"o":"m 781 -14 l 781 439 l 751 439 l 751 -14 l 569 -14 l 569 1104 l 751 1104 l 751 679 l 781 679 l 781 1104 l 960 1104 l 960 -14 z m 1182 189 l 1311 189 l 1311 -14 l 988 -14 l 988 164 l 1111 581 l 992 581 l 992 785 l 1306 785 l 1306 607 z m 346 -14 l 218 -14 l 189 344 l 189 -14 l 32 -14 l 32 1104 l 188 1104 l 282 479 l 376 1104 l 531 1104 l 531 -14 l 375 -14 l 375 347 z "},"㎓":{"ha":1333,"x_min":0,"x_max":0,"o":"m 15 546 b 256 1124 15 900 81 1124 b 492 708 404 1124 489 967 l 300 708 b 256 883 299 818 285 883 b 208 546 224 883 208 825 b 260 206 208 275 224 206 b 307 389 286 206 304 289 l 236 389 l 236 588 l 492 588 l 492 -14 l 339 -14 l 336 21 b 236 -33 313 -11 276 -33 b 15 546 88 -33 15 188 z m 750 -14 l 750 439 l 703 439 l 703 -14 l 514 -14 l 514 1104 l 703 1104 l 703 679 l 750 679 l 750 1104 l 940 1104 l 940 -14 z m 1172 189 l 1319 189 l 1319 -14 l 963 -14 l 963 168 l 1104 581 l 968 581 l 968 785 l 1314 785 l 1314 603 z "},"㎔":{"ha":1333,"x_min":0,"x_max":0,"o":"m 14 865 l 14 1104 l 456 1104 l 456 865 l 336 865 l 336 -14 l 133 -14 l 133 865 z m 731 -14 l 731 439 l 683 439 l 683 -14 l 483 -14 l 483 1104 l 683 1104 l 683 679 l 731 679 l 731 1104 l 929 1104 l 929 -14 z m 1169 189 l 1321 189 l 1321 -14 l 953 -14 l 953 164 l 1099 581 l 958 581 l 958 785 l 1315 785 l 1315 607 z "},"Ω":{"ha":1039,"x_min":0,"x_max":0,"o":"m 519 1124 b 867 989 668 1124 789 1079 b 988 607 957 885 988 754 b 801 224 988 414 924 288 l 968 224 l 968 -14 l 558 -14 l 558 224 b 686 546 643 267 686 351 b 642 824 686 697 676 772 b 519 883 613 865 574 883 b 397 824 465 883 426 865 b 353 546 363 772 353 697 b 481 224 353 351 396 267 l 481 -14 l 71 -14 l 71 224 l 238 224 b 51 607 115 288 51 414 b 172 989 51 754 82 885 b 519 1124 250 1079 371 1124 z "},"㏀":{"ha":1333,"x_min":0,"x_max":0,"o":"m 67 -14 l 67 1104 l 299 1104 l 285 538 l 367 785 l 601 785 l 469 401 l 619 -14 l 386 -14 l 299 229 l 299 -14 z m 951 883 b 918 869 939 883 928 879 b 874 546 881 832 874 718 b 939 218 874 349 893 261 l 939 -14 l 640 -14 l 640 224 l 742 224 b 629 607 665 296 629 424 b 803 1090 629 833 667 1018 b 951 1124 843 1113 892 1124 b 1100 1090 1011 1124 1060 1113 b 1274 607 1236 1018 1274 833 b 1161 224 1274 424 1238 296 l 1263 224 l 1263 -14 l 964 -14 l 964 218 b 1029 546 1010 261 1029 349 b 985 869 1029 718 1022 832 b 951 883 975 879 964 883 z "},"㏁":{"ha":1333,"x_min":0,"x_max":0,"o":"m 453 -14 l 292 -14 l 228 358 l 228 -14 l 28 -14 l 28 1104 l 222 1104 l 372 386 l 522 1104 l 717 1104 l 717 -14 l 515 -14 l 515 360 z m 1025 883 b 996 869 1014 883 1004 878 b 954 546 964 835 954 733 b 1011 217 954 344 969 261 l 1011 -14 l 758 -14 l 758 224 l 857 224 b 747 607 792 293 747 422 b 858 1063 747 819 774 981 b 1025 1124 899 1103 953 1124 b 1192 1063 1097 1124 1151 1103 b 1303 607 1276 981 1303 819 b 1193 224 1303 422 1258 293 l 1292 224 l 1292 -14 l 1039 -14 l 1039 217 b 1096 546 1081 261 1096 344 b 1054 869 1096 733 1086 835 b 1025 883 1046 878 1036 883 z "},"㎊":{"ha":1333,"x_min":0,"x_max":0,"o":"m 306 785 l 306 750 b 443 804 339 781 389 804 b 685 386 600 804 685 660 b 443 -33 685 110 600 -33 b 306 21 389 -33 339 -10 l 306 -361 l 46 -361 l 46 785 z m 306 386 b 365 165 306 210 325 165 b 425 386 404 165 425 207 b 365 604 425 561 404 604 b 306 386 325 604 306 560 z m 719 -14 l 719 1104 l 1308 1104 l 1308 865 l 996 865 l 996 663 l 1272 663 l 1272 424 l 996 424 l 996 -14 z "},"㎋":{"ha":1333,"x_min":0,"x_max":0,"o":"m 657 499 l 657 -14 l 396 -14 l 396 496 b 360 604 396 572 385 604 b 306 449 325 604 306 547 l 306 -14 l 46 -14 l 46 785 l 306 785 l 306 751 b 442 804 339 785 385 804 b 657 499 578 804 657 706 z m 719 -14 l 719 1104 l 1308 1104 l 1308 865 l 996 865 l 996 663 l 1272 663 l 1272 424 l 996 424 l 996 -14 z "},"㎌":{"ha":1333,"x_min":0,"x_max":0,"o":"m 410 -14 l 410 6 b 325 -33 388 -19 354 -33 b 306 -28 318 -33 310 -31 l 306 -361 l 46 -361 l 46 785 l 306 785 l 306 272 b 342 163 306 194 318 163 b 396 319 376 163 396 221 l 396 785 l 657 785 l 657 -14 z m 719 -14 l 719 1104 l 1308 1104 l 1308 865 l 996 865 l 996 663 l 1272 663 l 1272 424 l 996 424 l 996 -14 z "},"㏖":{"ha":1333,"x_min":0,"x_max":0,"o":"m 486 -14 l 486 497 b 468 604 486 571 481 604 b 438 449 447 604 438 547 l 438 -14 l 253 -14 l 253 497 b 235 604 253 571 247 604 b 204 449 214 604 204 547 l 204 -14 l 21 -14 l 21 785 l 189 785 l 189 756 b 289 804 211 783 250 804 b 403 725 340 804 379 783 b 521 804 428 775 467 804 b 669 499 617 804 669 706 l 669 -14 z m 869 386 b 897 171 869 215 874 171 b 925 386 919 171 925 213 b 897 600 925 551 921 600 b 869 386 872 600 869 549 z m 686 386 b 897 804 686 646 738 804 b 1107 386 1057 804 1107 646 b 897 -33 1107 124 1057 -33 b 686 386 738 -33 686 124 z m 1308 -14 l 1124 -14 l 1124 1104 l 1308 1104 z "},"㏅":{"ha":1333,"x_min":0,"x_max":0,"o":"m 33 386 b 340 804 33 646 133 804 b 643 486 521 804 638 689 l 382 486 b 340 600 378 560 367 600 b 296 386 307 600 296 540 b 340 171 296 215 310 171 b 382 285 367 171 378 210 l 643 285 b 340 -33 638 82 521 -33 b 33 386 133 -33 33 124 z m 1032 -14 l 1032 13 b 901 -33 1000 -12 950 -33 b 663 386 747 -33 663 113 b 901 804 663 657 747 804 b 1018 769 946 804 988 790 l 1018 1104 l 1283 1104 l 1283 -14 z m 1018 386 b 974 604 1018 561 1003 604 b 929 386 943 604 929 558 b 974 165 929 211 943 165 b 1018 386 1003 165 1018 208 z "},"㎭":{"ha":1333,"x_min":0,"x_max":0,"o":"m 819 522 l 819 110 b 831 -14 819 63 822 11 l 647 -14 b 640 13 644 -7 642 3 b 539 -33 618 -14 578 -33 b 375 219 442 -33 375 61 b 539 472 375 376 442 472 b 621 447 572 472 599 465 l 621 528 b 607 611 621 579 618 611 b 594 531 597 611 594 581 l 396 529 b 607 804 396 693 463 804 b 819 522 750 804 819 689 z m 574 219 b 597 139 574 167 579 139 b 621 219 615 139 621 167 b 597 300 621 272 615 300 b 574 219 579 300 574 272 z m 1124 -14 l 1124 13 b 1024 -33 1104 -12 1065 -33 b 846 386 908 -33 846 113 b 1024 804 846 657 908 804 b 1110 769 1060 804 1088 792 l 1110 1104 l 1307 1104 l 1307 -14 z m 1110 386 b 1078 604 1110 561 1099 604 b 1044 386 1054 604 1044 558 b 1078 165 1044 211 1054 165 b 1110 386 1099 165 1110 208 z m 344 572 b 225 353 269 572 225 497 l 225 -14 l 26 -14 l 26 785 l 225 785 l 225 706 b 346 804 247 772 288 804 b 389 794 363 804 379 801 l 388 569 b 344 572 374 571 358 572 z "},"㎮":{"ha":1333,"x_min":0,"x_max":0,"o":"m 858 81 l 1033 81 l 1033 67 b 1071 47 1033 54 1046 47 b 1108 68 1097 47 1108 56 b 1065 92 1108 79 1094 88 b 856 236 925 111 856 144 b 1060 376 856 318 926 376 b 1263 233 1194 376 1263 319 l 1090 233 l 1090 244 b 1058 258 1090 254 1081 258 b 1028 243 1038 258 1028 254 b 1075 224 1028 233 1044 229 b 1283 76 1211 201 1283 175 b 1071 -69 1283 -12 1207 -69 b 858 81 928 -69 858 -11 z m 685 831 l 685 624 b 701 551 685 601 689 574 l 535 551 b 531 569 533 556 531 564 b 447 542 510 553 476 542 b 306 679 364 542 306 593 b 447 817 306 764 364 817 b 513 807 472 817 494 814 l 513 833 b 504 867 513 856 511 867 b 496 838 497 867 496 854 l 322 838 b 503 982 322 933 379 982 b 685 831 626 982 685 921 z m 481 679 b 494 650 481 660 483 650 b 510 679 507 650 510 660 b 494 708 510 699 507 708 b 481 679 483 708 481 699 z m 936 551 l 936 572 b 850 542 914 554 882 542 b 699 763 751 542 699 618 b 850 982 699 904 751 982 b 917 969 878 982 900 978 l 917 1132 l 1092 1132 l 1092 578 l 1250 642 l 1304 518 l 103 28 l 46 156 l 1026 551 z m 917 763 b 897 860 917 842 910 860 b 874 763 881 860 874 840 b 897 663 874 683 881 663 b 917 763 910 663 917 682 z m 275 844 b 196 746 222 844 196 813 l 196 551 l 19 551 l 19 972 l 196 972 l 196 944 b 276 982 213 968 243 982 b 317 976 292 982 306 981 l 315 844 z "},"㎯":{"ha":1333,"x_min":0,"x_max":0,"o":"m 1325 413 b 1293 340 1325 383 1313 360 l 1269 318 l 1329 318 l 1329 243 l 1160 243 b 1161 218 1160 235 1161 226 l 989 218 l 989 229 b 957 243 989 239 979 243 b 926 228 936 243 926 239 b 974 208 926 218 943 214 b 1182 61 1110 186 1182 160 b 969 -85 1182 -28 1106 -85 b 757 65 826 -85 757 -26 l 932 65 l 932 51 b 969 32 932 39 944 32 b 1007 53 996 32 1007 40 b 964 76 1007 64 993 72 b 754 221 824 96 754 129 b 958 361 754 303 825 361 b 1126 308 1038 361 1093 342 l 1221 382 b 1232 406 1226 388 1232 396 b 1224 415 1232 414 1228 415 b 1215 407 1218 415 1215 413 l 1215 399 l 1122 399 l 1122 413 b 1225 489 1122 458 1157 489 b 1325 413 1293 489 1325 461 z m 678 831 l 678 624 b 694 551 678 601 682 574 l 528 551 b 524 569 526 556 524 564 b 440 542 503 553 469 542 b 299 679 357 542 299 593 b 440 817 299 764 357 817 b 506 807 465 817 488 814 l 506 833 b 497 867 506 856 504 867 b 489 838 490 867 489 854 l 315 838 b 496 982 315 933 372 982 b 678 831 619 982 678 921 z m 474 679 b 488 650 474 660 476 650 b 503 679 500 650 503 660 b 488 708 503 699 500 708 b 474 679 476 708 474 699 z m 929 551 l 929 572 b 843 542 907 554 875 542 b 692 763 744 542 692 618 b 843 982 692 904 744 982 b 910 969 871 982 893 978 l 910 1132 l 1085 1132 l 1085 596 l 1229 654 l 1278 540 l 76 50 l 25 168 l 975 551 z m 910 763 b 890 860 910 842 903 860 b 867 763 874 860 867 840 b 890 663 867 683 874 663 b 910 763 903 663 910 682 z m 268 844 b 189 746 215 844 189 813 l 189 551 l 13 551 l 13 972 l 189 972 l 189 944 b 269 982 206 968 236 982 b 310 976 285 982 299 981 l 308 844 z "},"㏛":{"ha":1333,"x_min":0,"x_max":0,"o":"m 101 228 l 360 228 l 360 211 b 408 146 360 174 375 146 b 456 211 440 146 456 174 b 399 289 456 254 435 281 b 99 551 204 332 99 392 b 392 804 99 696 200 804 b 683 565 586 804 683 694 l 683 556 l 429 556 l 429 567 b 390 624 429 600 417 624 b 351 567 364 624 351 600 b 415 497 351 529 374 507 b 714 231 611 453 714 401 b 408 -33 714 72 603 -33 b 101 228 203 -33 101 79 z m 1172 572 b 1017 353 1075 572 1017 497 l 1017 -14 l 757 -14 l 757 785 l 1017 785 l 1017 704 b 1174 804 1046 771 1097 804 b 1231 793 1197 804 1217 803 l 1229 569 b 1172 572 1207 572 1190 572 z "},"㎩":{"ha":1333,"x_min":0,"x_max":0,"o":"m 413 361 l 322 361 l 322 -14 l 56 -14 l 56 1104 l 413 1104 b 710 732 606 1104 710 968 b 413 361 710 494 606 361 z m 322 600 l 381 600 b 443 732 421 600 443 640 b 381 865 443 826 421 865 l 322 865 z m 1281 522 l 1281 110 b 1294 -14 1281 61 1283 10 l 1044 -14 b 1036 17 1042 -7 1039 7 b 910 -33 1006 -12 961 -33 b 697 219 783 -33 697 61 b 910 472 697 376 783 472 b 1028 438 954 472 999 458 l 1028 528 b 1003 611 1028 579 1022 611 b 976 531 983 611 976 581 l 725 529 b 1003 804 725 688 819 804 b 1281 522 1183 804 1281 683 z m 949 219 b 989 139 949 167 964 139 b 1028 219 1015 139 1028 167 b 989 300 1028 272 1015 300 b 949 219 964 300 949 272 z "},"㎪":{"ha":1333,"x_min":0,"x_max":0,"o":"m 674 600 l 697 600 b 724 732 714 600 724 640 b 697 865 724 826 714 865 l 674 865 z m 1311 522 l 1311 110 b 1319 -14 1311 61 1313 10 l 1144 -14 b 1138 7 1142 -8 1139 0 b 1056 -33 1121 -14 1088 -33 b 904 219 965 -33 904 47 b 1056 472 904 390 965 472 b 1126 456 1083 472 1110 465 l 1126 528 b 1117 611 1126 579 1125 611 b 1107 531 1108 611 1107 581 l 922 529 b 1117 804 922 688 988 804 b 1311 522 1242 804 1311 683 z m 1092 219 b 1107 139 1092 167 1094 139 b 1125 219 1121 139 1125 167 b 1107 300 1125 272 1121 300 b 1092 219 1094 300 1092 272 z m 278 -14 l 224 233 l 224 -14 l 28 -14 l 28 1104 l 224 1104 l 224 542 l 269 785 l 472 785 l 368 401 l 476 7 l 476 1104 l 715 1104 b 922 732 849 1104 922 968 b 715 361 922 494 849 361 l 674 361 l 674 -14 z "},"㎫":{"ha":1333,"x_min":0,"x_max":0,"o":"m 342 -14 l 214 -14 l 181 347 l 181 -14 l 25 -14 l 25 1104 l 178 1104 l 278 465 l 376 1104 l 528 1104 l 528 -14 l 375 -14 l 375 350 z m 776 361 l 743 361 l 743 -14 l 567 -14 l 567 1104 l 776 1104 b 958 732 893 1104 958 968 b 776 361 958 494 893 361 z m 743 600 l 761 600 b 781 732 774 600 781 640 b 761 865 781 826 774 865 l 743 865 z m 1308 522 l 1308 110 b 1317 -14 1308 61 1310 10 l 1160 -14 b 1157 8 1158 -8 1157 0 b 1082 -33 1142 -17 1114 -33 b 944 219 1001 -33 944 47 b 1082 472 944 390 1001 472 b 1142 458 1104 472 1128 467 l 1142 528 b 1133 611 1142 579 1140 611 b 1126 531 1126 611 1126 581 l 960 529 b 1133 804 960 688 1017 804 b 1308 522 1249 804 1308 683 z m 1113 219 b 1126 139 1113 167 1117 139 b 1142 219 1138 139 1142 167 b 1126 300 1142 272 1138 300 b 1113 219 1117 300 1113 272 z "},"㎬":{"ha":1333,"x_min":0,"x_max":0,"o":"m 756 361 l 718 361 l 718 -14 l 540 -14 l 540 1104 l 756 1104 b 942 732 875 1104 942 968 b 756 361 942 494 875 361 z m 718 600 l 739 600 b 763 732 754 600 763 640 b 739 865 763 826 754 865 l 718 865 z m 1299 522 l 1299 110 b 1306 -14 1299 61 1300 10 l 1149 -14 b 1142 7 1146 -8 1143 0 b 1068 -33 1128 -14 1097 -33 b 932 219 988 -33 932 47 b 1068 472 932 390 988 472 b 1132 456 1093 472 1117 465 l 1132 528 b 1124 611 1132 579 1131 611 b 1115 531 1117 611 1115 581 l 949 529 b 1124 804 949 688 1007 804 b 1299 522 1236 804 1299 683 z m 1101 219 b 1115 139 1101 167 1104 139 b 1131 219 1128 139 1131 167 b 1115 300 1131 272 1128 300 b 1101 219 1104 300 1101 272 z m 29 546 b 269 1124 29 900 94 1124 b 506 708 418 1124 503 967 l 314 708 b 269 883 313 818 299 883 b 222 546 238 883 222 825 b 274 206 222 275 238 206 b 321 389 300 206 318 289 l 250 389 l 250 588 l 506 588 l 506 -14 l 353 -14 l 350 21 b 250 -33 326 -11 290 -33 b 29 546 101 -33 29 188 z "},"㏝":{"ha":1333,"x_min":0,"x_max":0,"o":"m 308 1104 l 488 1104 l 547 533 l 590 1104 l 792 1104 l 656 -14 l 471 -14 l 399 547 l 325 -14 l 142 -14 l 4 1104 l 207 1104 l 249 533 z m 1015 26 l 1015 -14 l 814 -14 l 814 1104 l 1015 1104 l 1015 744 b 1128 804 1042 778 1082 804 b 1318 386 1251 804 1318 660 b 1128 -33 1318 110 1251 -33 b 1015 26 1082 -33 1042 -7 z m 1015 386 b 1065 165 1015 210 1031 165 b 1118 386 1100 165 1118 207 b 1065 604 1118 561 1100 604 b 1015 386 1032 604 1015 560 z "},"㏐":{"ha":1333,"x_min":0,"x_max":0,"o":"m 308 -14 l 44 -14 l 44 1104 l 308 1104 z m 1018 -14 l 1018 497 b 996 604 1018 571 1014 604 b 957 449 971 604 957 547 l 957 -14 l 692 -14 l 692 497 b 669 604 692 571 688 604 b 632 449 643 604 632 547 l 632 -14 l 367 -14 l 367 785 l 618 785 l 618 756 b 746 804 650 785 700 804 b 906 731 814 804 871 779 b 1069 804 942 774 999 804 b 1283 499 1207 804 1283 706 l 1283 -14 z "},"㏓":{"ha":1333,"x_min":0,"x_max":0,"o":"m 404 -14 l 125 -14 l 125 1104 l 404 1104 z m 950 -14 l 838 256 l 725 -14 l 439 -14 l 650 397 l 456 785 l 742 785 l 838 536 l 935 785 l 1221 785 l 1026 397 l 1236 -14 z "},"㏃":{"ha":1333,"x_min":0,"x_max":0,"o":"m 410 772 b 350 888 410 856 390 888 l 304 888 l 304 657 l 350 657 b 410 772 390 657 410 689 z m 379 -14 l 51 -14 l 51 1104 l 372 1104 b 656 796 561 1104 656 996 b 535 569 656 682 610 607 l 533 569 b 678 317 622 529 678 438 b 379 -14 678 94 572 -14 z m 425 332 b 363 461 425 422 406 461 l 304 461 l 304 203 l 363 203 b 425 332 406 203 425 242 z m 1051 747 l 1051 785 l 1289 785 l 1289 -361 l 1051 -361 l 1051 24 b 921 -33 1021 -8 971 -33 b 696 386 775 -33 696 113 b 921 804 696 657 775 804 b 1051 747 978 804 1021 785 z m 1051 386 b 993 604 1051 561 1031 604 b 935 386 953 604 935 558 b 993 165 935 211 953 165 b 1051 386 1032 165 1051 208 z "},"㏉":{"ha":1333,"x_min":0,"x_max":0,"o":"m 33 546 b 372 1124 33 900 128 1124 b 704 708 581 1124 699 967 l 460 708 b 372 883 457 818 431 883 b 279 546 311 883 279 825 b 376 206 279 275 308 206 b 471 389 432 206 467 282 l 354 389 l 354 588 l 704 588 l 704 -14 l 517 -14 l 508 58 b 344 -33 472 4 415 -33 b 33 546 133 -33 33 188 z m 900 -72 l 913 -14 l 721 785 l 956 785 l 1026 353 l 1094 785 l 1331 785 l 1122 -103 b 892 -361 1076 -297 1026 -361 b 786 -354 864 -361 825 -361 l 786 -158 l 847 -158 b 900 -72 868 -158 886 -139 z "},"㏜":{"ha":1333,"x_min":0,"x_max":0,"o":"m 690 317 b 360 -33 690 115 581 -33 b 31 306 147 -33 31 108 l 31 328 l 283 328 l 283 303 b 360 193 283 238 310 193 b 438 303 411 193 438 238 b 339 428 438 369 411 407 l 275 446 b 24 790 126 488 24 588 b 340 1124 24 982 142 1124 b 657 804 547 1124 657 976 l 657 785 l 404 785 l 404 804 b 340 896 404 861 382 896 b 276 804 299 896 276 861 b 378 685 276 742 307 703 b 440 669 399 679 419 675 b 690 317 600 631 690 513 z m 1121 -14 l 882 -14 l 674 785 l 915 785 l 1001 353 l 1086 785 l 1328 785 z "},"㏆":{"ha":1333,"x_min":0,"x_max":0,"o":"m 21 839 b 78 1068 21 935 35 1013 b 247 1139 115 1115 174 1139 b 471 910 388 1139 467 1053 l 303 910 b 247 997 301 964 285 997 b 207 972 232 997 217 985 b 189 839 194 951 189 914 b 207 704 189 764 193 726 b 247 681 218 690 232 681 b 303 768 285 681 301 714 l 471 768 b 247 539 467 625 388 539 b 78 610 174 539 115 563 b 21 839 35 665 21 742 z m 544 -8 l 544 504 l 146 -69 l 18 14 l 800 1121 l 921 1046 l 590 569 l 715 569 l 715 286 l 761 424 l 942 424 l 846 215 l 957 -8 l 776 -8 l 715 139 l 715 -8 z m 1133 208 b 1111 300 1133 282 1126 300 b 1088 208 1096 300 1088 281 b 1111 114 1088 133 1096 114 b 1133 208 1126 114 1133 133 z m 1300 424 l 1300 -18 b 1119 -194 1300 -122 1243 -194 b 936 -40 1007 -194 944 -140 l 1106 -40 b 1119 -67 1107 -60 1113 -67 b 1133 -28 1129 -67 1133 -56 l 1133 -1 b 1067 -18 1114 -12 1092 -18 b 921 208 972 -18 921 61 b 1067 433 921 354 972 433 b 1144 407 1097 433 1126 422 l 1144 424 z "},"Æ":{"ha":1496,"x_min":0,"x_max":0,"o":"m 1451 -14 l 714 -14 l 714 165 l 407 165 b 326 -14 379 106 353 46 l -14 -14 b 518 1104 163 358 340 732 l 1443 1104 l 1443 865 l 1015 865 l 1015 679 l 1386 679 l 1386 439 l 1015 439 l 1015 224 l 1451 224 z m 714 390 l 714 853 l 506 390 z "},"Ð":{"ha":1036,"x_min":0,"x_max":0,"o":"m 532 -14 l 96 -14 l 96 460 l 0 460 l 0 631 l 96 631 l 96 1104 l 532 1104 b 988 546 889 1104 988 890 b 532 -14 988 196 888 -14 z m 397 631 l 526 631 l 526 460 l 397 460 l 397 215 l 522 215 b 688 546 640 215 688 274 b 522 875 688 822 635 875 l 397 875 z "},"ª":{"ha":764,"x_min":0,"x_max":0,"o":"m 421 579 b 279 504 403 535 353 504 b 89 689 160 504 89 578 b 279 874 89 799 160 874 b 421 797 353 874 403 842 l 421 913 b 382 961 421 949 410 961 b 344 915 356 961 346 947 l 119 915 b 382 1117 126 1039 214 1117 b 644 911 556 1117 644 1033 l 644 600 b 661 518 644 569 651 538 l 435 518 b 421 579 428 532 421 557 z m 421 689 b 361 735 421 721 397 735 b 300 689 325 735 300 721 b 361 643 300 656 325 643 b 421 689 397 643 421 656 z m 699 290 l 63 290 l 63 451 l 699 451 z "},"Ħ":{"ha":1035,"x_min":0,"x_max":0,"o":"m 0 964 l 96 964 l 96 1104 l 397 1104 l 397 964 l 638 964 l 638 1104 l 939 1104 l 939 964 l 1035 964 l 1035 793 l 939 793 l 939 -14 l 638 -14 l 638 439 l 397 439 l 397 -14 l 96 -14 l 96 793 l 0 793 z m 397 679 l 638 679 l 638 793 l 397 793 z "},"Ĳ":{"ha":1336,"x_min":0,"x_max":0,"o":"m 369 1104 l 369 -14 l 68 -14 l 68 1104 z m 882 206 b 969 317 940 206 969 244 l 969 1104 l 1271 1104 l 1271 321 b 882 -33 1271 106 1138 -33 b 492 321 626 -33 492 106 l 492 363 l 793 363 l 793 317 b 882 206 793 244 822 206 z "},"Ŀ":{"ha":821,"x_min":0,"x_max":0,"o":"m 68 -14 l 68 1104 l 369 1104 l 369 224 l 804 224 l 804 -14 z m 708 703 l 708 472 l 471 472 l 471 703 z "},"Ł":{"ha":851,"x_min":0,"x_max":0,"o":"m -8 282 l -8 489 b 99 546 25 508 63 526 l 99 1104 l 400 1104 l 400 704 l 621 821 l 621 615 b 400 497 547 576 474 536 l 400 224 l 835 224 l 835 -14 l 99 -14 l 99 340 b -8 282 63 321 25 301 z "},"Ø":{"ha":1033,"x_min":0,"x_max":0,"o":"m 985 546 b 517 -33 985 181 849 -33 b 289 13 429 -33 353 -17 b 243 -65 274 -12 258 -39 l 76 -65 b 172 100 108 -10 140 44 b 171 101 171 100 171 100 b 49 546 76 196 49 360 b 517 1124 49 900 179 1124 b 746 1076 604 1124 681 1107 b 790 1156 761 1103 775 1129 l 957 1156 b 861 990 925 1100 893 1046 b 985 546 951 885 985 738 z m 683 546 b 679 679 683 597 683 642 b 419 238 593 532 506 385 b 517 206 444 215 476 206 b 683 546 628 206 683 263 z m 350 546 b 354 410 350 490 351 447 b 613 853 440 557 526 706 b 517 883 588 874 556 883 b 350 546 407 883 350 825 z "},"Œ":{"ha":1429,"x_min":0,"x_max":0,"o":"m 1381 -14 l 510 -14 b 53 546 154 -14 53 193 b 510 1104 53 896 154 1104 l 1374 1104 l 1374 865 l 946 865 l 946 679 l 1315 679 l 1315 439 l 946 439 l 946 224 l 1381 224 z m 354 546 b 519 215 354 274 401 215 l 644 215 l 644 875 l 519 875 b 354 546 406 875 354 822 z "},"º":{"ha":764,"x_min":0,"x_max":0,"o":"m 446 808 l 446 811 b 429 935 446 878 442 914 b 382 961 419 954 404 961 b 333 935 358 961 344 954 b 318 811 321 914 318 878 b 333 685 318 742 321 707 b 382 660 344 667 358 660 b 429 685 404 660 419 667 b 446 808 442 707 446 742 z m 668 808 b 586 569 668 701 644 624 b 382 504 539 526 475 504 b 178 569 288 504 224 526 b 94 808 119 624 94 701 b 178 1050 94 918 119 996 b 382 1117 224 1094 288 1117 b 586 1050 475 1117 539 1094 b 668 808 644 996 668 918 z m 699 276 l 63 276 l 63 451 l 699 451 z "},"Þ":{"ha":951,"x_min":0,"x_max":0,"o":"m 369 917 l 538 917 b 922 546 788 917 922 782 b 538 174 922 307 788 174 l 369 174 l 369 -14 l 68 -14 l 68 1104 l 369 1104 z m 369 413 l 492 413 b 621 546 576 413 621 451 b 492 678 621 639 576 678 l 369 678 z "},"Ŧ":{"ha":892,"x_min":0,"x_max":0,"o":"m 163 643 l 296 643 l 296 865 l 15 865 l 15 1104 l 876 1104 l 876 865 l 597 865 l 597 643 l 729 643 l 729 472 l 597 472 l 597 -14 l 296 -14 l 296 472 l 163 472 z "},"Ŋ":{"ha":994,"x_min":0,"x_max":0,"o":"m 629 44 l 363 589 l 363 -14 l 68 -14 l 68 1104 l 338 1104 l 631 501 l 631 1104 l 926 1104 l 926 -65 b 611 -361 926 -254 831 -361 b 481 -356 575 -361 511 -360 l 481 -156 l 529 -156 b 629 -47 599 -156 629 -125 z "}}}
